# MagicaVoxel @ Ephtracy

# group
o 

# material
mtllib Fireboll.mtl
usemtl palette

# normals
vn -1 0 0
vn 1 0 0
vn 0 0 1
vn 0 0 -1
vn 0 -1 0
vn 0 1 0

# texcoords
vt 0.0917969 0.5
vt 0.185547 0.5
vt 0.279297 0.5

# verts
v 1.3 2.5 -1.6
v 1.3 2.5 -1.7
v 1.3 2.6 -1.6
v 1.3 2.6 -1.7
v 1.4 2.7 -1.8
v 1.4 2.7 -1.9
v 1.4 2.8 -1.8
v 1.4 2.8 -1.9
v 1.5 2.1 -1.5
v 1.5 2.1 -2.1
v 1.5 2.2 -1.4
v 1.5 2.2 -1.5
v 1.5 2.2 -2.1
v 1.5 2.2 -2.2
v 1.5 2.3 -1.4
v 1.5 2.3 -1.5
v 1.5 2.3 -2.1
v 1.5 2.3 -2.2
v 1.5 2.4 -1.5
v 1.5 2.4 -2.1
v 1.5 2.6 -1.7
v 1.5 2.6 -1.8
v 1.5 2.7 -1.7
v 1.5 2.7 -1.8
v 1.6 2.3 -1.4
v 1.6 2.3 -1.5
v 1.6 2.3 -2.1
v 1.6 2.3 -2.2
v 1.6 2.4 -1.4
v 1.6 2.4 -1.5
v 1.6 2.4 -2.1
v 1.6 2.4 -2.2
v 1.7 2 -1.6
v 1.7 2 -2
v 1.7 2.1 -1.6
v 1.7 2.1 -2
v 1.7 2.4 -1.4
v 1.7 2.4 -2.2
v 1.7 2.5 -1.4
v 1.7 2.5 -2.2
v 1.7 2.6 -1.7
v 1.7 2.6 -1.9
v 1.7 2.7 -1.7
v 1.7 2.7 -1.9
v 1.8 2.5 -1.5
v 1.8 2.5 -2.1
v 1.8 2.6 -1.5
v 1.8 2.6 -1.6
v 1.8 2.6 -1.7
v 1.8 2.6 -1.9
v 1.8 2.6 -2
v 1.8 2.6 -2.1
v 1.8 2.7 -1.6
v 1.8 2.7 -1.7
v 1.8 2.7 -1.9
v 1.8 2.7 -2
v 1.9 2.7 -1.7
v 1.9 2.7 -1.9
v 1.9 2.8 -1.7
v 1.9 2.8 -1.9
v 1.4 2.5 -1.6
v 1.4 2.5 -1.7
v 1.4 2.6 -1.6
v 1.4 2.6 -1.7
v 1.5 2.7 -1.8
v 1.5 2.7 -1.9
v 1.5 2.8 -1.8
v 1.5 2.8 -1.9
v 1.6 2.6 -1.7
v 1.6 2.6 -1.8
v 1.6 2.7 -1.7
v 1.6 2.7 -1.8
v 2.1 2 -1.6
v 2.1 2 -2
v 2.1 2.1 -1.6
v 2.1 2.1 -2
v 2.1 2.7 -1.7
v 2.1 2.7 -1.9
v 2.1 2.8 -1.7
v 2.1 2.8 -1.9
v 2.2 2.6 -1.6
v 2.2 2.6 -2
v 2.2 2.7 -1.6
v 2.2 2.7 -2
v 2.3 2.1 -1.5
v 2.3 2.1 -2.1
v 2.3 2.2 -1.4
v 2.3 2.2 -1.5
v 2.3 2.2 -2.1
v 2.3 2.2 -2.2
v 2.3 2.3 -1.4
v 2.3 2.3 -1.5
v 2.3 2.3 -2.1
v 2.3 2.3 -2.2
v 2.3 2.4 -1.4
v 2.3 2.4 -1.5
v 2.3 2.4 -2.1
v 2.3 2.4 -2.2
v 2.3 2.5 -1.4
v 2.3 2.5 -1.5
v 2.3 2.5 -2.1
v 2.3 2.5 -2.2
v 2.3 2.6 -1.5
v 2.3 2.6 -2.1
v 2.4 2.2 -1.5
v 2.4 2.2 -2.1
v 2.4 2.3 -1.4
v 2.4 2.3 -1.5
v 2.4 2.3 -2.1
v 2.4 2.3 -2.2
v 2.4 2.4 -1.4
v 2.4 2.4 -1.5
v 2.4 2.4 -2.1
v 2.4 2.4 -2.2
v 2.4 2.5 -1.5
v 2.4 2.5 -2.1
v 1.5 2.2 -1.4
v 1.5 2.3 -1.4
v 1.6 2.2 -1.4
v 1.6 2.3 -1.4
v 1.6 2.4 -1.4
v 1.7 2.4 -1.4
v 1.7 2.5 -1.4
v 1.8 2.2 -1.4
v 1.8 2.3 -1.4
v 1.8 2.4 -1.4
v 1.9 2.4 -1.4
v 1.9 2.5 -1.4
v 2 2.3 -1.4
v 2 2.5 -1.4
v 2.1 2.2 -1.4
v 2.1 2.3 -1.4
v 2.2 2.2 -1.4
v 2.2 2.3 -1.4
v 2.2 2.5 -1.4
v 2.3 2.2 -1.4
v 2.3 2.3 -1.4
v 2.3 2.4 -1.4
v 2.3 2.5 -1.4
v 2.4 2.3 -1.4
v 2.4 2.4 -1.4
v 1.5 2.1 -1.5
v 1.5 2.2 -1.5
v 1.5 2.3 -1.5
v 1.5 2.4 -1.5
v 1.6 2.2 -1.5
v 1.6 2.3 -1.5
v 1.6 2.4 -1.5
v 1.7 2.1 -1.5
v 1.7 2.2 -1.5
v 1.8 2.2 -1.5
v 1.8 2.5 -1.5
v 1.8 2.6 -1.5
v 1.9 2.5 -1.5
v 1.9 2.6 -1.5
v 2 2.5 -1.5
v 2 2.6 -1.5
v 2.1 2.1 -1.5
v 2.1 2.2 -1.5
v 2.1 2.5 -1.5
v 2.1 2.6 -1.5
v 2.2 2.2 -1.5
v 2.2 2.5 -1.5
v 2.2 2.6 -1.5
v 2.3 2.1 -1.5
v 2.3 2.2 -1.5
v 2.3 2.3 -1.5
v 2.3 2.4 -1.5
v 2.3 2.5 -1.5
v 2.3 2.6 -1.5
v 2.4 2.2 -1.5
v 2.4 2.3 -1.5
v 2.4 2.4 -1.5
v 2.4 2.5 -1.5
v 1.3 2.5 -1.6
v 1.3 2.6 -1.6
v 1.4 2.5 -1.6
v 1.4 2.6 -1.6
v 1.7 2 -1.6
v 1.7 2.1 -1.6
v 1.8 2.6 -1.6
v 1.8 2.7 -1.6
v 1.9 2.6 -1.6
v 1.9 2.7 -1.6
v 2 2.6 -1.6
v 2.1 2 -1.6
v 2.1 2.1 -1.6
v 2.1 2.6 -1.6
v 2.1 2.7 -1.6
v 2.2 2.6 -1.6
v 2.2 2.7 -1.6
v 1.5 2.6 -1.7
v 1.5 2.7 -1.7
v 1.6 2.6 -1.7
v 1.6 2.7 -1.7
v 1.7 2.6 -1.7
v 1.7 2.7 -1.7
v 1.8 2.6 -1.7
v 1.8 2.7 -1.7
v 1.9 2.7 -1.7
v 1.9 2.8 -1.7
v 2.1 2.7 -1.7
v 2.1 2.8 -1.7
v 1.4 2.7 -1.8
v 1.4 2.8 -1.8
v 1.5 2.7 -1.8
v 1.5 2.8 -1.8
v 1.3 2.5 -1.7
v 1.3 2.6 -1.7
v 1.4 2.5 -1.7
v 1.4 2.6 -1.7
v 1.5 2.6 -1.8
v 1.5 2.7 -1.8
v 1.6 2.6 -1.8
v 1.6 2.7 -1.8
v 1.4 2.7 -1.9
v 1.4 2.8 -1.9
v 1.5 2.7 -1.9
v 1.5 2.8 -1.9
v 1.7 2.6 -1.9
v 1.7 2.7 -1.9
v 1.8 2.6 -1.9
v 1.8 2.7 -1.9
v 1.9 2.7 -1.9
v 1.9 2.8 -1.9
v 2.1 2.7 -1.9
v 2.1 2.8 -1.9
v 1.7 2 -2
v 1.7 2.1 -2
v 1.8 2.6 -2
v 1.8 2.7 -2
v 1.9 2.6 -2
v 1.9 2.7 -2
v 2 2.6 -2
v 2.1 2 -2
v 2.1 2.1 -2
v 2.1 2.6 -2
v 2.1 2.7 -2
v 2.2 2.6 -2
v 2.2 2.7 -2
v 1.5 2.1 -2.1
v 1.5 2.2 -2.1
v 1.5 2.3 -2.1
v 1.5 2.4 -2.1
v 1.6 2.2 -2.1
v 1.6 2.3 -2.1
v 1.6 2.4 -2.1
v 1.7 2.1 -2.1
v 1.7 2.2 -2.1
v 1.8 2.2 -2.1
v 1.8 2.5 -2.1
v 1.8 2.6 -2.1
v 1.9 2.5 -2.1
v 1.9 2.6 -2.1
v 2 2.5 -2.1
v 2 2.6 -2.1
v 2.1 2.1 -2.1
v 2.1 2.2 -2.1
v 2.1 2.5 -2.1
v 2.1 2.6 -2.1
v 2.2 2.2 -2.1
v 2.2 2.5 -2.1
v 2.2 2.6 -2.1
v 2.3 2.1 -2.1
v 2.3 2.2 -2.1
v 2.3 2.3 -2.1
v 2.3 2.4 -2.1
v 2.3 2.5 -2.1
v 2.3 2.6 -2.1
v 2.4 2.2 -2.1
v 2.4 2.3 -2.1
v 2.4 2.4 -2.1
v 2.4 2.5 -2.1
v 1.5 2.2 -2.2
v 1.5 2.3 -2.2
v 1.6 2.2 -2.2
v 1.6 2.3 -2.2
v 1.6 2.4 -2.2
v 1.7 2.4 -2.2
v 1.7 2.5 -2.2
v 1.8 2.2 -2.2
v 1.8 2.3 -2.2
v 1.8 2.4 -2.2
v 1.9 2.4 -2.2
v 1.9 2.5 -2.2
v 2 2.3 -2.2
v 2 2.5 -2.2
v 2.1 2.2 -2.2
v 2.1 2.3 -2.2
v 2.2 2.2 -2.2
v 2.2 2.3 -2.2
v 2.2 2.5 -2.2
v 2.3 2.2 -2.2
v 2.3 2.3 -2.2
v 2.3 2.4 -2.2
v 2.3 2.5 -2.2
v 2.4 2.3 -2.2
v 2.4 2.4 -2.2
v 1.7 2 -1.6
v 2.1 2 -1.6
v 1.7 2 -2
v 2.1 2 -2
v 1.5 2.1 -1.5
v 1.7 2.1 -1.5
v 2.1 2.1 -1.5
v 2.3 2.1 -1.5
v 1.7 2.1 -1.6
v 2.1 2.1 -1.6
v 1.7 2.1 -2
v 2.1 2.1 -2
v 1.5 2.1 -2.1
v 1.7 2.1 -2.1
v 2.1 2.1 -2.1
v 2.3 2.1 -2.1
v 1.5 2.2 -1.4
v 1.6 2.2 -1.4
v 1.8 2.2 -1.4
v 2.1 2.2 -1.4
v 2.2 2.2 -1.4
v 2.3 2.2 -1.4
v 1.5 2.2 -1.5
v 1.6 2.2 -1.5
v 1.7 2.2 -1.5
v 1.8 2.2 -1.5
v 2.1 2.2 -1.5
v 2.2 2.2 -1.5
v 2.3 2.2 -1.5
v 2.4 2.2 -1.5
v 1.5 2.2 -2.1
v 1.6 2.2 -2.1
v 1.7 2.2 -2.1
v 1.8 2.2 -2.1
v 2.1 2.2 -2.1
v 2.2 2.2 -2.1
v 2.3 2.2 -2.1
v 2.4 2.2 -2.1
v 1.5 2.2 -2.2
v 1.6 2.2 -2.2
v 1.8 2.2 -2.2
v 2.1 2.2 -2.2
v 2.2 2.2 -2.2
v 2.3 2.2 -2.2
v 2.3 2.3 -1.4
v 2.4 2.3 -1.4
v 2.3 2.3 -1.5
v 2.4 2.3 -1.5
v 2.3 2.3 -2.1
v 2.4 2.3 -2.1
v 2.3 2.3 -2.2
v 2.4 2.3 -2.2
v 1.3 2.5 -1.6
v 1.4 2.5 -1.6
v 1.3 2.5 -1.7
v 1.4 2.5 -1.7
v 1.5 2.6 -1.7
v 1.6 2.6 -1.7
v 1.7 2.6 -1.7
v 1.8 2.6 -1.7
v 1.5 2.6 -1.8
v 1.6 2.6 -1.8
v 1.7 2.6 -1.9
v 1.8 2.6 -1.9
v 1.4 2.7 -1.8
v 1.5 2.7 -1.8
v 1.4 2.7 -1.9
v 1.5 2.7 -1.9
v 1.5 2.3 -1.4
v 1.6 2.3 -1.4
v 1.5 2.3 -1.5
v 1.6 2.3 -1.5
v 1.5 2.3 -2.1
v 1.6 2.3 -2.1
v 1.5 2.3 -2.2
v 1.6 2.3 -2.2
v 1.6 2.4 -1.4
v 1.7 2.4 -1.4
v 2.3 2.4 -1.4
v 2.4 2.4 -1.4
v 1.5 2.4 -1.5
v 1.6 2.4 -1.5
v 2.3 2.4 -1.5
v 2.4 2.4 -1.5
v 1.5 2.4 -2.1
v 1.6 2.4 -2.1
v 2.3 2.4 -2.1
v 2.4 2.4 -2.1
v 1.6 2.4 -2.2
v 1.7 2.4 -2.2
v 2.3 2.4 -2.2
v 2.4 2.4 -2.2
v 1.7 2.5 -1.4
v 1.9 2.5 -1.4
v 2 2.5 -1.4
v 2.2 2.5 -1.4
v 2.3 2.5 -1.4
v 1.8 2.5 -1.5
v 1.9 2.5 -1.5
v 2 2.5 -1.5
v 2.1 2.5 -1.5
v 2.2 2.5 -1.5
v 2.3 2.5 -1.5
v 2.4 2.5 -1.5
v 1.8 2.5 -2.1
v 1.9 2.5 -2.1
v 2 2.5 -2.1
v 2.1 2.5 -2.1
v 2.2 2.5 -2.1
v 2.3 2.5 -2.1
v 2.4 2.5 -2.1
v 1.7 2.5 -2.2
v 1.9 2.5 -2.2
v 2 2.5 -2.2
v 2.2 2.5 -2.2
v 2.3 2.5 -2.2
v 1.8 2.6 -1.5
v 1.9 2.6 -1.5
v 2 2.6 -1.5
v 2.1 2.6 -1.5
v 2.2 2.6 -1.5
v 2.3 2.6 -1.5
v 1.3 2.6 -1.6
v 1.4 2.6 -1.6
v 1.8 2.6 -1.6
v 1.9 2.6 -1.6
v 2 2.6 -1.6
v 2.1 2.6 -1.6
v 2.2 2.6 -1.6
v 1.3 2.6 -1.7
v 1.4 2.6 -1.7
v 1.8 2.6 -2
v 1.9 2.6 -2
v 2 2.6 -2
v 2.1 2.6 -2
v 2.2 2.6 -2
v 1.8 2.6 -2.1
v 1.9 2.6 -2.1
v 2 2.6 -2.1
v 2.1 2.6 -2.1
v 2.2 2.6 -2.1
v 2.3 2.6 -2.1
v 1.8 2.7 -1.6
v 1.9 2.7 -1.6
v 2.1 2.7 -1.6
v 2.2 2.7 -1.6
v 1.5 2.7 -1.7
v 1.6 2.7 -1.7
v 1.7 2.7 -1.7
v 1.8 2.7 -1.7
v 1.9 2.7 -1.7
v 2.1 2.7 -1.7
v 1.5 2.7 -1.8
v 1.6 2.7 -1.8
v 1.7 2.7 -1.9
v 1.8 2.7 -1.9
v 1.9 2.7 -1.9
v 2.1 2.7 -1.9
v 1.8 2.7 -2
v 1.9 2.7 -2
v 2.1 2.7 -2
v 2.2 2.7 -2
v 1.9 2.8 -1.7
v 2.1 2.8 -1.7
v 1.4 2.8 -1.8
v 1.5 2.8 -1.8
v 1.4 2.8 -1.9
v 1.5 2.8 -1.9
v 1.9 2.8 -1.9
v 2.1 2.8 -1.9

# faces
f 3/3/1 2/3/1 1/3/1
f 4/3/1 2/3/1 3/3/1
f 7/3/1 6/3/1 5/3/1
f 8/3/1 6/3/1 7/3/1
f 12/3/1 10/3/1 9/3/1
f 13/3/1 10/3/1 12/3/1
f 15/3/1 12/3/1 11/3/1
f 15/3/1 14/3/1 13/3/1
f 15/3/1 13/3/1 12/3/1
f 16/3/1 14/3/1 15/3/1
f 17/3/1 14/3/1 16/3/1
f 18/3/1 14/3/1 17/3/1
f 19/3/1 17/3/1 16/3/1
f 20/3/1 17/3/1 19/3/1
f 23/3/1 22/3/1 21/3/1
f 24/3/1 22/3/1 23/3/1
f 29/3/1 26/3/1 25/3/1
f 30/3/1 26/3/1 29/3/1
f 31/3/1 28/3/1 27/3/1
f 32/3/1 28/3/1 31/3/1
f 35/3/1 34/3/1 33/3/1
f 36/3/1 34/3/1 35/3/1
f 39/3/1 38/3/1 37/3/1
f 40/3/1 38/3/1 39/3/1
f 43/3/1 42/3/1 41/3/1
f 44/3/1 42/3/1 43/3/1
f 47/3/1 46/3/1 45/3/1
f 48/3/1 46/3/1 47/3/1
f 49/3/1 46/3/1 48/3/1
f 50/3/1 46/3/1 49/3/1
f 51/3/1 46/3/1 50/3/1
f 52/3/1 46/3/1 51/3/1
f 53/3/1 49/3/1 48/3/1
f 54/3/1 49/3/1 53/3/1
f 55/3/1 51/3/1 50/3/1
f 56/3/1 51/3/1 55/3/1
f 59/3/1 58/3/1 57/3/1
f 60/3/1 58/3/1 59/3/1
f 61/3/2 62/3/2 63/3/2
f 63/3/2 62/3/2 64/3/2
f 65/3/2 66/3/2 67/3/2
f 67/3/2 66/3/2 68/3/2
f 69/3/2 70/3/2 71/3/2
f 71/3/2 70/3/2 72/3/2
f 73/3/2 74/3/2 75/3/2
f 75/3/2 74/3/2 76/3/2
f 77/3/2 78/3/2 79/3/2
f 79/3/2 78/3/2 80/3/2
f 81/3/2 82/3/2 83/3/2
f 83/3/2 82/3/2 84/3/2
f 85/3/2 86/3/2 88/3/2
f 88/3/2 86/3/2 89/3/2
f 87/3/2 88/3/2 91/3/2
f 91/3/2 88/3/2 92/3/2
f 89/3/2 90/3/2 93/3/2
f 93/3/2 90/3/2 94/3/2
f 95/1/2 96/1/2 99/1/2
f 99/1/2 96/1/2 100/1/2
f 97/1/2 98/1/2 101/1/2
f 101/1/2 98/1/2 102/1/2
f 100/3/2 101/3/2 103/3/2
f 103/3/2 101/3/2 104/3/2
f 105/3/2 106/3/2 108/3/2
f 108/3/2 106/3/2 109/3/2
f 107/3/2 108/3/2 111/3/2
f 109/3/2 110/3/2 111/3/2
f 108/3/2 109/3/2 111/3/2
f 111/3/2 110/3/2 112/3/2
f 112/3/2 110/3/2 113/3/2
f 113/3/2 110/3/2 114/3/2
f 112/3/2 113/3/2 115/3/2
f 115/3/2 113/3/2 116/3/2
f 119/3/3 118/3/3 117/3/3
f 120/3/3 118/3/3 119/3/3
f 122/3/3 121/3/3 120/3/3
f 124/1/3 120/1/3 119/1/3
f 125/3/3 123/3/3 122/3/3
f 125/1/3 120/1/3 124/1/3
f 125/3/3 122/3/3 120/3/3
f 126/3/3 123/3/3 125/3/3
f 127/1/3 126/1/3 125/1/3
f 127/3/3 123/3/3 126/3/3
f 128/3/3 123/3/3 127/3/3
f 129/2/3 125/2/3 124/2/3
f 129/1/3 127/1/3 125/1/3
f 129/1/3 128/1/3 127/1/3
f 130/1/3 128/1/3 129/1/3
f 131/2/3 129/2/3 124/2/3
f 131/2/3 130/2/3 129/2/3
f 132/2/3 130/2/3 131/2/3
f 133/1/3 132/1/3 131/1/3
f 134/2/3 130/2/3 132/2/3
f 134/1/3 132/1/3 133/1/3
f 135/2/3 130/2/3 134/2/3
f 136/3/3 134/3/3 133/3/3
f 137/1/3 135/1/3 134/1/3
f 137/3/3 134/3/3 136/3/3
f 138/1/3 135/1/3 137/1/3
f 139/1/3 135/1/3 138/1/3
f 140/3/3 138/3/3 137/3/3
f 141/3/3 138/3/3 140/3/3
f 146/3/3 143/3/3 142/3/3
f 147/3/3 145/3/3 144/3/3
f 148/3/3 145/3/3 147/3/3
f 149/3/3 146/3/3 142/3/3
f 150/3/3 146/3/3 149/3/3
f 151/1/3 150/1/3 149/1/3
f 154/3/3 153/3/3 152/3/3
f 155/3/3 153/3/3 154/3/3
f 156/1/3 155/1/3 154/1/3
f 157/1/3 155/1/3 156/1/3
f 158/1/3 151/1/3 149/1/3
f 159/1/3 151/1/3 158/1/3
f 160/2/3 157/2/3 156/2/3
f 161/2/3 157/2/3 160/2/3
f 162/3/3 159/3/3 158/3/3
f 163/1/3 161/1/3 160/1/3
f 164/1/3 161/1/3 163/1/3
f 165/3/3 162/3/3 158/3/3
f 166/3/3 162/3/3 165/3/3
f 169/3/3 164/3/3 163/3/3
f 170/3/3 164/3/3 169/3/3
f 171/3/3 167/3/3 166/3/3
f 172/3/3 167/3/3 171/3/3
f 173/3/3 169/3/3 168/3/3
f 174/3/3 169/3/3 173/3/3
f 177/3/3 176/3/3 175/3/3
f 178/3/3 176/3/3 177/3/3
f 183/3/3 182/3/3 181/3/3
f 184/3/3 182/3/3 183/3/3
f 185/1/3 184/1/3 183/1/3
f 186/3/3 180/3/3 179/3/3
f 187/3/3 180/3/3 186/3/3
f 188/1/3 184/1/3 185/1/3
f 189/1/3 184/1/3 188/1/3
f 190/3/3 189/3/3 188/3/3
f 191/3/3 189/3/3 190/3/3
f 194/3/3 193/3/3 192/3/3
f 195/3/3 193/3/3 194/3/3
f 198/3/3 197/3/3 196/3/3
f 199/3/3 197/3/3 198/3/3
f 202/3/3 201/3/3 200/3/3
f 203/3/3 201/3/3 202/3/3
f 206/3/3 205/3/3 204/3/3
f 207/3/3 205/3/3 206/3/3
f 208/3/4 209/3/4 210/3/4
f 210/3/4 209/3/4 211/3/4
f 212/3/4 213/3/4 214/3/4
f 214/3/4 213/3/4 215/3/4
f 216/3/4 217/3/4 218/3/4
f 218/3/4 217/3/4 219/3/4
f 220/3/4 221/3/4 222/3/4
f 222/3/4 221/3/4 223/3/4
f 224/3/4 225/3/4 226/3/4
f 226/3/4 225/3/4 227/3/4
f 230/3/4 231/3/4 232/3/4
f 232/3/4 231/3/4 233/3/4
f 232/1/4 233/1/4 234/1/4
f 228/3/4 229/3/4 235/3/4
f 235/3/4 229/3/4 236/3/4
f 234/1/4 233/1/4 237/1/4
f 237/1/4 233/1/4 238/1/4
f 237/3/4 238/3/4 239/3/4
f 239/3/4 238/3/4 240/3/4
f 241/3/4 242/3/4 245/3/4
f 243/3/4 244/3/4 246/3/4
f 246/3/4 244/3/4 247/3/4
f 241/3/4 245/3/4 248/3/4
f 248/3/4 245/3/4 249/3/4
f 248/1/4 249/1/4 250/1/4
f 251/3/4 252/3/4 253/3/4
f 253/3/4 252/3/4 254/3/4
f 253/1/4 254/1/4 255/1/4
f 255/1/4 254/1/4 256/1/4
f 248/1/4 250/1/4 257/1/4
f 257/1/4 250/1/4 258/1/4
f 255/2/4 256/2/4 259/2/4
f 259/2/4 256/2/4 260/2/4
f 257/3/4 258/3/4 261/3/4
f 259/1/4 260/1/4 262/1/4
f 262/1/4 260/1/4 263/1/4
f 257/3/4 261/3/4 264/3/4
f 264/3/4 261/3/4 265/3/4
f 262/3/4 263/3/4 268/3/4
f 268/3/4 263/3/4 269/3/4
f 265/3/4 266/3/4 270/3/4
f 270/3/4 266/3/4 271/3/4
f 267/3/4 268/3/4 272/3/4
f 272/3/4 268/3/4 273/3/4
f 274/3/4 275/3/4 276/3/4
f 276/3/4 275/3/4 277/3/4
f 277/3/4 278/3/4 279/3/4
f 276/1/4 277/1/4 281/1/4
f 279/3/4 280/3/4 282/3/4
f 281/1/4 277/1/4 282/1/4
f 277/3/4 279/3/4 282/3/4
f 282/3/4 280/3/4 283/3/4
f 282/1/4 283/1/4 284/1/4
f 283/3/4 280/3/4 284/3/4
f 284/3/4 280/3/4 285/3/4
f 281/2/4 282/2/4 286/2/4
f 282/1/4 284/1/4 286/1/4
f 284/1/4 285/1/4 286/1/4
f 286/1/4 285/1/4 287/1/4
f 281/2/4 286/2/4 288/2/4
f 286/2/4 287/2/4 288/2/4
f 288/2/4 287/2/4 289/2/4
f 288/1/4 289/1/4 290/1/4
f 289/2/4 287/2/4 291/2/4
f 290/1/4 289/1/4 291/1/4
f 291/2/4 287/2/4 292/2/4
f 290/3/4 291/3/4 293/3/4
f 291/1/4 292/1/4 294/1/4
f 293/3/4 291/3/4 294/3/4
f 294/1/4 292/1/4 295/1/4
f 295/1/4 292/1/4 296/1/4
f 294/3/4 295/3/4 297/3/4
f 297/3/4 295/3/4 298/3/4
f 301/3/5 300/3/5 299/3/5
f 302/3/5 300/3/5 301/3/5
f 307/3/5 304/3/5 303/3/5
f 307/1/5 305/1/5 304/1/5
f 308/3/5 306/3/5 305/3/5
f 308/1/5 305/1/5 307/1/5
f 309/3/5 307/3/5 303/3/5
f 310/3/5 306/3/5 308/3/5
f 311/3/5 309/3/5 303/3/5
f 312/1/5 310/1/5 309/1/5
f 312/3/5 309/3/5 311/3/5
f 313/3/5 306/3/5 310/3/5
f 313/1/5 310/1/5 312/1/5
f 314/3/5 306/3/5 313/3/5
f 321/3/5 316/3/5 315/3/5
f 322/1/5 317/1/5 316/1/5
f 322/3/5 316/3/5 321/3/5
f 323/1/5 317/1/5 322/1/5
f 324/2/5 318/2/5 317/2/5
f 324/1/5 317/1/5 323/1/5
f 325/1/5 319/1/5 318/1/5
f 325/2/5 318/2/5 324/2/5
f 326/3/5 320/3/5 319/3/5
f 326/1/5 319/1/5 325/1/5
f 327/3/5 320/3/5 326/3/5
f 335/3/5 328/3/5 327/3/5
f 336/3/5 328/3/5 335/3/5
f 337/3/5 330/3/5 329/3/5
f 338/1/5 331/1/5 330/1/5
f 338/3/5 330/3/5 337/3/5
f 338/1/5 332/1/5 331/1/5
f 339/2/5 333/2/5 332/2/5
f 339/1/5 332/1/5 338/1/5
f 340/1/5 334/1/5 333/1/5
f 340/2/5 333/2/5 339/2/5
f 341/3/5 335/3/5 334/3/5
f 341/1/5 334/1/5 340/1/5
f 342/3/5 335/3/5 341/3/5
f 345/3/5 344/3/5 343/3/5
f 346/3/5 344/3/5 345/3/5
f 349/3/5 348/3/5 347/3/5
f 350/3/5 348/3/5 349/3/5
f 353/3/5 352/3/5 351/3/5
f 354/3/5 352/3/5 353/3/5
f 359/3/5 356/3/5 355/3/5
f 360/3/5 356/3/5 359/3/5
f 361/3/5 358/3/5 357/3/5
f 362/3/5 358/3/5 361/3/5
f 365/3/5 364/3/5 363/3/5
f 366/3/5 364/3/5 365/3/5
f 367/3/6 368/3/6 369/3/6
f 369/3/6 368/3/6 370/3/6
f 371/3/6 372/3/6 373/3/6
f 373/3/6 372/3/6 374/3/6
f 375/3/6 376/3/6 380/3/6
f 377/3/6 378/3/6 381/3/6
f 381/3/6 378/3/6 382/3/6
f 379/3/6 380/3/6 383/3/6
f 380/3/6 376/3/6 384/3/6
f 383/3/6 380/3/6 384/3/6
f 384/3/6 376/3/6 387/3/6
f 387/3/6 376/3/6 388/3/6
f 385/3/6 386/3/6 389/3/6
f 389/3/6 386/3/6 390/3/6
f 391/3/6 392/3/6 396/3/6
f 392/1/6 393/1/6 397/1/6
f 396/3/6 392/3/6 397/3/6
f 393/2/6 394/2/6 398/2/6
f 397/1/6 393/1/6 398/1/6
f 398/2/6 394/2/6 399/2/6
f 394/1/6 395/1/6 400/1/6
f 399/2/6 394/2/6 400/2/6
f 400/1/6 395/1/6 401/1/6
f 391/3/6 396/3/6 403/3/6
f 401/3/6 402/3/6 408/3/6
f 408/3/6 402/3/6 409/3/6
f 391/3/6 403/3/6 410/3/6
f 403/3/6 404/3/6 410/3/6
f 404/1/6 405/1/6 411/1/6
f 410/3/6 404/3/6 411/3/6
f 406/2/6 407/2/6 412/2/6
f 411/1/6 405/1/6 412/1/6
f 405/2/6 406/2/6 412/2/6
f 407/1/6 408/1/6 413/1/6
f 412/2/6 407/2/6 413/2/6
f 413/1/6 408/1/6 414/1/6
f 415/3/6 416/3/6 423/3/6
f 416/1/6 417/1/6 424/1/6
f 423/3/6 416/3/6 424/3/6
f 417/2/6 418/2/6 425/2/6
f 424/1/6 417/1/6 425/1/6
f 418/1/6 419/1/6 426/1/6
f 425/2/6 418/2/6 426/2/6
f 419/3/6 420/3/6 427/3/6
f 426/1/6 419/1/6 427/1/6
f 421/3/6 422/3/6 428/3/6
f 428/3/6 422/3/6 429/3/6
f 427/3/6 420/3/6 434/3/6
f 430/3/6 431/3/6 435/3/6
f 431/1/6 432/1/6 436/1/6
f 435/3/6 431/3/6 436/3/6
f 432/2/6 433/2/6 437/2/6
f 436/1/6 432/1/6 437/1/6
f 433/1/6 434/1/6 438/1/6
f 437/2/6 433/2/6 438/2/6
f 434/3/6 420/3/6 439/3/6
f 438/1/6 434/1/6 439/1/6
f 439/3/6 420/3/6 440/3/6
f 441/3/6 442/3/6 448/3/6
f 442/1/6 443/1/6 449/1/6
f 448/3/6 442/3/6 449/3/6
f 443/3/6 444/3/6 450/3/6
f 449/1/6 443/1/6 450/1/6
f 445/3/6 446/3/6 451/3/6
f 451/3/6 446/3/6 452/3/6
f 447/3/6 448/3/6 453/3/6
f 448/3/6 449/3/6 453/3/6
f 453/3/6 449/3/6 454/3/6
f 454/3/6 449/3/6 455/3/6
f 450/3/6 444/3/6 456/3/6
f 454/3/6 455/3/6 457/3/6
f 455/1/6 456/1/6 458/1/6
f 457/3/6 455/3/6 458/3/6
f 456/3/6 444/3/6 459/3/6
f 458/1/6 456/1/6 459/1/6
f 459/3/6 444/3/6 460/3/6
f 463/3/6 464/3/6 465/3/6
f 465/3/6 464/3/6 466/3/6
f 461/3/6 462/3/6 467/3/6
f 467/3/6 462/3/6 468/3/6
