# MagicaVoxel @ Ephtracy

# group
o 

# material
mtllib Castle flag.mtl
usemtl palette

# normals
vn -1 0 0
vn 1 0 0
vn 0 0 1
vn 0 0 -1
vn 0 -1 0
vn 0 1 0

# texcoords
vt 0.162109 0.5
vt 0.841797 0.5
vt 0.958984 0.5

# verts
v 0.4 5.3 -1.8
v 0.4 5.3 -1.9
v 0.4 5.4 -1.8
v 0.4 5.4 -1.9
v 0.5 2 -1.8
v 0.5 2 -1.9
v 0.5 5.2 -1.8
v 0.5 5.2 -1.9
v 0.5 5.3 -1.8
v 0.5 5.3 -1.9
v 0.5 5.4 -1.8
v 0.5 5.4 -1.9
v 0.5 5.5 -1.8
v 0.5 5.5 -1.9
v 0.7 2 -1.8
v 0.7 2 -1.9
v 0.7 3.4 -1.8
v 0.7 3.4 -1.9
v 0.7 5.2 -1.8
v 0.7 5.2 -1.9
v 0.7 5.3 -1.8
v 0.7 5.3 -1.9
v 0.7 5.4 -1.8
v 0.7 5.4 -1.9
v 0.7 5.5 -1.8
v 0.7 5.5 -1.9
v 0.8 5.3 -1.8
v 0.8 5.3 -1.9
v 0.8 5.4 -1.8
v 0.8 5.4 -1.9
v 3.4 3.4 -1.8
v 3.4 3.4 -1.9
v 3.4 5.2 -1.8
v 3.4 5.2 -1.9
v 0.4 5.3 -1.8
v 0.4 5.4 -1.8
v 0.5 2 -1.8
v 0.5 5.2 -1.8
v 0.5 5.3 -1.8
v 0.5 5.4 -1.8
v 0.5 5.5 -1.8
v 0.7 2 -1.8
v 0.7 3.4 -1.8
v 0.7 5.2 -1.8
v 0.7 5.3 -1.8
v 0.7 5.4 -1.8
v 0.7 5.5 -1.8
v 0.8 5.3 -1.8
v 0.8 5.4 -1.8
v 1.4 4.5 -1.8
v 1.4 4.6 -1.8
v 1.5 3.7 -1.8
v 1.5 3.9 -1.8
v 1.5 4.4 -1.8
v 1.5 4.5 -1.8
v 1.6 3.9 -1.8
v 1.6 4.2 -1.8
v 1.6 4.3 -1.8
v 1.6 4.4 -1.8
v 1.7 3.7 -1.8
v 1.7 3.8 -1.8
v 1.7 4.2 -1.8
v 1.7 4.3 -1.8
v 1.8 3.8 -1.8
v 1.8 3.9 -1.8
v 1.8 4.6 -1.8
v 1.8 4.7 -1.8
v 1.9 3.9 -1.8
v 1.9 4 -1.8
v 1.9 4.7 -1.8
v 1.9 4.9 -1.8
v 2 4 -1.8
v 2 4.1 -1.8
v 2 4.9 -1.8
v 2 5 -1.8
v 2.1 4 -1.8
v 2.1 4.1 -1.8
v 2.1 4.9 -1.8
v 2.1 5 -1.8
v 2.2 3.9 -1.8
v 2.2 4 -1.8
v 2.2 4.7 -1.8
v 2.2 4.9 -1.8
v 2.3 3.8 -1.8
v 2.3 3.9 -1.8
v 2.3 4.6 -1.8
v 2.3 4.7 -1.8
v 2.4 3.7 -1.8
v 2.4 3.8 -1.8
v 2.4 4.2 -1.8
v 2.4 4.3 -1.8
v 2.5 3.9 -1.8
v 2.5 4.2 -1.8
v 2.5 4.3 -1.8
v 2.5 4.4 -1.8
v 2.6 3.7 -1.8
v 2.6 3.9 -1.8
v 2.6 4.4 -1.8
v 2.6 4.5 -1.8
v 2.7 4.5 -1.8
v 2.7 4.6 -1.8
v 3.4 3.4 -1.8
v 3.4 5.2 -1.8
v 0.4 5.3 -1.9
v 0.4 5.4 -1.9
v 0.5 2 -1.9
v 0.5 5.2 -1.9
v 0.5 5.3 -1.9
v 0.5 5.4 -1.9
v 0.5 5.5 -1.9
v 0.7 2 -1.9
v 0.7 3.4 -1.9
v 0.7 5.2 -1.9
v 0.7 5.3 -1.9
v 0.7 5.4 -1.9
v 0.7 5.5 -1.9
v 0.8 5.3 -1.9
v 0.8 5.4 -1.9
v 1.4 4.5 -1.9
v 1.4 4.6 -1.9
v 1.5 3.7 -1.9
v 1.5 3.9 -1.9
v 1.5 4.4 -1.9
v 1.5 4.5 -1.9
v 1.6 3.9 -1.9
v 1.6 4.2 -1.9
v 1.6 4.3 -1.9
v 1.6 4.4 -1.9
v 1.7 3.7 -1.9
v 1.7 3.8 -1.9
v 1.7 4.2 -1.9
v 1.7 4.3 -1.9
v 1.8 3.8 -1.9
v 1.8 3.9 -1.9
v 1.8 4.6 -1.9
v 1.8 4.7 -1.9
v 1.9 3.9 -1.9
v 1.9 4 -1.9
v 1.9 4.7 -1.9
v 1.9 4.9 -1.9
v 2 4 -1.9
v 2 4.1 -1.9
v 2 4.9 -1.9
v 2 5 -1.9
v 2.1 4 -1.9
v 2.1 4.1 -1.9
v 2.1 4.9 -1.9
v 2.1 5 -1.9
v 2.2 3.9 -1.9
v 2.2 4 -1.9
v 2.2 4.7 -1.9
v 2.2 4.9 -1.9
v 2.3 3.8 -1.9
v 2.3 3.9 -1.9
v 2.3 4.6 -1.9
v 2.3 4.7 -1.9
v 2.4 3.7 -1.9
v 2.4 3.8 -1.9
v 2.4 4.2 -1.9
v 2.4 4.3 -1.9
v 2.5 3.9 -1.9
v 2.5 4.2 -1.9
v 2.5 4.3 -1.9
v 2.5 4.4 -1.9
v 2.6 3.7 -1.9
v 2.6 3.9 -1.9
v 2.6 4.4 -1.9
v 2.6 4.5 -1.9
v 2.7 4.5 -1.9
v 2.7 4.6 -1.9
v 3.4 3.4 -1.9
v 3.4 5.2 -1.9
v 0.5 2 -1.8
v 0.7 2 -1.8
v 0.5 2 -1.9
v 0.7 2 -1.9
v 0.7 3.4 -1.8
v 3.4 3.4 -1.8
v 0.7 3.4 -1.9
v 3.4 3.4 -1.9
v 0.4 5.3 -1.8
v 0.5 5.3 -1.8
v 0.7 5.3 -1.8
v 0.8 5.3 -1.8
v 0.4 5.3 -1.9
v 0.5 5.3 -1.9
v 0.7 5.3 -1.9
v 0.8 5.3 -1.9
v 0.7 5.2 -1.8
v 3.4 5.2 -1.8
v 0.7 5.2 -1.9
v 3.4 5.2 -1.9
v 0.4 5.4 -1.8
v 0.5 5.4 -1.8
v 0.7 5.4 -1.8
v 0.8 5.4 -1.8
v 0.4 5.4 -1.9
v 0.5 5.4 -1.9
v 0.7 5.4 -1.9
v 0.8 5.4 -1.9
v 0.5 5.5 -1.8
v 0.7 5.5 -1.8
v 0.5 5.5 -1.9
v 0.7 5.5 -1.9

# faces
f 3/1/1 2/1/1 1/1/1
f 4/1/1 2/1/1 3/1/1
f 7/2/1 6/2/1 5/2/1
f 8/2/1 6/2/1 7/2/1
f 9/1/1 8/1/1 7/1/1
f 10/1/1 8/1/1 9/1/1
f 13/1/1 12/1/1 11/1/1
f 14/1/1 12/1/1 13/1/1
f 15/2/2 16/2/2 17/2/2
f 17/2/2 16/2/2 18/2/2
f 19/1/2 20/1/2 21/1/2
f 21/1/2 20/1/2 22/1/2
f 23/1/2 24/1/2 25/1/2
f 25/1/2 24/1/2 26/1/2
f 27/1/2 28/1/2 29/1/2
f 29/1/2 28/1/2 30/1/2
f 31/3/2 32/3/2 33/3/2
f 33/3/2 32/3/2 34/3/2
f 39/1/3 36/1/3 35/1/3
f 40/1/3 36/1/3 39/1/3
f 42/2/3 38/2/3 37/2/3
f 43/2/3 38/2/3 42/2/3
f 44/1/3 41/1/3 40/1/3
f 44/2/3 38/2/3 43/2/3
f 44/1/3 39/1/3 38/1/3
f 44/1/3 40/1/3 39/1/3
f 45/1/3 41/1/3 44/1/3
f 46/1/3 41/1/3 45/1/3
f 47/1/3 41/1/3 46/1/3
f 48/1/3 46/1/3 45/1/3
f 49/1/3 46/1/3 48/1/3
f 50/3/3 44/3/3 43/3/3
f 51/3/3 44/3/3 50/3/3
f 52/3/3 50/3/3 43/3/3
f 53/3/3 50/3/3 52/3/3
f 54/3/3 50/3/3 53/3/3
f 55/2/3 51/2/3 50/2/3
f 55/3/3 50/3/3 54/3/3
f 56/3/3 54/3/3 53/3/3
f 56/2/3 53/2/3 52/2/3
f 57/3/3 54/3/3 56/3/3
f 58/3/3 54/3/3 57/3/3
f 59/2/3 55/2/3 54/2/3
f 59/3/3 54/3/3 58/3/3
f 60/3/3 52/3/3 43/3/3
f 60/2/3 56/2/3 52/2/3
f 60/2/3 57/2/3 56/2/3
f 61/2/3 57/2/3 60/2/3
f 62/3/3 58/3/3 57/3/3
f 62/2/3 57/2/3 61/2/3
f 63/2/3 59/2/3 58/2/3
f 63/3/3 58/3/3 62/3/3
f 64/3/3 61/3/3 60/3/3
f 64/2/3 62/2/3 61/2/3
f 64/2/3 63/2/3 62/2/3
f 65/2/3 63/2/3 64/2/3
f 66/3/3 44/3/3 51/3/3
f 66/2/3 63/2/3 65/2/3
f 66/2/3 51/2/3 55/2/3
f 66/2/3 55/2/3 59/2/3
f 66/2/3 59/2/3 63/2/3
f 67/3/3 44/3/3 66/3/3
f 68/3/3 65/3/3 64/3/3
f 68/2/3 66/2/3 65/2/3
f 68/2/3 67/2/3 66/2/3
f 69/2/3 67/2/3 68/2/3
f 70/3/3 44/3/3 67/3/3
f 70/2/3 67/2/3 69/2/3
f 71/3/3 44/3/3 70/3/3
f 72/3/3 69/3/3 68/3/3
f 72/2/3 70/2/3 69/2/3
f 72/2/3 71/2/3 70/2/3
f 73/2/3 71/2/3 72/2/3
f 74/3/3 44/3/3 71/3/3
f 74/2/3 71/2/3 73/2/3
f 75/3/3 44/3/3 74/3/3
f 76/3/3 73/3/3 72/3/3
f 76/3/3 72/3/3 68/3/3
f 77/2/3 75/2/3 74/2/3
f 77/3/3 73/3/3 76/3/3
f 77/2/3 74/2/3 73/2/3
f 78/2/3 75/2/3 77/2/3
f 79/3/3 44/3/3 75/3/3
f 79/2/3 75/2/3 78/2/3
f 80/3/3 68/3/3 64/3/3
f 80/3/3 76/3/3 68/3/3
f 81/2/3 78/2/3 77/2/3
f 81/3/3 76/3/3 80/3/3
f 81/2/3 77/2/3 76/2/3
f 82/2/3 78/2/3 81/2/3
f 83/3/3 79/3/3 78/3/3
f 83/2/3 78/2/3 82/2/3
f 84/3/3 80/3/3 64/3/3
f 84/3/3 64/3/3 60/3/3
f 85/2/3 82/2/3 81/2/3
f 85/3/3 80/3/3 84/3/3
f 85/2/3 81/2/3 80/2/3
f 86/2/3 82/2/3 85/2/3
f 87/3/3 83/3/3 82/3/3
f 87/2/3 82/2/3 86/2/3
f 88/3/3 60/3/3 43/3/3
f 88/3/3 84/3/3 60/3/3
f 89/2/3 86/2/3 85/2/3
f 89/3/3 84/3/3 88/3/3
f 89/2/3 85/2/3 84/2/3
f 90/2/3 86/2/3 89/2/3
f 91/2/3 86/2/3 90/2/3
f 92/2/3 89/2/3 88/2/3
f 92/2/3 90/2/3 89/2/3
f 93/3/3 91/3/3 90/3/3
f 93/2/3 90/2/3 92/2/3
f 94/2/3 86/2/3 91/2/3
f 94/3/3 91/3/3 93/3/3
f 95/2/3 86/2/3 94/2/3
f 96/3/3 88/3/3 43/3/3
f 96/2/3 92/2/3 88/2/3
f 97/3/3 93/3/3 92/3/3
f 97/2/3 92/2/3 96/2/3
f 97/3/3 95/3/3 94/3/3
f 97/3/3 94/3/3 93/3/3
f 98/2/3 86/2/3 95/2/3
f 98/3/3 95/3/3 97/3/3
f 99/2/3 86/2/3 98/2/3
f 100/3/3 97/3/3 96/3/3
f 100/2/3 86/2/3 99/2/3
f 100/3/3 99/3/3 98/3/3
f 100/3/3 98/3/3 97/3/3
f 101/3/3 87/3/3 86/3/3
f 101/2/3 86/2/3 100/2/3
f 102/3/3 96/3/3 43/3/3
f 102/3/3 100/3/3 96/3/3
f 102/3/3 101/3/3 100/3/3
f 103/3/3 79/3/3 83/3/3
f 103/3/3 101/3/3 102/3/3
f 103/3/3 87/3/3 101/3/3
f 103/3/3 44/3/3 79/3/3
f 103/3/3 83/3/3 87/3/3
f 104/1/4 105/1/4 108/1/4
f 108/1/4 105/1/4 109/1/4
f 106/2/4 107/2/4 111/2/4
f 111/2/4 107/2/4 112/2/4
f 109/1/4 110/1/4 113/1/4
f 112/2/4 107/2/4 113/2/4
f 107/1/4 108/1/4 113/1/4
f 108/1/4 109/1/4 113/1/4
f 113/1/4 110/1/4 114/1/4
f 114/1/4 110/1/4 115/1/4
f 115/1/4 110/1/4 116/1/4
f 114/1/4 115/1/4 117/1/4
f 117/1/4 115/1/4 118/1/4
f 112/3/4 113/3/4 119/3/4
f 119/3/4 113/3/4 120/3/4
f 112/3/4 119/3/4 121/3/4
f 121/3/4 119/3/4 122/3/4
f 122/3/4 119/3/4 123/3/4
f 119/2/4 120/2/4 124/2/4
f 123/3/4 119/3/4 124/3/4
f 122/3/4 123/3/4 125/3/4
f 121/2/4 122/2/4 125/2/4
f 125/3/4 123/3/4 126/3/4
f 126/3/4 123/3/4 127/3/4
f 123/2/4 124/2/4 128/2/4
f 127/3/4 123/3/4 128/3/4
f 112/3/4 121/3/4 129/3/4
f 121/2/4 125/2/4 129/2/4
f 125/2/4 126/2/4 129/2/4
f 129/2/4 126/2/4 130/2/4
f 126/3/4 127/3/4 131/3/4
f 130/2/4 126/2/4 131/2/4
f 127/2/4 128/2/4 132/2/4
f 131/3/4 127/3/4 132/3/4
f 129/3/4 130/3/4 133/3/4
f 130/2/4 131/2/4 133/2/4
f 131/2/4 132/2/4 133/2/4
f 133/2/4 132/2/4 134/2/4
f 120/3/4 113/3/4 135/3/4
f 134/2/4 132/2/4 135/2/4
f 124/2/4 120/2/4 135/2/4
f 128/2/4 124/2/4 135/2/4
f 132/2/4 128/2/4 135/2/4
f 135/3/4 113/3/4 136/3/4
f 133/3/4 134/3/4 137/3/4
f 134/2/4 135/2/4 137/2/4
f 135/2/4 136/2/4 137/2/4
f 137/2/4 136/2/4 138/2/4
f 136/3/4 113/3/4 139/3/4
f 138/2/4 136/2/4 139/2/4
f 139/3/4 113/3/4 140/3/4
f 137/3/4 138/3/4 141/3/4
f 138/2/4 139/2/4 141/2/4
f 139/2/4 140/2/4 141/2/4
f 141/2/4 140/2/4 142/2/4
f 140/3/4 113/3/4 143/3/4
f 142/2/4 140/2/4 143/2/4
f 143/3/4 113/3/4 144/3/4
f 141/3/4 142/3/4 145/3/4
f 137/3/4 141/3/4 145/3/4
f 143/2/4 144/2/4 146/2/4
f 145/3/4 142/3/4 146/3/4
f 142/2/4 143/2/4 146/2/4
f 146/2/4 144/2/4 147/2/4
f 144/3/4 113/3/4 148/3/4
f 147/2/4 144/2/4 148/2/4
f 133/3/4 137/3/4 149/3/4
f 137/3/4 145/3/4 149/3/4
f 146/2/4 147/2/4 150/2/4
f 149/3/4 145/3/4 150/3/4
f 145/2/4 146/2/4 150/2/4
f 150/2/4 147/2/4 151/2/4
f 147/3/4 148/3/4 152/3/4
f 151/2/4 147/2/4 152/2/4
f 133/3/4 149/3/4 153/3/4
f 129/3/4 133/3/4 153/3/4
f 150/2/4 151/2/4 154/2/4
f 153/3/4 149/3/4 154/3/4
f 149/2/4 150/2/4 154/2/4
f 154/2/4 151/2/4 155/2/4
f 151/3/4 152/3/4 156/3/4
f 155/2/4 151/2/4 156/2/4
f 112/3/4 129/3/4 157/3/4
f 129/3/4 153/3/4 157/3/4
f 154/2/4 155/2/4 158/2/4
f 157/3/4 153/3/4 158/3/4
f 153/2/4 154/2/4 158/2/4
f 158/2/4 155/2/4 159/2/4
f 159/2/4 155/2/4 160/2/4
f 157/2/4 158/2/4 161/2/4
f 158/2/4 159/2/4 161/2/4
f 159/3/4 160/3/4 162/3/4
f 161/2/4 159/2/4 162/2/4
f 160/2/4 155/2/4 163/2/4
f 162/3/4 160/3/4 163/3/4
f 163/2/4 155/2/4 164/2/4
f 112/3/4 157/3/4 165/3/4
f 157/2/4 161/2/4 165/2/4
f 161/3/4 162/3/4 166/3/4
f 165/2/4 161/2/4 166/2/4
f 163/3/4 164/3/4 166/3/4
f 162/3/4 163/3/4 166/3/4
f 164/2/4 155/2/4 167/2/4
f 166/3/4 164/3/4 167/3/4
f 167/2/4 155/2/4 168/2/4
f 165/3/4 166/3/4 169/3/4
f 168/2/4 155/2/4 169/2/4
f 167/3/4 168/3/4 169/3/4
f 166/3/4 167/3/4 169/3/4
f 155/3/4 156/3/4 170/3/4
f 169/2/4 155/2/4 170/2/4
f 112/3/4 165/3/4 171/3/4
f 165/3/4 169/3/4 171/3/4
f 169/3/4 170/3/4 171/3/4
f 152/3/4 148/3/4 172/3/4
f 171/3/4 170/3/4 172/3/4
f 170/3/4 156/3/4 172/3/4
f 148/3/4 113/3/4 172/3/4
f 156/3/4 152/3/4 172/3/4
f 175/2/5 174/2/5 173/2/5
f 176/2/5 174/2/5 175/2/5
f 179/3/5 178/3/5 177/3/5
f 180/3/5 178/3/5 179/3/5
f 185/1/5 182/1/5 181/1/5
f 186/1/5 182/1/5 185/1/5
f 187/1/5 184/1/5 183/1/5
f 188/1/5 184/1/5 187/1/5
f 189/3/6 190/3/6 191/3/6
f 191/3/6 190/3/6 192/3/6
f 193/1/6 194/1/6 197/1/6
f 197/1/6 194/1/6 198/1/6
f 195/1/6 196/1/6 199/1/6
f 199/1/6 196/1/6 200/1/6
f 201/1/6 202/1/6 203/1/6
f 203/1/6 202/1/6 204/1/6
