# MagicaVoxel @ Ephtracy

# group
o 

# material
mtllib ShortPlatformWhite.mtl
usemtl palette

# normals
vn -1 0 0
vn 1 0 0
vn 0 0 1
vn 0 0 -1
vn 0 -1 0
vn 0 1 0

# texcoords
vt 0.0605469 0.5
vt 0.0917969 0.5
vt 0.279297 0.5
vt 0.958984 0.5

# verts
v 0.6 3.3 -1.6
v 0.6 3.3 -1.9
v 0.6 3.4 -1.6
v 0.6 3.4 -1.9
v 0.6 3.7 -1.6
v 0.6 3.7 -1.9
v 0.6 3.8 -1.6
v 0.6 3.8 -1.9
v 0.6 3.9 -1.6
v 0.6 3.9 -1.9
v 1.1 3.5 -1.6
v 1.1 3.5 -1.9
v 1.1 3.6 -1.6
v 1.1 3.6 -1.9
v 1.7 3.5 -1.6
v 1.7 3.5 -1.9
v 1.7 3.6 -1.6
v 1.7 3.6 -1.9
v 2.3 3.5 -1.6
v 2.3 3.5 -1.9
v 2.3 3.6 -1.6
v 2.3 3.6 -1.9
v 2.9 3.5 -1.6
v 2.9 3.5 -1.9
v 2.9 3.6 -1.6
v 2.9 3.6 -1.9
v 0.7 3.5 -1.6
v 0.7 3.5 -1.9
v 0.7 3.6 -1.6
v 0.7 3.6 -1.9
v 1.3 3.5 -1.6
v 1.3 3.5 -1.9
v 1.3 3.6 -1.6
v 1.3 3.6 -1.9
v 1.9 3.5 -1.6
v 1.9 3.5 -1.9
v 1.9 3.6 -1.6
v 1.9 3.6 -1.9
v 2.5 3.5 -1.6
v 2.5 3.5 -1.9
v 2.5 3.6 -1.6
v 2.5 3.6 -1.9
v 3 3.3 -1.6
v 3 3.3 -1.9
v 3 3.4 -1.6
v 3 3.4 -1.9
v 3 3.7 -1.6
v 3 3.7 -1.9
v 3 3.8 -1.6
v 3 3.8 -1.9
v 3 3.9 -1.6
v 3 3.9 -1.9
v 0.6 3.3 -1.6
v 0.6 3.4 -1.6
v 0.6 3.7 -1.6
v 0.6 3.8 -1.6
v 0.6 3.9 -1.6
v 0.7 3.5 -1.6
v 0.7 3.6 -1.6
v 1.1 3.5 -1.6
v 1.1 3.6 -1.6
v 1.3 3.5 -1.6
v 1.3 3.6 -1.6
v 1.7 3.5 -1.6
v 1.7 3.6 -1.6
v 1.9 3.5 -1.6
v 1.9 3.6 -1.6
v 2.3 3.5 -1.6
v 2.3 3.6 -1.6
v 2.5 3.5 -1.6
v 2.5 3.6 -1.6
v 2.9 3.5 -1.6
v 2.9 3.6 -1.6
v 3 3.3 -1.6
v 3 3.4 -1.6
v 3 3.7 -1.6
v 3 3.8 -1.6
v 3 3.9 -1.6
v 0.6 3.3 -1.9
v 0.6 3.4 -1.9
v 0.6 3.7 -1.9
v 0.6 3.8 -1.9
v 0.6 3.9 -1.9
v 0.7 3.5 -1.9
v 0.7 3.6 -1.9
v 1.1 3.5 -1.9
v 1.1 3.6 -1.9
v 1.3 3.5 -1.9
v 1.3 3.6 -1.9
v 1.7 3.5 -1.9
v 1.7 3.6 -1.9
v 1.9 3.5 -1.9
v 1.9 3.6 -1.9
v 2.3 3.5 -1.9
v 2.3 3.6 -1.9
v 2.5 3.5 -1.9
v 2.5 3.6 -1.9
v 2.9 3.5 -1.9
v 2.9 3.6 -1.9
v 3 3.3 -1.9
v 3 3.4 -1.9
v 3 3.7 -1.9
v 3 3.8 -1.9
v 3 3.9 -1.9
v 0.6 3.3 -1.6
v 3 3.3 -1.6
v 0.6 3.3 -1.9
v 3 3.3 -1.9
v 0.7 3.6 -1.6
v 1.1 3.6 -1.6
v 1.3 3.6 -1.6
v 1.7 3.6 -1.6
v 1.9 3.6 -1.6
v 2.3 3.6 -1.6
v 2.5 3.6 -1.6
v 2.9 3.6 -1.6
v 0.7 3.6 -1.9
v 1.1 3.6 -1.9
v 1.3 3.6 -1.9
v 1.7 3.6 -1.9
v 1.9 3.6 -1.9
v 2.3 3.6 -1.9
v 2.5 3.6 -1.9
v 2.9 3.6 -1.9
v 0.7 3.5 -1.6
v 1.1 3.5 -1.6
v 1.3 3.5 -1.6
v 1.7 3.5 -1.6
v 1.9 3.5 -1.6
v 2.3 3.5 -1.6
v 2.5 3.5 -1.6
v 2.9 3.5 -1.6
v 0.7 3.5 -1.9
v 1.1 3.5 -1.9
v 1.3 3.5 -1.9
v 1.7 3.5 -1.9
v 1.9 3.5 -1.9
v 2.3 3.5 -1.9
v 2.5 3.5 -1.9
v 2.9 3.5 -1.9
v 0.6 3.9 -1.6
v 3 3.9 -1.6
v 0.6 3.9 -1.9
v 3 3.9 -1.9

# faces
f 3/3/1 2/3/1 1/3/1
f 4/3/1 2/3/1 3/3/1
f 5/1/1 4/1/1 3/1/1
f 6/1/1 4/1/1 5/1/1
f 7/3/1 6/3/1 5/3/1
f 8/3/1 6/3/1 7/3/1
f 9/4/1 8/4/1 7/4/1
f 10/4/1 8/4/1 9/4/1
f 13/1/1 12/1/1 11/1/1
f 14/1/1 12/1/1 13/1/1
f 17/1/1 16/1/1 15/1/1
f 18/1/1 16/1/1 17/1/1
f 21/1/1 20/1/1 19/1/1
f 22/1/1 20/1/1 21/1/1
f 25/1/1 24/1/1 23/1/1
f 26/1/1 24/1/1 25/1/1
f 27/1/2 28/1/2 29/1/2
f 29/1/2 28/1/2 30/1/2
f 31/1/2 32/1/2 33/1/2
f 33/1/2 32/1/2 34/1/2
f 35/1/2 36/1/2 37/1/2
f 37/1/2 36/1/2 38/1/2
f 39/1/2 40/1/2 41/1/2
f 41/1/2 40/1/2 42/1/2
f 43/3/2 44/3/2 45/3/2
f 45/3/2 44/3/2 46/3/2
f 45/1/2 46/1/2 47/1/2
f 47/1/2 46/1/2 48/1/2
f 47/3/2 48/3/2 49/3/2
f 49/3/2 48/3/2 50/3/2
f 49/4/2 50/4/2 51/4/2
f 51/4/2 50/4/2 52/4/2
f 58/1/3 55/1/3 54/1/3
f 59/1/3 55/1/3 58/1/3
f 60/1/3 58/1/3 54/1/3
f 61/1/3 55/1/3 59/1/3
f 62/1/3 60/1/3 54/1/3
f 62/1/3 61/1/3 60/1/3
f 63/1/3 55/1/3 61/1/3
f 63/1/3 61/1/3 62/1/3
f 64/1/3 62/1/3 54/1/3
f 65/1/3 55/1/3 63/1/3
f 66/1/3 64/1/3 54/1/3
f 66/1/3 65/1/3 64/1/3
f 67/1/3 55/1/3 65/1/3
f 67/1/3 65/1/3 66/1/3
f 68/1/3 66/1/3 54/1/3
f 69/1/3 55/1/3 67/1/3
f 70/1/3 68/1/3 54/1/3
f 70/1/3 69/1/3 68/1/3
f 71/1/3 55/1/3 69/1/3
f 71/1/3 69/1/3 70/1/3
f 72/1/3 70/1/3 54/1/3
f 73/1/3 55/1/3 71/1/3
f 74/3/3 54/3/3 53/3/3
f 75/1/3 73/1/3 72/1/3
f 75/3/3 54/3/3 74/3/3
f 75/1/3 72/1/3 54/1/3
f 76/3/3 56/3/3 55/3/3
f 76/1/3 73/1/3 75/1/3
f 76/1/3 55/1/3 73/1/3
f 77/4/3 57/4/3 56/4/3
f 77/3/3 56/3/3 76/3/3
f 78/4/3 57/4/3 77/4/3
f 80/1/4 81/1/4 84/1/4
f 84/1/4 81/1/4 85/1/4
f 80/1/4 84/1/4 86/1/4
f 85/1/4 81/1/4 87/1/4
f 80/1/4 86/1/4 88/1/4
f 86/1/4 87/1/4 88/1/4
f 87/1/4 81/1/4 89/1/4
f 88/1/4 87/1/4 89/1/4
f 80/1/4 88/1/4 90/1/4
f 89/1/4 81/1/4 91/1/4
f 80/1/4 90/1/4 92/1/4
f 90/1/4 91/1/4 92/1/4
f 91/1/4 81/1/4 93/1/4
f 92/1/4 91/1/4 93/1/4
f 80/1/4 92/1/4 94/1/4
f 93/1/4 81/1/4 95/1/4
f 80/1/4 94/1/4 96/1/4
f 94/1/4 95/1/4 96/1/4
f 95/1/4 81/1/4 97/1/4
f 96/1/4 95/1/4 97/1/4
f 80/1/4 96/1/4 98/1/4
f 97/1/4 81/1/4 99/1/4
f 79/3/4 80/3/4 100/3/4
f 98/1/4 99/1/4 101/1/4
f 100/3/4 80/3/4 101/3/4
f 80/1/4 98/1/4 101/1/4
f 81/3/4 82/3/4 102/3/4
f 101/1/4 99/1/4 102/1/4
f 99/1/4 81/1/4 102/1/4
f 82/4/4 83/4/4 103/4/4
f 102/3/4 82/3/4 103/3/4
f 103/4/4 83/4/4 104/4/4
f 107/3/5 106/3/5 105/3/5
f 108/3/5 106/3/5 107/3/5
f 117/1/5 110/1/5 109/1/5
f 118/1/5 110/1/5 117/1/5
f 119/1/5 112/1/5 111/1/5
f 120/1/5 112/1/5 119/1/5
f 121/1/5 114/1/5 113/1/5
f 122/1/5 114/1/5 121/1/5
f 123/1/5 116/1/5 115/1/5
f 124/1/5 116/1/5 123/1/5
f 125/1/6 126/1/6 133/1/6
f 133/1/6 126/1/6 134/1/6
f 127/1/6 128/1/6 135/1/6
f 135/1/6 128/1/6 136/1/6
f 129/1/6 130/1/6 137/1/6
f 137/1/6 130/1/6 138/1/6
f 131/1/6 132/1/6 139/1/6
f 139/1/6 132/1/6 140/1/6
f 141/4/6 142/4/6 143/4/6
f 143/4/6 142/4/6 144/4/6
