# MagicaVoxel @ Ephtracy

# group
o 

# material
mtllib noneQuestionBLUE.mtl
usemtl palette

# normals
vn -1 0 0
vn 1 0 0
vn 0 0 1
vn 0 0 -1
vn 0 -1 0
vn 0 1 0

# texcoords
vt 0.0839844 0.5
vt 0.876953 0.5

# verts
v 0 0.4 0
v 0 0.4 -3.6
v 0 4 0
v 0 4 -3.6
v 3.6 0.4 0
v 3.6 0.4 -3.6
v 3.6 0.6 -0.2
v 3.6 0.6 -0.5
v 3.6 0.6 -3.1
v 3.6 0.6 -3.4
v 3.6 0.9 -0.2
v 3.6 0.9 -0.5
v 3.6 0.9 -3.1
v 3.6 0.9 -3.4
v 3.6 3.5 -0.2
v 3.6 3.5 -0.5
v 3.6 3.5 -3.1
v 3.6 3.5 -3.4
v 3.6 3.8 -0.2
v 3.6 3.8 -0.5
v 3.6 3.8 -3.1
v 3.6 3.8 -3.4
v 3.6 4 0
v 3.6 4 -3.6
v 0 0.4 0
v 0 4 0
v 0.2 0.6 0
v 0.2 0.9 0
v 0.2 3.5 0
v 0.2 3.8 0
v 0.5 0.6 0
v 0.5 0.9 0
v 0.5 3.5 0
v 0.5 3.8 0
v 3.1 0.6 0
v 3.1 0.9 0
v 3.1 3.5 0
v 3.1 3.8 0
v 3.4 0.6 0
v 3.4 0.9 0
v 3.4 3.5 0
v 3.4 3.8 0
v 3.6 0.4 0
v 3.6 4 0
v 0 0.4 -3.6
v 0 4 -3.6
v 0.2 0.6 -3.6
v 0.2 0.9 -3.6
v 0.2 3.5 -3.6
v 0.2 3.8 -3.6
v 0.5 0.6 -3.6
v 0.5 0.9 -3.6
v 0.5 3.5 -3.6
v 0.5 3.8 -3.6
v 3.1 0.6 -3.6
v 3.1 0.9 -3.6
v 3.1 3.5 -3.6
v 3.1 3.8 -3.6
v 3.4 0.6 -3.6
v 3.4 0.9 -3.6
v 3.4 3.5 -3.6
v 3.4 3.8 -3.6
v 3.6 0.4 -3.6
v 3.6 4 -3.6
v 0 0.4 0
v 3.6 0.4 0
v 0 0.4 -3.6
v 3.6 0.4 -3.6
v 0 4 0
v 3.6 4 0
v 0.2 4 -0.2
v 0.5 4 -0.2
v 3.1 4 -0.2
v 3.4 4 -0.2
v 0.2 4 -0.5
v 0.5 4 -0.5
v 3.1 4 -0.5
v 3.4 4 -0.5
v 0.2 4 -3.1
v 0.5 4 -3.1
v 3.1 4 -3.1
v 3.4 4 -3.1
v 0.2 4 -3.4
v 0.5 4 -3.4
v 3.1 4 -3.4
v 3.4 4 -3.4
v 0 4 -3.6
v 3.6 4 -3.6

# faces
f 3/1/1 2/1/1 1/1/1
f 4/1/1 2/1/1 3/1/1
f 5/1/2 6/1/2 7/1/2
f 7/1/2 6/1/2 8/1/2
f 8/1/2 6/1/2 9/1/2
f 9/1/2 6/1/2 10/1/2
f 5/1/2 7/1/2 11/1/2
f 7/2/2 8/2/2 11/2/2
f 8/1/2 9/1/2 12/1/2
f 11/2/2 8/2/2 12/2/2
f 9/2/2 10/2/2 13/2/2
f 12/1/2 9/1/2 13/1/2
f 10/1/2 6/1/2 14/1/2
f 13/2/2 10/2/2 14/2/2
f 12/1/2 13/1/2 15/1/2
f 11/1/2 12/1/2 15/1/2
f 13/1/2 14/1/2 15/1/2
f 5/1/2 11/1/2 15/1/2
f 15/1/2 14/1/2 16/1/2
f 16/1/2 14/1/2 17/1/2
f 14/1/2 6/1/2 18/1/2
f 17/1/2 14/1/2 18/1/2
f 5/1/2 15/1/2 19/1/2
f 15/2/2 16/2/2 19/2/2
f 16/1/2 17/1/2 20/1/2
f 19/2/2 16/2/2 20/2/2
f 17/2/2 18/2/2 21/2/2
f 20/1/2 17/1/2 21/1/2
f 18/1/2 6/1/2 22/1/2
f 21/2/2 18/2/2 22/2/2
f 5/1/2 19/1/2 23/1/2
f 20/1/2 21/1/2 23/1/2
f 21/1/2 22/1/2 23/1/2
f 19/1/2 20/1/2 23/1/2
f 22/1/2 6/1/2 24/1/2
f 23/1/2 22/1/2 24/1/2
f 27/1/3 26/1/3 25/1/3
f 28/1/3 26/1/3 27/1/3
f 29/1/3 26/1/3 28/1/3
f 30/1/3 26/1/3 29/1/3
f 31/1/3 27/1/3 25/1/3
f 31/2/3 28/2/3 27/2/3
f 32/1/3 29/1/3 28/1/3
f 32/2/3 28/2/3 31/2/3
f 33/2/3 30/2/3 29/2/3
f 33/1/3 29/1/3 32/1/3
f 34/1/3 26/1/3 30/1/3
f 34/2/3 30/2/3 33/2/3
f 35/1/3 33/1/3 32/1/3
f 35/1/3 32/1/3 31/1/3
f 35/1/3 34/1/3 33/1/3
f 35/1/3 31/1/3 25/1/3
f 36/1/3 34/1/3 35/1/3
f 37/1/3 34/1/3 36/1/3
f 38/1/3 26/1/3 34/1/3
f 38/1/3 34/1/3 37/1/3
f 39/1/3 35/1/3 25/1/3
f 39/2/3 36/2/3 35/2/3
f 40/1/3 37/1/3 36/1/3
f 40/2/3 36/2/3 39/2/3
f 41/2/3 38/2/3 37/2/3
f 41/1/3 37/1/3 40/1/3
f 42/1/3 26/1/3 38/1/3
f 42/2/3 38/2/3 41/2/3
f 43/1/3 39/1/3 25/1/3
f 43/1/3 41/1/3 40/1/3
f 43/1/3 42/1/3 41/1/3
f 43/1/3 40/1/3 39/1/3
f 44/1/3 26/1/3 42/1/3
f 44/1/3 42/1/3 43/1/3
f 45/1/4 46/1/4 47/1/4
f 47/1/4 46/1/4 48/1/4
f 48/1/4 46/1/4 49/1/4
f 49/1/4 46/1/4 50/1/4
f 45/1/4 47/1/4 51/1/4
f 47/2/4 48/2/4 51/2/4
f 48/1/4 49/1/4 52/1/4
f 51/2/4 48/2/4 52/2/4
f 49/2/4 50/2/4 53/2/4
f 52/1/4 49/1/4 53/1/4
f 50/1/4 46/1/4 54/1/4
f 53/2/4 50/2/4 54/2/4
f 52/1/4 53/1/4 55/1/4
f 51/1/4 52/1/4 55/1/4
f 53/1/4 54/1/4 55/1/4
f 45/1/4 51/1/4 55/1/4
f 55/1/4 54/1/4 56/1/4
f 56/1/4 54/1/4 57/1/4
f 54/1/4 46/1/4 58/1/4
f 57/1/4 54/1/4 58/1/4
f 45/1/4 55/1/4 59/1/4
f 55/2/4 56/2/4 59/2/4
f 56/1/4 57/1/4 60/1/4
f 59/2/4 56/2/4 60/2/4
f 57/2/4 58/2/4 61/2/4
f 60/1/4 57/1/4 61/1/4
f 58/1/4 46/1/4 62/1/4
f 61/2/4 58/2/4 62/2/4
f 45/1/4 59/1/4 63/1/4
f 60/1/4 61/1/4 63/1/4
f 61/1/4 62/1/4 63/1/4
f 59/1/4 60/1/4 63/1/4
f 62/1/4 46/1/4 64/1/4
f 63/1/4 62/1/4 64/1/4
f 67/1/5 66/1/5 65/1/5
f 68/1/5 66/1/5 67/1/5
f 69/1/6 70/1/6 71/1/6
f 71/1/6 70/1/6 72/1/6
f 72/1/6 70/1/6 73/1/6
f 73/1/6 70/1/6 74/1/6
f 69/1/6 71/1/6 75/1/6
f 71/2/6 72/2/6 75/2/6
f 72/1/6 73/1/6 76/1/6
f 75/2/6 72/2/6 76/2/6
f 73/2/6 74/2/6 77/2/6
f 76/1/6 73/1/6 77/1/6
f 74/1/6 70/1/6 78/1/6
f 77/2/6 74/2/6 78/2/6
f 76/1/6 77/1/6 79/1/6
f 75/1/6 76/1/6 79/1/6
f 77/1/6 78/1/6 79/1/6
f 69/1/6 75/1/6 79/1/6
f 79/1/6 78/1/6 80/1/6
f 80/1/6 78/1/6 81/1/6
f 78/1/6 70/1/6 82/1/6
f 81/1/6 78/1/6 82/1/6
f 69/1/6 79/1/6 83/1/6
f 79/2/6 80/2/6 83/2/6
f 80/1/6 81/1/6 84/1/6
f 83/2/6 80/2/6 84/2/6
f 81/2/6 82/2/6 85/2/6
f 84/1/6 81/1/6 85/1/6
f 82/1/6 70/1/6 86/1/6
f 85/2/6 82/2/6 86/2/6
f 69/1/6 83/1/6 87/1/6
f 84/1/6 85/1/6 87/1/6
f 85/1/6 86/1/6 87/1/6
f 83/1/6 84/1/6 87/1/6
f 86/1/6 70/1/6 88/1/6
f 87/1/6 86/1/6 88/1/6
