# MagicaVoxel @ Ephtracy

# group
o 

# material
mtllib question.mtl
usemtl palette

# normals
vn -1 0 0
vn 1 0 0
vn 0 0 1
vn 0 0 -1
vn 0 -1 0
vn 0 1 0

# texcoords
vt 0.0878906 0.5
vt 0.0917969 0.5
vt 0.876953 0.5

# verts
v 0 1.8 0
v 0 1.8 -3.6
v 0 5.4 0
v 0 5.4 -3.6
v 3.6 1.8 0
v 3.6 1.8 -3.6
v 3.6 2 -0.2
v 3.6 2 -0.5
v 3.6 2 -3.1
v 3.6 2 -3.4
v 3.6 2.3 -0.2
v 3.6 2.3 -0.5
v 3.6 2.3 -3.1
v 3.6 2.3 -3.4
v 3.6 2.5 -1.8
v 3.6 2.5 -2
v 3.6 2.6 -1.7
v 3.6 2.6 -1.8
v 3.6 2.6 -2
v 3.6 2.6 -2.1
v 3.6 2.8 -1.7
v 3.6 2.8 -1.8
v 3.6 2.8 -2
v 3.6 2.8 -2.1
v 3.6 2.9 -1.8
v 3.6 2.9 -2
v 3.6 3.1 -1.8
v 3.6 3.1 -2
v 3.6 3.2 -1.7
v 3.6 3.2 -1.8
v 3.6 3.2 -2
v 3.6 3.2 -2.1
v 3.6 3.5 -2.1
v 3.6 3.5 -2.3
v 3.6 3.6 -1.7
v 3.6 3.6 -1.8
v 3.6 3.6 -2.3
v 3.6 3.6 -2.4
v 3.6 3.7 -1.8
v 3.6 3.7 -1.9
v 3.6 3.7 -2.4
v 3.6 3.7 -2.5
v 3.6 3.8 -1.9
v 3.6 3.8 -2
v 3.6 3.9 -2
v 3.6 3.9 -2.1
v 3.6 4 -1.2
v 3.6 4 -1.4
v 3.6 4.1 -1.1
v 3.6 4.1 -1.2
v 3.6 4.1 -1.4
v 3.6 4.1 -1.5
v 3.6 4.3 -1.5
v 3.6 4.3 -2.1
v 3.6 4.5 -1.1
v 3.6 4.5 -1.2
v 3.6 4.5 -2.4
v 3.6 4.5 -2.5
v 3.6 4.6 -1.2
v 3.6 4.6 -1.3
v 3.6 4.6 -2.3
v 3.6 4.6 -2.4
v 3.6 4.7 -1.3
v 3.6 4.7 -2.3
v 3.6 4.9 -0.2
v 3.6 4.9 -0.5
v 3.6 4.9 -3.1
v 3.6 4.9 -3.4
v 3.6 5.2 -0.2
v 3.6 5.2 -0.5
v 3.6 5.2 -3.1
v 3.6 5.2 -3.4
v 3.6 5.4 0
v 3.6 5.4 -3.6
v 0 1.8 0
v 0 5.4 0
v 0.2 2 0
v 0.2 2.3 0
v 0.2 4.9 0
v 0.2 5.2 0
v 0.5 2 0
v 0.5 2.3 0
v 0.5 4.9 0
v 0.5 5.2 0
v 1.1 4.1 0
v 1.1 4.5 0
v 1.2 4 0
v 1.2 4.1 0
v 1.2 4.5 0
v 1.2 4.6 0
v 1.3 4.6 0
v 1.3 4.7 0
v 1.4 4 0
v 1.4 4.1 0
v 1.5 4.1 0
v 1.5 4.3 0
v 1.7 2.6 0
v 1.7 2.8 0
v 1.7 3.2 0
v 1.7 3.6 0
v 1.8 2.5 0
v 1.8 2.6 0
v 1.8 2.8 0
v 1.8 2.9 0
v 1.8 3.1 0
v 1.8 3.2 0
v 1.8 3.6 0
v 1.8 3.7 0
v 1.9 3.7 0
v 1.9 3.8 0
v 2 2.5 0
v 2 2.6 0
v 2 2.8 0
v 2 2.9 0
v 2 3.1 0
v 2 3.2 0
v 2 3.8 0
v 2 3.9 0
v 2.1 2.6 0
v 2.1 2.8 0
v 2.1 3.2 0
v 2.1 3.5 0
v 2.1 3.9 0
v 2.1 4.3 0
v 2.3 3.5 0
v 2.3 3.6 0
v 2.3 4.6 0
v 2.3 4.7 0
v 2.4 3.6 0
v 2.4 3.7 0
v 2.4 4.5 0
v 2.4 4.6 0
v 2.5 3.7 0
v 2.5 4.5 0
v 3.1 2 0
v 3.1 2.3 0
v 3.1 4.9 0
v 3.1 5.2 0
v 3.4 2 0
v 3.4 2.3 0
v 3.4 4.9 0
v 3.4 5.2 0
v 3.6 1.8 0
v 3.6 5.4 0
v 0 1.8 -3.6
v 0 5.4 -3.6
v 0.2 2 -3.6
v 0.2 2.3 -3.6
v 0.2 4.9 -3.6
v 0.2 5.2 -3.6
v 0.5 2 -3.6
v 0.5 2.3 -3.6
v 0.5 4.9 -3.6
v 0.5 5.2 -3.6
v 1.1 3.7 -3.6
v 1.1 4.5 -3.6
v 1.2 3.6 -3.6
v 1.2 3.7 -3.6
v 1.2 4.5 -3.6
v 1.2 4.6 -3.6
v 1.3 3.5 -3.6
v 1.3 3.6 -3.6
v 1.3 4.6 -3.6
v 1.3 4.7 -3.6
v 1.5 2.6 -3.6
v 1.5 2.8 -3.6
v 1.5 3.2 -3.6
v 1.5 3.5 -3.6
v 1.5 3.9 -3.6
v 1.5 4.3 -3.6
v 1.6 2.5 -3.6
v 1.6 2.6 -3.6
v 1.6 2.8 -3.6
v 1.6 2.9 -3.6
v 1.6 3.1 -3.6
v 1.6 3.2 -3.6
v 1.6 3.8 -3.6
v 1.6 3.9 -3.6
v 1.7 3.7 -3.6
v 1.7 3.8 -3.6
v 1.8 2.5 -3.6
v 1.8 2.6 -3.6
v 1.8 2.8 -3.6
v 1.8 2.9 -3.6
v 1.8 3.1 -3.6
v 1.8 3.2 -3.6
v 1.8 3.6 -3.6
v 1.8 3.7 -3.6
v 1.9 2.6 -3.6
v 1.9 2.8 -3.6
v 1.9 3.2 -3.6
v 1.9 3.6 -3.6
v 2.1 4.1 -3.6
v 2.1 4.3 -3.6
v 2.2 4 -3.6
v 2.2 4.1 -3.6
v 2.3 4.6 -3.6
v 2.3 4.7 -3.6
v 2.4 4 -3.6
v 2.4 4.1 -3.6
v 2.4 4.5 -3.6
v 2.4 4.6 -3.6
v 2.5 4.1 -3.6
v 2.5 4.5 -3.6
v 3.1 2 -3.6
v 3.1 2.3 -3.6
v 3.1 4.9 -3.6
v 3.1 5.2 -3.6
v 3.4 2 -3.6
v 3.4 2.3 -3.6
v 3.4 4.9 -3.6
v 3.4 5.2 -3.6
v 3.6 1.8 -3.6
v 3.6 5.4 -3.6
v 0 1.8 0
v 3.6 1.8 0
v 0 1.8 -3.6
v 3.6 1.8 -3.6
v 0 5.4 0
v 3.6 5.4 0
v 0.2 5.4 -0.2
v 0.5 5.4 -0.2
v 3.1 5.4 -0.2
v 3.4 5.4 -0.2
v 0.2 5.4 -0.5
v 0.5 5.4 -0.5
v 3.1 5.4 -0.5
v 3.4 5.4 -0.5
v 0.9 5.4 -1.1
v 1.3 5.4 -1.1
v 0.8 5.4 -1.2
v 0.9 5.4 -1.2
v 1.3 5.4 -1.2
v 1.4 5.4 -1.2
v 0.7 5.4 -1.3
v 0.8 5.4 -1.3
v 1.3 5.4 -1.4
v 1.4 5.4 -1.4
v 1.1 5.4 -1.5
v 1.3 5.4 -1.5
v 1.8 5.4 -1.7
v 2.2 5.4 -1.7
v 2.6 5.4 -1.7
v 2.8 5.4 -1.7
v 1.7 5.4 -1.8
v 1.8 5.4 -1.8
v 2.2 5.4 -1.8
v 2.3 5.4 -1.8
v 2.5 5.4 -1.8
v 2.6 5.4 -1.8
v 2.8 5.4 -1.8
v 2.9 5.4 -1.8
v 1.6 5.4 -1.9
v 1.7 5.4 -1.9
v 1.5 5.4 -2
v 1.6 5.4 -2
v 2.2 5.4 -2
v 2.3 5.4 -2
v 2.5 5.4 -2
v 2.6 5.4 -2
v 2.8 5.4 -2
v 2.9 5.4 -2
v 1.1 5.4 -2.1
v 1.5 5.4 -2.1
v 1.9 5.4 -2.1
v 2.2 5.4 -2.1
v 2.6 5.4 -2.1
v 2.8 5.4 -2.1
v 0.7 5.4 -2.3
v 0.8 5.4 -2.3
v 1.8 5.4 -2.3
v 1.9 5.4 -2.3
v 0.8 5.4 -2.4
v 0.9 5.4 -2.4
v 1.7 5.4 -2.4
v 1.8 5.4 -2.4
v 0.9 5.4 -2.5
v 1.7 5.4 -2.5
v 0.2 5.4 -3.1
v 0.5 5.4 -3.1
v 3.1 5.4 -3.1
v 3.4 5.4 -3.1
v 0.2 5.4 -3.4
v 0.5 5.4 -3.4
v 3.1 5.4 -3.4
v 3.4 5.4 -3.4
v 0 5.4 -3.6
v 3.6 5.4 -3.6

# faces
f 3/1/1 2/1/1 1/1/1
f 4/1/1 2/1/1 3/1/1
f 5/1/2 6/1/2 7/1/2
f 7/1/2 6/1/2 8/1/2
f 8/1/2 6/1/2 9/1/2
f 9/1/2 6/1/2 10/1/2
f 5/1/2 7/1/2 11/1/2
f 7/3/2 8/3/2 11/3/2
f 8/1/2 9/1/2 12/1/2
f 11/3/2 8/3/2 12/3/2
f 9/3/2 10/3/2 13/3/2
f 12/1/2 9/1/2 13/1/2
f 10/1/2 6/1/2 14/1/2
f 13/3/2 10/3/2 14/3/2
f 12/1/2 13/1/2 15/1/2
f 11/1/2 12/1/2 15/1/2
f 13/1/2 14/1/2 15/1/2
f 15/1/2 14/1/2 16/1/2
f 11/1/2 15/1/2 17/1/2
f 15/2/2 16/2/2 18/2/2
f 17/1/2 15/1/2 18/1/2
f 16/1/2 14/1/2 19/1/2
f 18/2/2 16/2/2 19/2/2
f 19/1/2 14/1/2 20/1/2
f 17/2/2 18/2/2 21/2/2
f 11/1/2 17/1/2 21/1/2
f 19/2/2 20/2/2 21/2/2
f 18/2/2 19/2/2 21/2/2
f 21/2/2 20/2/2 22/2/2
f 22/2/2 20/2/2 23/2/2
f 20/1/2 14/1/2 24/1/2
f 23/2/2 20/2/2 24/2/2
f 22/2/2 23/2/2 25/2/2
f 21/1/2 22/1/2 25/1/2
f 23/1/2 24/1/2 26/1/2
f 25/2/2 23/2/2 26/2/2
f 21/1/2 25/1/2 27/1/2
f 25/1/2 26/1/2 27/1/2
f 26/1/2 24/1/2 28/1/2
f 27/1/2 26/1/2 28/1/2
f 11/1/2 21/1/2 29/1/2
f 21/1/2 27/1/2 29/1/2
f 27/2/2 28/2/2 30/2/2
f 29/1/2 27/1/2 30/1/2
f 28/1/2 24/1/2 31/1/2
f 30/2/2 28/2/2 31/2/2
f 24/1/2 14/1/2 32/1/2
f 31/1/2 24/1/2 32/1/2
f 30/2/2 31/2/2 33/2/2
f 32/1/2 14/1/2 33/1/2
f 31/2/2 32/2/2 33/2/2
f 29/2/2 30/2/2 33/2/2
f 33/1/2 14/1/2 34/1/2
f 11/1/2 29/1/2 35/1/2
f 29/2/2 33/2/2 35/2/2
f 33/2/2 34/2/2 35/2/2
f 35/2/2 34/2/2 36/2/2
f 34/1/2 14/1/2 37/1/2
f 36/2/2 34/2/2 37/2/2
f 37/1/2 14/1/2 38/1/2
f 35/1/2 36/1/2 39/1/2
f 36/2/2 37/2/2 39/2/2
f 37/2/2 38/2/2 39/2/2
f 39/2/2 38/2/2 40/2/2
f 38/1/2 14/1/2 41/1/2
f 40/2/2 38/2/2 41/2/2
f 41/1/2 14/1/2 42/1/2
f 39/1/2 40/1/2 43/1/2
f 40/2/2 41/2/2 43/2/2
f 41/2/2 42/2/2 43/2/2
f 43/2/2 42/2/2 44/2/2
f 43/1/2 44/1/2 45/1/2
f 44/2/2 42/2/2 45/2/2
f 45/2/2 42/2/2 46/2/2
f 11/1/2 35/1/2 47/1/2
f 35/1/2 39/1/2 47/1/2
f 45/1/2 46/1/2 47/1/2
f 43/1/2 45/1/2 47/1/2
f 39/1/2 43/1/2 47/1/2
f 47/1/2 46/1/2 48/1/2
f 11/1/2 47/1/2 49/1/2
f 47/2/2 48/2/2 50/2/2
f 49/1/2 47/1/2 50/1/2
f 48/1/2 46/1/2 51/1/2
f 50/2/2 48/2/2 51/2/2
f 51/1/2 46/1/2 52/1/2
f 49/2/2 50/2/2 53/2/2
f 52/1/2 46/1/2 53/1/2
f 51/2/2 52/2/2 53/2/2
f 50/2/2 51/2/2 53/2/2
f 46/2/2 42/2/2 54/2/2
f 53/1/2 46/1/2 54/1/2
f 49/2/2 53/2/2 55/2/2
f 11/1/2 49/1/2 55/1/2
f 53/2/2 54/2/2 55/2/2
f 55/2/2 54/2/2 56/2/2
f 54/2/2 42/2/2 57/2/2
f 56/2/2 54/2/2 57/2/2
f 42/1/2 14/1/2 58/1/2
f 57/2/2 42/2/2 58/2/2
f 56/2/2 57/2/2 59/2/2
f 55/1/2 56/1/2 59/1/2
f 59/2/2 57/2/2 60/2/2
f 60/2/2 57/2/2 61/2/2
f 57/1/2 58/1/2 62/1/2
f 61/2/2 57/2/2 62/2/2
f 60/2/2 61/2/2 63/2/2
f 59/1/2 60/1/2 63/1/2
f 61/1/2 62/1/2 64/1/2
f 63/2/2 61/2/2 64/2/2
f 5/1/2 11/1/2 65/1/2
f 11/1/2 55/1/2 65/1/2
f 63/1/2 64/1/2 65/1/2
f 59/1/2 63/1/2 65/1/2
f 55/1/2 59/1/2 65/1/2
f 65/1/2 64/1/2 66/1/2
f 64/1/2 62/1/2 67/1/2
f 66/1/2 64/1/2 67/1/2
f 58/1/2 14/1/2 67/1/2
f 62/1/2 58/1/2 67/1/2
f 14/1/2 6/1/2 68/1/2
f 67/1/2 14/1/2 68/1/2
f 65/3/2 66/3/2 69/3/2
f 5/1/2 65/1/2 69/1/2
f 66/1/2 67/1/2 70/1/2
f 69/3/2 66/3/2 70/3/2
f 67/3/2 68/3/2 71/3/2
f 70/1/2 67/1/2 71/1/2
f 68/1/2 6/1/2 72/1/2
f 71/3/2 68/3/2 72/3/2
f 5/1/2 69/1/2 73/1/2
f 70/1/2 71/1/2 73/1/2
f 71/1/2 72/1/2 73/1/2
f 69/1/2 70/1/2 73/1/2
f 72/1/2 6/1/2 74/1/2
f 73/1/2 72/1/2 74/1/2
f 77/1/3 76/1/3 75/1/3
f 78/1/3 76/1/3 77/1/3
f 79/1/3 76/1/3 78/1/3
f 80/1/3 76/1/3 79/1/3
f 81/1/3 77/1/3 75/1/3
f 81/3/3 78/3/3 77/3/3
f 82/1/3 79/1/3 78/1/3
f 82/3/3 78/3/3 81/3/3
f 83/3/3 80/3/3 79/3/3
f 83/1/3 79/1/3 82/1/3
f 84/1/3 76/1/3 80/1/3
f 84/3/3 80/3/3 83/3/3
f 85/1/3 83/1/3 82/1/3
f 85/1/3 82/1/3 81/1/3
f 85/1/3 84/1/3 83/1/3
f 86/1/3 84/1/3 85/1/3
f 87/1/3 85/1/3 81/1/3
f 88/2/3 86/2/3 85/2/3
f 88/1/3 85/1/3 87/1/3
f 89/1/3 84/1/3 86/1/3
f 89/2/3 86/2/3 88/2/3
f 90/1/3 84/1/3 89/1/3
f 91/2/3 88/2/3 87/2/3
f 91/1/3 84/1/3 90/1/3
f 91/2/3 90/2/3 89/2/3
f 91/2/3 89/2/3 88/2/3
f 92/1/3 84/1/3 91/1/3
f 93/1/3 87/1/3 81/1/3
f 93/2/3 91/2/3 87/2/3
f 93/2/3 92/2/3 91/2/3
f 94/2/3 92/2/3 93/2/3
f 95/1/3 94/1/3 93/1/3
f 95/2/3 92/2/3 94/2/3
f 96/2/3 92/2/3 95/2/3
f 97/1/3 93/1/3 81/1/3
f 97/1/3 95/1/3 93/1/3
f 97/1/3 96/1/3 95/1/3
f 98/1/3 96/1/3 97/1/3
f 99/1/3 96/1/3 98/1/3
f 100/1/3 96/1/3 99/1/3
f 101/1/3 97/1/3 81/1/3
f 102/2/3 98/2/3 97/2/3
f 102/1/3 97/1/3 101/1/3
f 103/1/3 99/1/3 98/1/3
f 103/2/3 98/2/3 102/2/3
f 104/1/3 99/1/3 103/1/3
f 105/1/3 99/1/3 104/1/3
f 106/2/3 100/2/3 99/2/3
f 106/1/3 99/1/3 105/1/3
f 107/1/3 96/1/3 100/1/3
f 107/2/3 100/2/3 106/2/3
f 108/1/3 96/1/3 107/1/3
f 109/2/3 106/2/3 105/2/3
f 109/1/3 96/1/3 108/1/3
f 109/2/3 108/2/3 107/2/3
f 109/2/3 107/2/3 106/2/3
f 110/1/3 96/1/3 109/1/3
f 111/2/3 104/2/3 103/2/3
f 111/1/3 101/1/3 81/1/3
f 111/2/3 102/2/3 101/2/3
f 111/2/3 103/2/3 102/2/3
f 112/2/3 104/2/3 111/2/3
f 113/2/3 104/2/3 112/2/3
f 114/1/3 105/1/3 104/1/3
f 114/2/3 104/2/3 113/2/3
f 115/2/3 110/2/3 109/2/3
f 115/1/3 105/1/3 114/1/3
f 115/2/3 109/2/3 105/2/3
f 116/2/3 110/2/3 115/2/3
f 117/1/3 96/1/3 110/1/3
f 117/2/3 110/2/3 116/2/3
f 118/1/3 96/1/3 117/1/3
f 119/1/3 112/1/3 111/1/3
f 119/2/3 113/2/3 112/2/3
f 120/1/3 116/1/3 115/1/3
f 120/2/3 113/2/3 119/2/3
f 120/1/3 114/1/3 113/1/3
f 120/1/3 115/1/3 114/1/3
f 121/2/3 117/2/3 116/2/3
f 121/1/3 116/1/3 120/1/3
f 121/2/3 118/2/3 117/2/3
f 122/2/3 118/2/3 121/2/3
f 123/1/3 96/1/3 118/1/3
f 123/2/3 118/2/3 122/2/3
f 124/2/3 92/2/3 96/2/3
f 124/1/3 96/1/3 123/1/3
f 125/2/3 123/2/3 122/2/3
f 125/1/3 120/1/3 119/1/3
f 125/2/3 124/2/3 123/2/3
f 125/1/3 121/1/3 120/1/3
f 125/1/3 122/1/3 121/1/3
f 126/2/3 124/2/3 125/2/3
f 127/2/3 92/2/3 124/2/3
f 127/2/3 124/2/3 126/2/3
f 128/1/3 84/1/3 92/1/3
f 128/2/3 92/2/3 127/2/3
f 129/2/3 127/2/3 126/2/3
f 129/1/3 126/1/3 125/1/3
f 130/2/3 127/2/3 129/2/3
f 131/2/3 127/2/3 130/2/3
f 132/1/3 128/1/3 127/1/3
f 132/2/3 127/2/3 131/2/3
f 133/2/3 131/2/3 130/2/3
f 133/1/3 130/1/3 129/1/3
f 134/1/3 132/1/3 131/1/3
f 134/2/3 131/2/3 133/2/3
f 135/1/3 81/1/3 75/1/3
f 135/1/3 119/1/3 111/1/3
f 135/1/3 134/1/3 133/1/3
f 135/1/3 133/1/3 129/1/3
f 135/1/3 129/1/3 125/1/3
f 135/1/3 125/1/3 119/1/3
f 135/1/3 111/1/3 81/1/3
f 136/1/3 134/1/3 135/1/3
f 137/1/3 132/1/3 134/1/3
f 137/1/3 134/1/3 136/1/3
f 137/1/3 84/1/3 128/1/3
f 137/1/3 128/1/3 132/1/3
f 138/1/3 76/1/3 84/1/3
f 138/1/3 84/1/3 137/1/3
f 139/3/3 136/3/3 135/3/3
f 139/1/3 135/1/3 75/1/3
f 140/1/3 137/1/3 136/1/3
f 140/3/3 136/3/3 139/3/3
f 141/3/3 138/3/3 137/3/3
f 141/1/3 137/1/3 140/1/3
f 142/1/3 76/1/3 138/1/3
f 142/3/3 138/3/3 141/3/3
f 143/1/3 139/1/3 75/1/3
f 143/1/3 141/1/3 140/1/3
f 143/1/3 142/1/3 141/1/3
f 143/1/3 140/1/3 139/1/3
f 144/1/3 76/1/3 142/1/3
f 144/1/3 142/1/3 143/1/3
f 145/1/4 146/1/4 147/1/4
f 147/1/4 146/1/4 148/1/4
f 148/1/4 146/1/4 149/1/4
f 149/1/4 146/1/4 150/1/4
f 145/1/4 147/1/4 151/1/4
f 147/3/4 148/3/4 151/3/4
f 148/1/4 149/1/4 152/1/4
f 151/3/4 148/3/4 152/3/4
f 149/3/4 150/3/4 153/3/4
f 152/1/4 149/1/4 153/1/4
f 150/1/4 146/1/4 154/1/4
f 153/3/4 150/3/4 154/3/4
f 152/1/4 153/1/4 155/1/4
f 151/1/4 152/1/4 155/1/4
f 153/1/4 154/1/4 155/1/4
f 155/1/4 154/1/4 156/1/4
f 151/1/4 155/1/4 157/1/4
f 155/2/4 156/2/4 158/2/4
f 157/1/4 155/1/4 158/1/4
f 156/1/4 154/1/4 159/1/4
f 158/2/4 156/2/4 159/2/4
f 159/1/4 154/1/4 160/1/4
f 151/1/4 157/1/4 161/1/4
f 157/2/4 158/2/4 162/2/4
f 161/1/4 157/1/4 162/1/4
f 158/2/4 159/2/4 162/2/4
f 159/2/4 160/2/4 162/2/4
f 160/1/4 154/1/4 163/1/4
f 162/2/4 160/2/4 163/2/4
f 163/1/4 154/1/4 164/1/4
f 151/1/4 161/1/4 165/1/4
f 165/1/4 161/1/4 166/1/4
f 166/1/4 161/1/4 167/1/4
f 161/2/4 162/2/4 168/2/4
f 167/1/4 161/1/4 168/1/4
f 162/2/4 163/2/4 168/2/4
f 163/2/4 164/2/4 168/2/4
f 168/2/4 164/2/4 169/2/4
f 169/2/4 164/2/4 170/2/4
f 151/1/4 165/1/4 171/1/4
f 165/2/4 166/2/4 172/2/4
f 171/1/4 165/1/4 172/1/4
f 166/1/4 167/1/4 173/1/4
f 172/2/4 166/2/4 173/2/4
f 173/1/4 167/1/4 174/1/4
f 174/1/4 167/1/4 175/1/4
f 167/2/4 168/2/4 176/2/4
f 175/1/4 167/1/4 176/1/4
f 168/2/4 169/2/4 176/2/4
f 176/2/4 169/2/4 177/2/4
f 169/1/4 170/1/4 178/1/4
f 177/2/4 169/2/4 178/2/4
f 176/2/4 177/2/4 179/2/4
f 175/2/4 176/2/4 179/2/4
f 177/1/4 178/1/4 180/1/4
f 179/2/4 177/2/4 180/2/4
f 171/2/4 172/2/4 181/2/4
f 151/1/4 171/1/4 181/1/4
f 173/2/4 174/2/4 181/2/4
f 172/2/4 173/2/4 181/2/4
f 181/2/4 174/2/4 182/2/4
f 182/2/4 174/2/4 183/2/4
f 174/1/4 175/1/4 184/1/4
f 183/2/4 174/2/4 184/2/4
f 175/2/4 179/2/4 185/2/4
f 184/1/4 175/1/4 185/1/4
f 185/2/4 179/2/4 186/2/4
f 186/2/4 179/2/4 187/2/4
f 179/1/4 180/1/4 188/1/4
f 187/2/4 179/2/4 188/2/4
f 182/2/4 183/2/4 189/2/4
f 181/1/4 182/1/4 189/1/4
f 183/1/4 184/1/4 190/1/4
f 189/2/4 183/2/4 190/2/4
f 184/1/4 185/1/4 190/1/4
f 185/1/4 186/1/4 190/1/4
f 186/2/4 187/2/4 191/2/4
f 190/1/4 186/1/4 191/1/4
f 187/1/4 188/1/4 192/1/4
f 191/2/4 187/2/4 192/2/4
f 180/1/4 178/1/4 193/1/4
f 192/1/4 188/1/4 193/1/4
f 191/1/4 192/1/4 193/1/4
f 190/1/4 191/1/4 193/1/4
f 189/1/4 190/1/4 193/1/4
f 178/1/4 170/1/4 193/1/4
f 188/1/4 180/1/4 193/1/4
f 170/2/4 164/2/4 194/2/4
f 193/1/4 170/1/4 194/1/4
f 189/1/4 193/1/4 195/1/4
f 193/2/4 194/2/4 196/2/4
f 195/1/4 193/1/4 196/1/4
f 194/2/4 164/2/4 197/2/4
f 196/2/4 194/2/4 197/2/4
f 195/2/4 196/2/4 197/2/4
f 164/1/4 154/1/4 198/1/4
f 197/2/4 164/2/4 198/2/4
f 195/2/4 197/2/4 199/2/4
f 189/1/4 195/1/4 199/1/4
f 199/2/4 197/2/4 200/2/4
f 200/2/4 197/2/4 201/2/4
f 197/1/4 198/1/4 202/1/4
f 201/2/4 197/2/4 202/2/4
f 200/2/4 201/2/4 203/2/4
f 199/1/4 200/1/4 203/1/4
f 201/1/4 202/1/4 204/1/4
f 203/2/4 201/2/4 204/2/4
f 145/1/4 151/1/4 205/1/4
f 151/1/4 181/1/4 205/1/4
f 203/1/4 204/1/4 205/1/4
f 199/1/4 203/1/4 205/1/4
f 189/1/4 199/1/4 205/1/4
f 181/1/4 189/1/4 205/1/4
f 205/1/4 204/1/4 206/1/4
f 204/1/4 202/1/4 207/1/4
f 206/1/4 204/1/4 207/1/4
f 198/1/4 154/1/4 207/1/4
f 202/1/4 198/1/4 207/1/4
f 154/1/4 146/1/4 208/1/4
f 207/1/4 154/1/4 208/1/4
f 205/3/4 206/3/4 209/3/4
f 145/1/4 205/1/4 209/1/4
f 206/1/4 207/1/4 210/1/4
f 209/3/4 206/3/4 210/3/4
f 207/3/4 208/3/4 211/3/4
f 210/1/4 207/1/4 211/1/4
f 208/1/4 146/1/4 212/1/4
f 211/3/4 208/3/4 212/3/4
f 145/1/4 209/1/4 213/1/4
f 210/1/4 211/1/4 213/1/4
f 211/1/4 212/1/4 213/1/4
f 209/1/4 210/1/4 213/1/4
f 212/1/4 146/1/4 214/1/4
f 213/1/4 212/1/4 214/1/4
f 217/1/5 216/1/5 215/1/5
f 218/1/5 216/1/5 217/1/5
f 219/1/6 220/1/6 221/1/6
f 221/1/6 220/1/6 222/1/6
f 222/1/6 220/1/6 223/1/6
f 223/1/6 220/1/6 224/1/6
f 219/1/6 221/1/6 225/1/6
f 221/3/6 222/3/6 225/3/6
f 222/1/6 223/1/6 226/1/6
f 225/3/6 222/3/6 226/3/6
f 223/3/6 224/3/6 227/3/6
f 226/1/6 223/1/6 227/1/6
f 224/1/6 220/1/6 228/1/6
f 227/3/6 224/3/6 228/3/6
f 226/1/6 227/1/6 229/1/6
f 225/1/6 226/1/6 229/1/6
f 227/1/6 228/1/6 229/1/6
f 229/1/6 228/1/6 230/1/6
f 225/1/6 229/1/6 231/1/6
f 229/2/6 230/2/6 232/2/6
f 231/1/6 229/1/6 232/1/6
f 230/1/6 228/1/6 233/1/6
f 232/2/6 230/2/6 233/2/6
f 233/1/6 228/1/6 234/1/6
f 225/1/6 231/1/6 235/1/6
f 231/2/6 232/2/6 236/2/6
f 235/1/6 231/1/6 236/1/6
f 232/2/6 233/2/6 236/2/6
f 233/2/6 234/2/6 236/2/6
f 235/2/6 236/2/6 237/2/6
f 236/2/6 234/2/6 237/2/6
f 234/1/6 228/1/6 238/1/6
f 237/2/6 234/2/6 238/2/6
f 235/2/6 237/2/6 239/2/6
f 237/1/6 238/1/6 240/1/6
f 239/2/6 237/2/6 240/2/6
f 238/1/6 228/1/6 241/1/6
f 240/1/6 238/1/6 241/1/6
f 239/1/6 240/1/6 241/1/6
f 241/1/6 228/1/6 242/1/6
f 242/1/6 228/1/6 243/1/6
f 243/1/6 228/1/6 244/1/6
f 239/1/6 241/1/6 245/1/6
f 241/2/6 242/2/6 246/2/6
f 245/1/6 241/1/6 246/1/6
f 242/1/6 243/1/6 247/1/6
f 246/2/6 242/2/6 247/2/6
f 247/1/6 243/1/6 248/1/6
f 248/1/6 243/1/6 249/1/6
f 243/2/6 244/2/6 250/2/6
f 249/1/6 243/1/6 250/1/6
f 244/1/6 228/1/6 251/1/6
f 250/2/6 244/2/6 251/2/6
f 251/1/6 228/1/6 252/1/6
f 239/1/6 245/1/6 253/1/6
f 245/2/6 246/2/6 254/2/6
f 253/1/6 245/1/6 254/1/6
f 246/2/6 247/2/6 254/2/6
f 247/2/6 248/2/6 254/2/6
f 239/1/6 253/1/6 255/1/6
f 253/2/6 254/2/6 256/2/6
f 255/1/6 253/1/6 256/1/6
f 254/2/6 248/2/6 257/2/6
f 256/2/6 254/2/6 257/2/6
f 248/1/6 249/1/6 258/1/6
f 257/2/6 248/2/6 258/2/6
f 249/2/6 250/2/6 259/2/6
f 258/1/6 249/1/6 259/1/6
f 251/2/6 252/2/6 259/2/6
f 250/2/6 251/2/6 259/2/6
f 259/2/6 252/2/6 260/2/6
f 260/2/6 252/2/6 261/2/6
f 252/1/6 228/1/6 262/1/6
f 261/2/6 252/2/6 262/2/6
f 235/2/6 239/2/6 263/2/6
f 239/1/6 255/1/6 263/1/6
f 255/2/6 256/2/6 264/2/6
f 263/1/6 255/1/6 264/1/6
f 256/2/6 257/2/6 264/2/6
f 264/2/6 257/2/6 265/2/6
f 257/1/6 258/1/6 266/1/6
f 265/2/6 257/2/6 266/2/6
f 259/1/6 260/1/6 266/1/6
f 258/1/6 259/1/6 266/1/6
f 260/2/6 261/2/6 267/2/6
f 266/1/6 260/1/6 267/1/6
f 261/1/6 262/1/6 268/1/6
f 267/2/6 261/2/6 268/2/6
f 225/1/6 235/1/6 269/1/6
f 264/2/6 265/2/6 269/2/6
f 235/2/6 263/2/6 269/2/6
f 263/2/6 264/2/6 269/2/6
f 269/2/6 265/2/6 270/2/6
f 270/2/6 265/2/6 271/2/6
f 267/1/6 268/1/6 272/1/6
f 271/2/6 265/2/6 272/2/6
f 265/1/6 266/1/6 272/1/6
f 266/1/6 267/1/6 272/1/6
f 270/2/6 271/2/6 273/2/6
f 269/1/6 270/1/6 273/1/6
f 273/2/6 271/2/6 274/2/6
f 274/2/6 271/2/6 275/2/6
f 271/1/6 272/1/6 276/1/6
f 275/2/6 271/2/6 276/2/6
f 274/2/6 275/2/6 277/2/6
f 273/1/6 274/1/6 277/1/6
f 275/1/6 276/1/6 278/1/6
f 277/2/6 275/2/6 278/2/6
f 219/1/6 225/1/6 279/1/6
f 225/1/6 269/1/6 279/1/6
f 277/1/6 278/1/6 279/1/6
f 273/1/6 277/1/6 279/1/6
f 269/1/6 273/1/6 279/1/6
f 279/1/6 278/1/6 280/1/6
f 278/1/6 276/1/6 281/1/6
f 280/1/6 278/1/6 281/1/6
f 268/1/6 262/1/6 281/1/6
f 262/1/6 228/1/6 281/1/6
f 276/1/6 272/1/6 281/1/6
f 272/1/6 268/1/6 281/1/6
f 228/1/6 220/1/6 282/1/6
f 281/1/6 228/1/6 282/1/6
f 279/3/6 280/3/6 283/3/6
f 219/1/6 279/1/6 283/1/6
f 280/1/6 281/1/6 284/1/6
f 283/3/6 280/3/6 284/3/6
f 281/3/6 282/3/6 285/3/6
f 284/1/6 281/1/6 285/1/6
f 282/1/6 220/1/6 286/1/6
f 285/3/6 282/3/6 286/3/6
f 219/1/6 283/1/6 287/1/6
f 284/1/6 285/1/6 287/1/6
f 285/1/6 286/1/6 287/1/6
f 283/1/6 284/1/6 287/1/6
f 286/1/6 220/1/6 288/1/6
f 287/1/6 286/1/6 288/1/6
