# MagicaVoxel @ Ephtracy

# group
o 

# material
mtllib grass.mtl
usemtl palette

# normals
vn -1 0 0
vn 1 0 0
vn 0 0 1
vn 0 0 -1
vn 0 -1 0
vn 0 1 0

# texcoords
vt 0.443359 0.5
vt 0.876953 0.5

# verts
v 0 2 0
v 0 2 -0.1
v 0 2 -3.5
v 0 2 -3.6
v 0 3.3 -0.1
v 0 3.3 -3.5
v 0 3.4 0
v 0 3.4 -3.6
v 0.1 3.4 0
v 0.1 3.4 -0.1
v 0.1 3.4 -3.5
v 0.1 3.4 -3.6
v 0.1 3.5 0
v 0.1 3.5 -0.1
v 0.1 3.5 -3.5
v 0.1 3.5 -3.6
v 0.2 3.5 0
v 0.2 3.5 -0.1
v 0.2 3.5 -3.5
v 0.2 3.5 -3.6
v 0.2 3.6 0
v 0.2 3.6 -0.1
v 0.2 3.6 -3.5
v 0.2 3.6 -3.6
v 0.3 3.6 0
v 0.3 3.6 -0.1
v 0.3 3.6 -3.5
v 0.3 3.6 -3.6
v 0.3 3.7 0
v 0.3 3.7 -0.1
v 0.3 3.7 -3.5
v 0.3 3.7 -3.6
v 3.3 3.6 0
v 3.3 3.6 -0.1
v 3.3 3.6 -3.5
v 3.3 3.6 -3.6
v 3.3 3.7 0
v 3.3 3.7 -0.1
v 3.3 3.7 -3.5
v 3.3 3.7 -3.6
v 3.4 3.5 0
v 3.4 3.5 -0.1
v 3.4 3.5 -3.5
v 3.4 3.5 -3.6
v 3.4 3.6 0
v 3.4 3.6 -0.1
v 3.4 3.6 -3.5
v 3.4 3.6 -3.6
v 3.5 3.4 0
v 3.5 3.4 -0.1
v 3.5 3.4 -3.5
v 3.5 3.4 -3.6
v 3.5 3.5 0
v 3.5 3.5 -0.1
v 3.5 3.5 -3.5
v 3.5 3.5 -3.6
v 3.6 2 0
v 3.6 2 -0.1
v 3.6 2 -3.5
v 3.6 2 -3.6
v 3.6 3.3 -0.1
v 3.6 3.3 -3.5
v 3.6 3.4 0
v 3.6 3.4 -3.6
v 0 2 0
v 0 3.4 0
v 0.1 2.1 0
v 0.1 3.4 0
v 0.1 3.5 0
v 0.2 3.4 0
v 0.2 3.5 0
v 0.2 3.6 0
v 0.3 3.5 0
v 0.3 3.6 0
v 0.3 3.7 0
v 3.3 3.5 0
v 3.3 3.6 0
v 3.3 3.7 0
v 3.4 3.4 0
v 3.4 3.5 0
v 3.4 3.6 0
v 3.5 2.1 0
v 3.5 3.4 0
v 3.5 3.5 0
v 3.6 2 0
v 3.6 3.4 0
v 0 2 -3.6
v 0 3.4 -3.6
v 0.1 2.1 -3.6
v 0.1 3.4 -3.6
v 0.1 3.5 -3.6
v 0.2 3.4 -3.6
v 0.2 3.5 -3.6
v 0.2 3.6 -3.6
v 0.3 3.5 -3.6
v 0.3 3.6 -3.6
v 0.3 3.7 -3.6
v 3.3 3.5 -3.6
v 3.3 3.6 -3.6
v 3.3 3.7 -3.6
v 3.4 3.4 -3.6
v 3.4 3.5 -3.6
v 3.4 3.6 -3.6
v 3.5 2.1 -3.6
v 3.5 3.4 -3.6
v 3.5 3.5 -3.6
v 3.6 2 -3.6
v 3.6 3.4 -3.6
v 0 2 0
v 3.6 2 0
v 0 2 -0.1
v 3.6 2 -0.1
v 0 2 -3.5
v 3.6 2 -3.5
v 0 2 -3.6
v 3.6 2 -3.6
v 0 3.4 0
v 0.1 3.4 0
v 3.5 3.4 0
v 3.6 3.4 0
v 0.1 3.4 -0.1
v 3.5 3.4 -0.1
v 0.1 3.4 -3.5
v 3.5 3.4 -3.5
v 0 3.4 -3.6
v 0.1 3.4 -3.6
v 3.5 3.4 -3.6
v 3.6 3.4 -3.6
v 0.1 3.5 0
v 0.2 3.5 0
v 3.4 3.5 0
v 3.5 3.5 0
v 0.1 3.5 -0.1
v 0.2 3.5 -0.1
v 3.4 3.5 -0.1
v 3.5 3.5 -0.1
v 0.1 3.5 -3.5
v 0.2 3.5 -3.5
v 3.4 3.5 -3.5
v 3.5 3.5 -3.5
v 0.1 3.5 -3.6
v 0.2 3.5 -3.6
v 3.4 3.5 -3.6
v 3.5 3.5 -3.6
v 0.2 3.6 0
v 0.3 3.6 0
v 3.3 3.6 0
v 3.4 3.6 0
v 0.2 3.6 -0.1
v 0.3 3.6 -0.1
v 3.3 3.6 -0.1
v 3.4 3.6 -0.1
v 0.2 3.6 -3.5
v 0.3 3.6 -3.5
v 3.3 3.6 -3.5
v 3.4 3.6 -3.5
v 0.2 3.6 -3.6
v 0.3 3.6 -3.6
v 3.3 3.6 -3.6
v 3.4 3.6 -3.6
v 0.3 3.7 0
v 3.3 3.7 0
v 0.3 3.7 -0.1
v 3.3 3.7 -0.1
v 0.3 3.7 -3.5
v 3.3 3.7 -3.5
v 0.3 3.7 -3.6
v 3.3 3.7 -3.6

# faces
f 5/2/1 2/2/1 1/2/1
f 5/1/1 3/1/1 2/1/1
f 6/2/1 4/2/1 3/2/1
f 6/1/1 3/1/1 5/1/1
f 7/2/1 5/2/1 1/2/1
f 7/2/1 6/2/1 5/2/1
f 8/2/1 4/2/1 6/2/1
f 8/2/1 6/2/1 7/2/1
f 13/2/1 10/2/1 9/2/1
f 14/1/1 11/1/1 10/1/1
f 14/2/1 10/2/1 13/2/1
f 15/2/1 12/2/1 11/2/1
f 15/1/1 11/1/1 14/1/1
f 16/2/1 12/2/1 15/2/1
f 21/2/1 18/2/1 17/2/1
f 22/1/1 19/1/1 18/1/1
f 22/2/1 18/2/1 21/2/1
f 23/2/1 20/2/1 19/2/1
f 23/1/1 19/1/1 22/1/1
f 24/2/1 20/2/1 23/2/1
f 29/2/1 26/2/1 25/2/1
f 30/1/1 27/1/1 26/1/1
f 30/2/1 26/2/1 29/2/1
f 31/2/1 28/2/1 27/2/1
f 31/1/1 27/1/1 30/1/1
f 32/2/1 28/2/1 31/2/1
f 33/2/2 34/2/2 37/2/2
f 34/1/2 35/1/2 38/1/2
f 37/2/2 34/2/2 38/2/2
f 35/2/2 36/2/2 39/2/2
f 38/1/2 35/1/2 39/1/2
f 39/2/2 36/2/2 40/2/2
f 41/2/2 42/2/2 45/2/2
f 42/1/2 43/1/2 46/1/2
f 45/2/2 42/2/2 46/2/2
f 43/2/2 44/2/2 47/2/2
f 46/1/2 43/1/2 47/1/2
f 47/2/2 44/2/2 48/2/2
f 49/2/2 50/2/2 53/2/2
f 50/1/2 51/1/2 54/1/2
f 53/2/2 50/2/2 54/2/2
f 51/2/2 52/2/2 55/2/2
f 54/1/2 51/1/2 55/1/2
f 55/2/2 52/2/2 56/2/2
f 57/2/2 58/2/2 61/2/2
f 58/1/2 59/1/2 61/1/2
f 59/2/2 60/2/2 62/2/2
f 61/1/2 59/1/2 62/1/2
f 57/2/2 61/2/2 63/2/2
f 61/2/2 62/2/2 63/2/2
f 62/2/2 60/2/2 64/2/2
f 63/2/2 62/2/2 64/2/2
f 67/2/3 66/2/3 65/2/3
f 68/2/3 66/2/3 67/2/3
f 70/1/3 68/1/3 67/1/3
f 70/2/3 69/2/3 68/2/3
f 71/2/3 69/2/3 70/2/3
f 73/1/3 71/1/3 70/1/3
f 73/2/3 72/2/3 71/2/3
f 74/2/3 72/2/3 73/2/3
f 76/1/3 73/1/3 70/1/3
f 76/1/3 74/1/3 73/1/3
f 77/2/3 75/2/3 74/2/3
f 77/1/3 74/1/3 76/1/3
f 78/2/3 75/2/3 77/2/3
f 79/1/3 70/1/3 67/1/3
f 79/1/3 76/1/3 70/1/3
f 80/2/3 77/2/3 76/2/3
f 80/1/3 76/1/3 79/1/3
f 81/2/3 77/2/3 80/2/3
f 82/2/3 67/2/3 65/2/3
f 82/1/3 79/1/3 67/1/3
f 83/2/3 80/2/3 79/2/3
f 83/1/3 79/1/3 82/1/3
f 84/2/3 80/2/3 83/2/3
f 85/2/3 82/2/3 65/2/3
f 85/2/3 83/2/3 82/2/3
f 86/2/3 83/2/3 85/2/3
f 87/2/4 88/2/4 89/2/4
f 89/2/4 88/2/4 90/2/4
f 89/1/4 90/1/4 92/1/4
f 90/2/4 91/2/4 92/2/4
f 92/2/4 91/2/4 93/2/4
f 92/1/4 93/1/4 95/1/4
f 93/2/4 94/2/4 95/2/4
f 95/2/4 94/2/4 96/2/4
f 92/1/4 95/1/4 98/1/4
f 95/1/4 96/1/4 98/1/4
f 96/2/4 97/2/4 99/2/4
f 98/1/4 96/1/4 99/1/4
f 99/2/4 97/2/4 100/2/4
f 89/1/4 92/1/4 101/1/4
f 92/1/4 98/1/4 101/1/4
f 98/2/4 99/2/4 102/2/4
f 101/1/4 98/1/4 102/1/4
f 102/2/4 99/2/4 103/2/4
f 87/2/4 89/2/4 104/2/4
f 89/1/4 101/1/4 104/1/4
f 101/2/4 102/2/4 105/2/4
f 104/1/4 101/1/4 105/1/4
f 105/2/4 102/2/4 106/2/4
f 87/2/4 104/2/4 107/2/4
f 104/2/4 105/2/4 107/2/4
f 107/2/4 105/2/4 108/2/4
f 111/2/5 110/2/5 109/2/5
f 112/2/5 110/2/5 111/2/5
f 113/1/5 112/1/5 111/1/5
f 114/1/5 112/1/5 113/1/5
f 115/2/5 114/2/5 113/2/5
f 116/2/5 114/2/5 115/2/5
f 117/2/6 118/2/6 121/2/6
f 119/2/6 120/2/6 122/2/6
f 117/2/6 121/2/6 123/2/6
f 122/2/6 120/2/6 124/2/6
f 117/2/6 123/2/6 125/2/6
f 125/2/6 123/2/6 126/2/6
f 124/2/6 120/2/6 127/2/6
f 127/2/6 120/2/6 128/2/6
f 129/2/6 130/2/6 133/2/6
f 133/2/6 130/2/6 134/2/6
f 131/2/6 132/2/6 135/2/6
f 135/2/6 132/2/6 136/2/6
f 133/1/6 134/1/6 137/1/6
f 137/1/6 134/1/6 138/1/6
f 135/1/6 136/1/6 139/1/6
f 139/1/6 136/1/6 140/1/6
f 137/2/6 138/2/6 141/2/6
f 141/2/6 138/2/6 142/2/6
f 139/2/6 140/2/6 143/2/6
f 143/2/6 140/2/6 144/2/6
f 145/2/6 146/2/6 149/2/6
f 149/2/6 146/2/6 150/2/6
f 147/2/6 148/2/6 151/2/6
f 151/2/6 148/2/6 152/2/6
f 149/1/6 150/1/6 153/1/6
f 153/1/6 150/1/6 154/1/6
f 151/1/6 152/1/6 155/1/6
f 155/1/6 152/1/6 156/1/6
f 153/2/6 154/2/6 157/2/6
f 157/2/6 154/2/6 158/2/6
f 155/2/6 156/2/6 159/2/6
f 159/2/6 156/2/6 160/2/6
f 161/2/6 162/2/6 163/2/6
f 163/2/6 162/2/6 164/2/6
f 163/1/6 164/1/6 165/1/6
f 165/1/6 164/1/6 166/1/6
f 165/2/6 166/2/6 167/2/6
f 167/2/6 166/2/6 168/2/6
