# MagicaVoxel @ Ephtracy

# group
o 

# material
mtllib box2.mtl
usemtl palette

# normals
vn -1 0 0
vn 1 0 0
vn 0 0 1
vn 0 0 -1
vn 0 -1 0
vn 0 1 0

# texcoords
vt 0.0605469 0.5
vt 0.0917969 0.5
vt 0.876953 0.5

# verts
v 0 2 0
v 0 2 -3.5
v 0 2 -3.6
v 0 2.1 0
v 0 2.1 -0.1
v 0 2.1 -3.4
v 0 2.1 -3.5
v 0 2.1 -3.6
v 0 2.2 -0.1
v 0 2.2 -0.2
v 0 2.2 -3.3
v 0 2.2 -3.4
v 0 2.2 -3.5
v 0 2.3 -0.2
v 0 2.3 -0.3
v 0 2.3 -3.2
v 0 2.3 -3.3
v 0 2.3 -3.4
v 0 2.4 -0.3
v 0 2.4 -0.4
v 0 2.4 -3.1
v 0 2.4 -3.2
v 0 2.4 -3.3
v 0 2.5 -0.4
v 0 2.5 -0.5
v 0 2.5 -3
v 0 2.5 -3.1
v 0 2.5 -3.2
v 0 2.6 -0.5
v 0 2.6 -0.6
v 0 2.6 -2.9
v 0 2.6 -3
v 0 2.6 -3.1
v 0 2.7 -0.6
v 0 2.7 -0.7
v 0 2.7 -2.8
v 0 2.7 -2.9
v 0 2.7 -3
v 0 2.8 -0.7
v 0 2.8 -0.8
v 0 2.8 -2.7
v 0 2.8 -2.8
v 0 2.8 -2.9
v 0 2.9 -0.8
v 0 2.9 -0.9
v 0 2.9 -2.7
v 0 2.9 -2.8
v 0 4.7 -0.8
v 0 4.7 -0.9
v 0 4.7 -2.7
v 0 4.8 -0.7
v 0 4.8 -0.8
v 0 4.8 -0.9
v 0 4.8 -2.7
v 0 4.8 -2.8
v 0 4.9 -0.6
v 0 4.9 -0.7
v 0 4.9 -0.8
v 0 4.9 -2.8
v 0 4.9 -2.9
v 0 5 -0.5
v 0 5 -0.6
v 0 5 -0.7
v 0 5 -2.9
v 0 5 -3
v 0 5.1 -0.4
v 0 5.1 -0.5
v 0 5.1 -0.6
v 0 5.1 -3
v 0 5.1 -3.1
v 0 5.2 -0.3
v 0 5.2 -0.4
v 0 5.2 -0.5
v 0 5.2 -3.1
v 0 5.2 -3.2
v 0 5.3 -0.2
v 0 5.3 -0.3
v 0 5.3 -0.4
v 0 5.3 -3.2
v 0 5.3 -3.3
v 0 5.4 -0.1
v 0 5.4 -0.2
v 0 5.4 -0.3
v 0 5.4 -3.3
v 0 5.4 -3.4
v 0 5.5 0
v 0 5.5 -0.1
v 0 5.5 -0.2
v 0 5.5 -3.4
v 0 5.5 -3.5
v 0 5.6 0
v 0 5.6 -0.1
v 0 5.6 -3.5
v 0 5.6 -3.6
v 3.6 2 0
v 3.6 2 -0.1
v 3.6 2 -3.6
v 3.6 2.1 0
v 3.6 2.1 -0.1
v 3.6 2.1 -0.2
v 3.6 2.1 -3.5
v 3.6 2.1 -3.6
v 3.6 2.2 -0.1
v 3.6 2.2 -0.2
v 3.6 2.2 -0.3
v 3.6 2.2 -3.4
v 3.6 2.2 -3.5
v 3.6 2.3 -0.2
v 3.6 2.3 -0.3
v 3.6 2.3 -0.4
v 3.6 2.3 -3.3
v 3.6 2.3 -3.4
v 3.6 2.4 -0.3
v 3.6 2.4 -0.4
v 3.6 2.4 -0.5
v 3.6 2.4 -3.2
v 3.6 2.4 -3.3
v 3.6 2.5 -0.4
v 3.6 2.5 -0.5
v 3.6 2.5 -0.6
v 3.6 2.5 -3.1
v 3.6 2.5 -3.2
v 3.6 2.6 -0.5
v 3.6 2.6 -0.6
v 3.6 2.6 -0.7
v 3.6 2.6 -3
v 3.6 2.6 -3.1
v 3.6 2.7 -0.6
v 3.6 2.7 -0.7
v 3.6 2.7 -0.8
v 3.6 2.7 -2.9
v 3.6 2.7 -3
v 3.6 2.8 -0.7
v 3.6 2.8 -0.8
v 3.6 2.8 -0.9
v 3.6 2.8 -2.8
v 3.6 2.8 -2.9
v 3.6 2.9 -0.8
v 3.6 2.9 -0.9
v 3.6 2.9 -2.7
v 3.6 2.9 -2.8
v 3.6 4.7 -0.9
v 3.6 4.7 -2.7
v 3.6 4.7 -2.8
v 3.6 4.8 -0.8
v 3.6 4.8 -0.9
v 3.6 4.8 -2.7
v 3.6 4.8 -2.8
v 3.6 4.8 -2.9
v 3.6 4.9 -0.7
v 3.6 4.9 -0.8
v 3.6 4.9 -2.8
v 3.6 4.9 -2.9
v 3.6 4.9 -3
v 3.6 5 -0.6
v 3.6 5 -0.7
v 3.6 5 -2.9
v 3.6 5 -3
v 3.6 5 -3.1
v 3.6 5.1 -0.5
v 3.6 5.1 -0.6
v 3.6 5.1 -3
v 3.6 5.1 -3.1
v 3.6 5.1 -3.2
v 3.6 5.2 -0.4
v 3.6 5.2 -0.5
v 3.6 5.2 -3.1
v 3.6 5.2 -3.2
v 3.6 5.2 -3.3
v 3.6 5.3 -0.3
v 3.6 5.3 -0.4
v 3.6 5.3 -3.2
v 3.6 5.3 -3.3
v 3.6 5.3 -3.4
v 3.6 5.4 -0.2
v 3.6 5.4 -0.3
v 3.6 5.4 -3.3
v 3.6 5.4 -3.4
v 3.6 5.4 -3.5
v 3.6 5.5 -0.2
v 3.6 5.5 -3.4
v 3.6 5.5 -3.5
v 3.6 5.5 -3.6
v 3.6 5.6 0
v 3.6 5.6 -3.5
v 3.6 5.6 -3.6
v 0 2 0
v 0 2.1 0
v 0 5.5 0
v 0 5.6 0
v 0.1 2.1 0
v 0.1 2.2 0
v 0.1 5.4 0
v 0.1 5.5 0
v 0.1 5.6 0
v 0.2 2.2 0
v 0.2 2.3 0
v 0.2 5.3 0
v 0.2 5.4 0
v 0.2 5.5 0
v 0.3 2.3 0
v 0.3 2.4 0
v 0.3 5.2 0
v 0.3 5.3 0
v 0.3 5.4 0
v 0.4 2.4 0
v 0.4 2.5 0
v 0.4 5.1 0
v 0.4 5.2 0
v 0.4 5.3 0
v 0.5 2.5 0
v 0.5 2.6 0
v 0.5 5 0
v 0.5 5.1 0
v 0.5 5.2 0
v 0.6 2.6 0
v 0.6 2.7 0
v 0.6 4.9 0
v 0.6 5 0
v 0.6 5.1 0
v 0.7 2.7 0
v 0.7 2.8 0
v 0.7 4.8 0
v 0.7 4.9 0
v 0.7 5 0
v 0.8 2.8 0
v 0.8 2.9 0
v 0.8 4.7 0
v 0.8 4.8 0
v 0.8 4.9 0
v 0.9 2.9 0
v 0.9 4.7 0
v 0.9 4.8 0
v 2.7 2.8 0
v 2.7 2.9 0
v 2.7 4.7 0
v 2.7 4.8 0
v 2.8 2.7 0
v 2.8 2.8 0
v 2.8 2.9 0
v 2.8 4.8 0
v 2.8 4.9 0
v 2.9 2.6 0
v 2.9 2.7 0
v 2.9 2.8 0
v 2.9 4.9 0
v 2.9 5 0
v 3 2.5 0
v 3 2.6 0
v 3 2.7 0
v 3 5 0
v 3 5.1 0
v 3.1 2.4 0
v 3.1 2.5 0
v 3.1 2.6 0
v 3.1 5.1 0
v 3.1 5.2 0
v 3.2 2.3 0
v 3.2 2.4 0
v 3.2 2.5 0
v 3.2 5.2 0
v 3.2 5.3 0
v 3.3 2.2 0
v 3.3 2.3 0
v 3.3 2.4 0
v 3.3 5.3 0
v 3.3 5.4 0
v 3.4 2.1 0
v 3.4 2.2 0
v 3.4 2.3 0
v 3.4 5.4 0
v 3.4 5.5 0
v 3.5 2 0
v 3.5 2.1 0
v 3.5 2.2 0
v 3.5 5.5 0
v 3.5 5.6 0
v 3.6 2 0
v 3.6 2.1 0
v 3.6 5.6 0
v 0 2 -3.6
v 0 2.1 -3.6
v 0 5.6 -3.6
v 0.1 2.1 -3.6
v 0.1 5.5 -3.6
v 3.5 2 -3.6
v 3.5 2.1 -3.6
v 3.5 5.5 -3.6
v 3.5 5.6 -3.6
v 3.6 2 -3.6
v 3.6 2.1 -3.6
v 3.6 5.5 -3.6
v 3.6 5.6 -3.6
v 0 2 0
v 3.5 2 0
v 3.6 2 0
v 0.1 2 -0.1
v 0.6 2 -0.1
v 3.5 2 -0.1
v 3.6 2 -0.1
v 0.6 2 -0.5
v 3.5 2 -0.5
v 0 2 -3.5
v 0.1 2 -3.5
v 0 2 -3.6
v 3.5 2 -3.6
v 3.6 2 -3.6
v 0 5.6 0
v 0.1 5.6 0
v 3.5 5.6 0
v 3.6 5.6 0
v 0 5.6 -0.1
v 0.1 5.6 -0.1
v 0.2 5.6 -0.1
v 3.4 5.6 -0.1
v 3.5 5.6 -0.1
v 0.1 5.6 -0.2
v 0.2 5.6 -0.2
v 0.3 5.6 -0.2
v 3.3 5.6 -0.2
v 3.4 5.6 -0.2
v 0.2 5.6 -0.3
v 0.3 5.6 -0.3
v 0.4 5.6 -0.3
v 3.2 5.6 -0.3
v 3.3 5.6 -0.3
v 0.3 5.6 -0.4
v 0.4 5.6 -0.4
v 0.5 5.6 -0.4
v 3.1 5.6 -0.4
v 3.2 5.6 -0.4
v 0.4 5.6 -0.5
v 0.5 5.6 -0.5
v 0.6 5.6 -0.5
v 3 5.6 -0.5
v 3.1 5.6 -0.5
v 0.5 5.6 -0.6
v 0.6 5.6 -0.6
v 0.7 5.6 -0.6
v 2.9 5.6 -0.6
v 3 5.6 -0.6
v 0.6 5.6 -0.7
v 0.7 5.6 -0.7
v 0.8 5.6 -0.7
v 2.8 5.6 -0.7
v 2.9 5.6 -0.7
v 0.7 5.6 -0.8
v 0.8 5.6 -0.8
v 0.9 5.6 -0.8
v 2.7 5.6 -0.8
v 2.8 5.6 -0.8
v 0.8 5.6 -0.9
v 0.9 5.6 -0.9
v 2.7 5.6 -0.9
v 0.8 5.6 -2.7
v 0.9 5.6 -2.7
v 2.7 5.6 -2.7
v 2.8 5.6 -2.7
v 0.7 5.6 -2.8
v 0.8 5.6 -2.8
v 2.7 5.6 -2.8
v 2.8 5.6 -2.8
v 2.9 5.6 -2.8
v 0.6 5.6 -2.9
v 0.7 5.6 -2.9
v 2.8 5.6 -2.9
v 2.9 5.6 -2.9
v 3 5.6 -2.9
v 0.5 5.6 -3
v 0.6 5.6 -3
v 2.9 5.6 -3
v 3 5.6 -3
v 3.1 5.6 -3
v 0.4 5.6 -3.1
v 0.5 5.6 -3.1
v 3 5.6 -3.1
v 3.1 5.6 -3.1
v 3.2 5.6 -3.1
v 0.3 5.6 -3.2
v 0.4 5.6 -3.2
v 3.1 5.6 -3.2
v 3.2 5.6 -3.2
v 3.3 5.6 -3.2
v 0.2 5.6 -3.3
v 0.3 5.6 -3.3
v 3.2 5.6 -3.3
v 3.3 5.6 -3.3
v 3.4 5.6 -3.3
v 0.1 5.6 -3.4
v 0.2 5.6 -3.4
v 3.3 5.6 -3.4
v 3.4 5.6 -3.4
v 3.5 5.6 -3.4
v 0 5.6 -3.5
v 0.1 5.6 -3.5
v 3.4 5.6 -3.5
v 3.5 5.6 -3.5
v 3.6 5.6 -3.5
v 0 5.6 -3.6
v 3.5 5.6 -3.6
v 3.6 5.6 -3.6

# faces
f 4/3/1 2/3/1 1/3/1
f 5/3/1 2/3/1 4/3/1
f 6/3/1 2/3/1 5/3/1
f 7/2/1 3/2/1 2/2/1
f 7/3/1 2/3/1 6/3/1
f 8/2/1 3/2/1 7/2/1
f 9/3/1 6/3/1 5/3/1
f 9/1/1 5/1/1 4/1/1
f 10/3/1 6/3/1 9/3/1
f 11/3/1 6/3/1 10/3/1
f 12/2/1 7/2/1 6/2/1
f 12/3/1 6/3/1 11/3/1
f 13/3/1 8/3/1 7/3/1
f 13/2/1 7/2/1 12/2/1
f 14/3/1 11/3/1 10/3/1
f 14/1/1 10/1/1 9/1/1
f 15/3/1 11/3/1 14/3/1
f 16/3/1 11/3/1 15/3/1
f 17/2/1 12/2/1 11/2/1
f 17/3/1 11/3/1 16/3/1
f 18/3/1 13/3/1 12/3/1
f 18/2/1 12/2/1 17/2/1
f 19/3/1 16/3/1 15/3/1
f 19/1/1 15/1/1 14/1/1
f 20/3/1 16/3/1 19/3/1
f 21/3/1 16/3/1 20/3/1
f 22/2/1 17/2/1 16/2/1
f 22/3/1 16/3/1 21/3/1
f 23/3/1 18/3/1 17/3/1
f 23/2/1 17/2/1 22/2/1
f 24/3/1 21/3/1 20/3/1
f 24/1/1 20/1/1 19/1/1
f 25/3/1 21/3/1 24/3/1
f 26/3/1 21/3/1 25/3/1
f 27/2/1 22/2/1 21/2/1
f 27/3/1 21/3/1 26/3/1
f 28/3/1 23/3/1 22/3/1
f 28/2/1 22/2/1 27/2/1
f 29/3/1 26/3/1 25/3/1
f 29/1/1 25/1/1 24/1/1
f 30/3/1 26/3/1 29/3/1
f 31/3/1 26/3/1 30/3/1
f 32/2/1 27/2/1 26/2/1
f 32/3/1 26/3/1 31/3/1
f 33/3/1 28/3/1 27/3/1
f 33/2/1 27/2/1 32/2/1
f 34/3/1 31/3/1 30/3/1
f 34/1/1 30/1/1 29/1/1
f 35/3/1 31/3/1 34/3/1
f 36/3/1 31/3/1 35/3/1
f 37/2/1 32/2/1 31/2/1
f 37/3/1 31/3/1 36/3/1
f 38/3/1 33/3/1 32/3/1
f 38/2/1 32/2/1 37/2/1
f 39/3/1 36/3/1 35/3/1
f 39/1/1 35/1/1 34/1/1
f 40/3/1 36/3/1 39/3/1
f 41/3/1 36/3/1 40/3/1
f 42/2/1 37/2/1 36/2/1
f 42/3/1 36/3/1 41/3/1
f 43/3/1 38/3/1 37/3/1
f 43/2/1 37/2/1 42/2/1
f 44/3/1 41/3/1 40/3/1
f 44/1/1 40/1/1 39/1/1
f 45/3/1 41/3/1 44/3/1
f 46/2/1 42/2/1 41/2/1
f 46/3/1 41/3/1 45/3/1
f 47/3/1 43/3/1 42/3/1
f 47/2/1 42/2/1 46/2/1
f 48/1/1 45/1/1 44/1/1
f 48/1/1 44/1/1 39/1/1
f 49/2/1 46/2/1 45/2/1
f 49/1/1 45/1/1 48/1/1
f 50/3/1 47/3/1 46/3/1
f 50/2/1 46/2/1 49/2/1
f 51/1/1 39/1/1 34/1/1
f 51/1/1 48/1/1 39/1/1
f 52/2/1 49/2/1 48/2/1
f 52/1/1 48/1/1 51/1/1
f 53/1/1 50/1/1 49/1/1
f 53/2/1 49/2/1 52/2/1
f 54/3/1 47/3/1 50/3/1
f 54/1/1 50/1/1 53/1/1
f 55/3/1 43/3/1 47/3/1
f 55/3/1 47/3/1 54/3/1
f 56/1/1 34/1/1 29/1/1
f 56/1/1 51/1/1 34/1/1
f 57/2/1 52/2/1 51/2/1
f 57/1/1 51/1/1 56/1/1
f 58/1/1 54/1/1 53/1/1
f 58/2/1 52/2/1 57/2/1
f 58/1/1 53/1/1 52/1/1
f 58/1/1 55/1/1 54/1/1
f 59/3/1 43/3/1 55/3/1
f 59/1/1 55/1/1 58/1/1
f 60/3/1 38/3/1 43/3/1
f 60/3/1 43/3/1 59/3/1
f 61/1/1 29/1/1 24/1/1
f 61/1/1 56/1/1 29/1/1
f 62/2/1 57/2/1 56/2/1
f 62/1/1 56/1/1 61/1/1
f 63/1/1 59/1/1 58/1/1
f 63/2/1 57/2/1 62/2/1
f 63/1/1 58/1/1 57/1/1
f 63/1/1 60/1/1 59/1/1
f 64/3/1 38/3/1 60/3/1
f 64/1/1 60/1/1 63/1/1
f 65/3/1 33/3/1 38/3/1
f 65/3/1 38/3/1 64/3/1
f 66/1/1 24/1/1 19/1/1
f 66/1/1 61/1/1 24/1/1
f 67/2/1 62/2/1 61/2/1
f 67/1/1 61/1/1 66/1/1
f 68/1/1 64/1/1 63/1/1
f 68/2/1 62/2/1 67/2/1
f 68/1/1 63/1/1 62/1/1
f 68/1/1 65/1/1 64/1/1
f 69/3/1 33/3/1 65/3/1
f 69/1/1 65/1/1 68/1/1
f 70/3/1 28/3/1 33/3/1
f 70/3/1 33/3/1 69/3/1
f 71/1/1 19/1/1 14/1/1
f 71/1/1 66/1/1 19/1/1
f 72/2/1 67/2/1 66/2/1
f 72/1/1 66/1/1 71/1/1
f 73/1/1 69/1/1 68/1/1
f 73/2/1 67/2/1 72/2/1
f 73/1/1 68/1/1 67/1/1
f 73/1/1 70/1/1 69/1/1
f 74/3/1 28/3/1 70/3/1
f 74/1/1 70/1/1 73/1/1
f 75/3/1 23/3/1 28/3/1
f 75/3/1 28/3/1 74/3/1
f 76/1/1 14/1/1 9/1/1
f 76/1/1 71/1/1 14/1/1
f 77/2/1 72/2/1 71/2/1
f 77/1/1 71/1/1 76/1/1
f 78/1/1 74/1/1 73/1/1
f 78/2/1 72/2/1 77/2/1
f 78/1/1 73/1/1 72/1/1
f 78/1/1 75/1/1 74/1/1
f 79/3/1 23/3/1 75/3/1
f 79/1/1 75/1/1 78/1/1
f 80/3/1 18/3/1 23/3/1
f 80/3/1 23/3/1 79/3/1
f 81/1/1 9/1/1 4/1/1
f 81/1/1 76/1/1 9/1/1
f 82/2/1 77/2/1 76/2/1
f 82/1/1 76/1/1 81/1/1
f 83/1/1 79/1/1 78/1/1
f 83/2/1 77/2/1 82/2/1
f 83/1/1 78/1/1 77/1/1
f 83/1/1 80/1/1 79/1/1
f 84/3/1 18/3/1 80/3/1
f 84/1/1 80/1/1 83/1/1
f 85/3/1 13/3/1 18/3/1
f 85/3/1 18/3/1 84/3/1
f 86/1/1 81/1/1 4/1/1
f 87/2/1 82/2/1 81/2/1
f 87/1/1 81/1/1 86/1/1
f 88/1/1 84/1/1 83/1/1
f 88/2/1 82/2/1 87/2/1
f 88/1/1 83/1/1 82/1/1
f 88/1/1 85/1/1 84/1/1
f 89/3/1 13/3/1 85/3/1
f 89/1/1 85/1/1 88/1/1
f 90/3/1 8/3/1 13/3/1
f 90/3/1 13/3/1 89/3/1
f 91/2/1 87/2/1 86/2/1
f 92/1/1 89/1/1 88/1/1
f 92/2/1 87/2/1 91/2/1
f 92/1/1 88/1/1 87/1/1
f 92/1/1 90/1/1 89/1/1
f 93/3/1 8/3/1 90/3/1
f 93/1/1 90/1/1 92/1/1
f 94/3/1 8/3/1 93/3/1
f 95/2/2 96/2/2 98/2/2
f 96/3/2 97/3/2 99/3/2
f 98/2/2 96/2/2 99/2/2
f 99/3/2 97/3/2 100/3/2
f 100/3/2 97/3/2 101/3/2
f 101/3/2 97/3/2 102/3/2
f 98/3/2 99/3/2 103/3/2
f 99/2/2 100/2/2 103/2/2
f 100/3/2 101/3/2 104/3/2
f 103/2/2 100/2/2 104/2/2
f 104/3/2 101/3/2 105/3/2
f 105/3/2 101/3/2 106/3/2
f 101/1/2 102/1/2 107/1/2
f 106/3/2 101/3/2 107/3/2
f 103/3/2 104/3/2 108/3/2
f 104/2/2 105/2/2 108/2/2
f 105/3/2 106/3/2 109/3/2
f 108/2/2 105/2/2 109/2/2
f 109/3/2 106/3/2 110/3/2
f 110/3/2 106/3/2 111/3/2
f 106/1/2 107/1/2 112/1/2
f 111/3/2 106/3/2 112/3/2
f 108/3/2 109/3/2 113/3/2
f 109/2/2 110/2/2 113/2/2
f 110/3/2 111/3/2 114/3/2
f 113/2/2 110/2/2 114/2/2
f 114/3/2 111/3/2 115/3/2
f 115/3/2 111/3/2 116/3/2
f 111/1/2 112/1/2 117/1/2
f 116/3/2 111/3/2 117/3/2
f 113/3/2 114/3/2 118/3/2
f 114/2/2 115/2/2 118/2/2
f 115/3/2 116/3/2 119/3/2
f 118/2/2 115/2/2 119/2/2
f 119/3/2 116/3/2 120/3/2
f 120/3/2 116/3/2 121/3/2
f 116/1/2 117/1/2 122/1/2
f 121/3/2 116/3/2 122/3/2
f 118/3/2 119/3/2 123/3/2
f 119/2/2 120/2/2 123/2/2
f 120/3/2 121/3/2 124/3/2
f 123/2/2 120/2/2 124/2/2
f 124/3/2 121/3/2 125/3/2
f 125/3/2 121/3/2 126/3/2
f 121/1/2 122/1/2 127/1/2
f 126/3/2 121/3/2 127/3/2
f 123/3/2 124/3/2 128/3/2
f 124/2/2 125/2/2 128/2/2
f 125/3/2 126/3/2 129/3/2
f 128/2/2 125/2/2 129/2/2
f 129/3/2 126/3/2 130/3/2
f 130/3/2 126/3/2 131/3/2
f 126/1/2 127/1/2 132/1/2
f 131/3/2 126/3/2 132/3/2
f 128/3/2 129/3/2 133/3/2
f 129/2/2 130/2/2 133/2/2
f 130/3/2 131/3/2 134/3/2
f 133/2/2 130/2/2 134/2/2
f 134/3/2 131/3/2 135/3/2
f 135/3/2 131/3/2 136/3/2
f 131/1/2 132/1/2 137/1/2
f 136/3/2 131/3/2 137/3/2
f 133/3/2 134/3/2 138/3/2
f 134/2/2 135/2/2 138/2/2
f 135/3/2 136/3/2 139/3/2
f 138/2/2 135/2/2 139/2/2
f 139/3/2 136/3/2 140/3/2
f 136/1/2 137/1/2 141/1/2
f 140/3/2 136/3/2 141/3/2
f 139/2/2 140/2/2 142/2/2
f 138/3/2 139/3/2 142/3/2
f 140/1/2 141/1/2 143/1/2
f 142/2/2 140/2/2 143/2/2
f 141/1/2 137/1/2 144/1/2
f 143/1/2 141/1/2 144/1/2
f 133/3/2 138/3/2 145/3/2
f 138/3/2 142/3/2 145/3/2
f 142/1/2 143/1/2 146/1/2
f 145/3/2 142/3/2 146/3/2
f 143/2/2 144/2/2 147/2/2
f 146/1/2 143/1/2 147/1/2
f 144/1/2 137/1/2 148/1/2
f 147/2/2 144/2/2 148/2/2
f 137/1/2 132/1/2 149/1/2
f 148/1/2 137/1/2 149/1/2
f 128/3/2 133/3/2 150/3/2
f 133/3/2 145/3/2 150/3/2
f 146/1/2 147/1/2 151/1/2
f 150/3/2 145/3/2 151/3/2
f 147/1/2 148/1/2 151/1/2
f 145/1/2 146/1/2 151/1/2
f 148/2/2 149/2/2 152/2/2
f 151/1/2 148/1/2 152/1/2
f 149/1/2 132/1/2 153/1/2
f 152/2/2 149/2/2 153/2/2
f 132/1/2 127/1/2 154/1/2
f 153/1/2 132/1/2 154/1/2
f 123/3/2 128/3/2 155/3/2
f 128/3/2 150/3/2 155/3/2
f 151/1/2 152/1/2 156/1/2
f 155/3/2 150/3/2 156/3/2
f 152/1/2 153/1/2 156/1/2
f 150/1/2 151/1/2 156/1/2
f 153/2/2 154/2/2 157/2/2
f 156/1/2 153/1/2 157/1/2
f 154/1/2 127/1/2 158/1/2
f 157/2/2 154/2/2 158/2/2
f 127/1/2 122/1/2 159/1/2
f 158/1/2 127/1/2 159/1/2
f 118/3/2 123/3/2 160/3/2
f 123/3/2 155/3/2 160/3/2
f 156/1/2 157/1/2 161/1/2
f 160/3/2 155/3/2 161/3/2
f 157/1/2 158/1/2 161/1/2
f 155/1/2 156/1/2 161/1/2
f 158/2/2 159/2/2 162/2/2
f 161/1/2 158/1/2 162/1/2
f 159/1/2 122/1/2 163/1/2
f 162/2/2 159/2/2 163/2/2
f 122/1/2 117/1/2 164/1/2
f 163/1/2 122/1/2 164/1/2
f 113/3/2 118/3/2 165/3/2
f 118/3/2 160/3/2 165/3/2
f 161/1/2 162/1/2 166/1/2
f 165/3/2 160/3/2 166/3/2
f 162/1/2 163/1/2 166/1/2
f 160/1/2 161/1/2 166/1/2
f 163/2/2 164/2/2 167/2/2
f 166/1/2 163/1/2 167/1/2
f 164/1/2 117/1/2 168/1/2
f 167/2/2 164/2/2 168/2/2
f 117/1/2 112/1/2 169/1/2
f 168/1/2 117/1/2 169/1/2
f 108/3/2 113/3/2 170/3/2
f 113/3/2 165/3/2 170/3/2
f 166/1/2 167/1/2 171/1/2
f 170/3/2 165/3/2 171/3/2
f 167/1/2 168/1/2 171/1/2
f 165/1/2 166/1/2 171/1/2
f 168/2/2 169/2/2 172/2/2
f 171/1/2 168/1/2 172/1/2
f 169/1/2 112/1/2 173/1/2
f 172/2/2 169/2/2 173/2/2
f 112/1/2 107/1/2 174/1/2
f 173/1/2 112/1/2 174/1/2
f 103/3/2 108/3/2 175/3/2
f 108/3/2 170/3/2 175/3/2
f 171/1/2 172/1/2 176/1/2
f 175/3/2 170/3/2 176/3/2
f 172/1/2 173/1/2 176/1/2
f 170/1/2 171/1/2 176/1/2
f 173/2/2 174/2/2 177/2/2
f 176/1/2 173/1/2 177/1/2
f 174/1/2 107/1/2 178/1/2
f 177/2/2 174/2/2 178/2/2
f 107/1/2 102/1/2 179/1/2
f 178/1/2 107/1/2 179/1/2
f 176/1/2 177/1/2 180/1/2
f 177/1/2 178/1/2 180/1/2
f 103/3/2 175/3/2 180/3/2
f 175/1/2 176/1/2 180/1/2
f 178/2/2 179/2/2 181/2/2
f 180/1/2 178/1/2 181/1/2
f 179/1/2 102/1/2 182/1/2
f 181/2/2 179/2/2 182/2/2
f 182/1/2 102/1/2 183/1/2
f 180/3/2 181/3/2 184/3/2
f 98/3/2 103/3/2 184/3/2
f 103/3/2 180/3/2 184/3/2
f 181/3/2 182/3/2 184/3/2
f 182/2/2 183/2/2 185/2/2
f 184/3/2 182/3/2 185/3/2
f 185/2/2 183/2/2 186/2/2
f 191/3/3 188/3/3 187/3/3
f 191/1/3 189/1/3 188/1/3
f 192/1/3 189/1/3 191/1/3
f 193/1/3 189/1/3 192/1/3
f 194/2/3 190/2/3 189/2/3
f 194/1/3 189/1/3 193/1/3
f 195/2/3 190/2/3 194/2/3
f 196/1/3 193/1/3 192/1/3
f 196/3/3 192/3/3 191/3/3
f 197/1/3 193/1/3 196/1/3
f 198/1/3 193/1/3 197/1/3
f 199/2/3 194/2/3 193/2/3
f 199/1/3 193/1/3 198/1/3
f 200/1/3 195/1/3 194/1/3
f 200/2/3 194/2/3 199/2/3
f 201/1/3 198/1/3 197/1/3
f 201/3/3 197/3/3 196/3/3
f 202/1/3 198/1/3 201/1/3
f 203/1/3 198/1/3 202/1/3
f 204/2/3 199/2/3 198/2/3
f 204/1/3 198/1/3 203/1/3
f 205/1/3 200/1/3 199/1/3
f 205/2/3 199/2/3 204/2/3
f 206/1/3 203/1/3 202/1/3
f 206/3/3 202/3/3 201/3/3
f 207/1/3 203/1/3 206/1/3
f 208/1/3 203/1/3 207/1/3
f 209/2/3 204/2/3 203/2/3
f 209/1/3 203/1/3 208/1/3
f 210/1/3 205/1/3 204/1/3
f 210/2/3 204/2/3 209/2/3
f 211/1/3 208/1/3 207/1/3
f 211/3/3 207/3/3 206/3/3
f 212/1/3 208/1/3 211/1/3
f 213/1/3 208/1/3 212/1/3
f 214/2/3 209/2/3 208/2/3
f 214/1/3 208/1/3 213/1/3
f 215/1/3 210/1/3 209/1/3
f 215/2/3 209/2/3 214/2/3
f 216/1/3 213/1/3 212/1/3
f 216/3/3 212/3/3 211/3/3
f 217/1/3 213/1/3 216/1/3
f 218/1/3 213/1/3 217/1/3
f 219/2/3 214/2/3 213/2/3
f 219/1/3 213/1/3 218/1/3
f 220/1/3 215/1/3 214/1/3
f 220/2/3 214/2/3 219/2/3
f 221/1/3 218/1/3 217/1/3
f 221/3/3 217/3/3 216/3/3
f 222/1/3 218/1/3 221/1/3
f 223/1/3 218/1/3 222/1/3
f 224/2/3 219/2/3 218/2/3
f 224/1/3 218/1/3 223/1/3
f 225/1/3 220/1/3 219/1/3
f 225/2/3 219/2/3 224/2/3
f 226/1/3 223/1/3 222/1/3
f 226/3/3 222/3/3 221/3/3
f 227/1/3 223/1/3 226/1/3
f 228/1/3 223/1/3 227/1/3
f 229/2/3 224/2/3 223/2/3
f 229/1/3 223/1/3 228/1/3
f 230/1/3 225/1/3 224/1/3
f 230/2/3 224/2/3 229/2/3
f 231/1/3 228/1/3 227/1/3
f 231/3/3 227/3/3 226/3/3
f 232/2/3 229/2/3 228/2/3
f 232/1/3 228/1/3 231/1/3
f 233/1/3 230/1/3 229/1/3
f 233/2/3 229/2/3 232/2/3
f 234/3/3 231/3/3 226/3/3
f 234/3/3 226/3/3 221/3/3
f 235/2/3 232/2/3 231/2/3
f 235/3/3 231/3/3 234/3/3
f 236/1/3 233/1/3 232/1/3
f 236/2/3 232/2/3 235/2/3
f 237/1/3 230/1/3 233/1/3
f 237/1/3 233/1/3 236/1/3
f 238/3/3 221/3/3 216/3/3
f 238/3/3 234/3/3 221/3/3
f 239/2/3 235/2/3 234/2/3
f 239/3/3 234/3/3 238/3/3
f 240/3/3 236/3/3 235/3/3
f 240/2/3 235/2/3 239/2/3
f 240/3/3 237/3/3 236/3/3
f 241/1/3 230/1/3 237/1/3
f 241/3/3 237/3/3 240/3/3
f 242/1/3 225/1/3 230/1/3
f 242/1/3 230/1/3 241/1/3
f 243/3/3 216/3/3 211/3/3
f 243/3/3 238/3/3 216/3/3
f 244/2/3 239/2/3 238/2/3
f 244/3/3 238/3/3 243/3/3
f 245/3/3 241/3/3 240/3/3
f 245/2/3 239/2/3 244/2/3
f 245/3/3 240/3/3 239/3/3
f 245/3/3 242/3/3 241/3/3
f 246/1/3 225/1/3 242/1/3
f 246/3/3 242/3/3 245/3/3
f 247/1/3 220/1/3 225/1/3
f 247/1/3 225/1/3 246/1/3
f 248/3/3 211/3/3 206/3/3
f 248/3/3 243/3/3 211/3/3
f 249/2/3 244/2/3 243/2/3
f 249/3/3 243/3/3 248/3/3
f 250/3/3 246/3/3 245/3/3
f 250/2/3 244/2/3 249/2/3
f 250/3/3 245/3/3 244/3/3
f 250/3/3 247/3/3 246/3/3
f 251/1/3 220/1/3 247/1/3
f 251/3/3 247/3/3 250/3/3
f 252/1/3 215/1/3 220/1/3
f 252/1/3 220/1/3 251/1/3
f 253/3/3 206/3/3 201/3/3
f 253/3/3 248/3/3 206/3/3
f 254/2/3 249/2/3 248/2/3
f 254/3/3 248/3/3 253/3/3
f 255/3/3 251/3/3 250/3/3
f 255/2/3 249/2/3 254/2/3
f 255/3/3 250/3/3 249/3/3
f 255/3/3 252/3/3 251/3/3
f 256/1/3 215/1/3 252/1/3
f 256/3/3 252/3/3 255/3/3
f 257/1/3 210/1/3 215/1/3
f 257/1/3 215/1/3 256/1/3
f 258/3/3 201/3/3 196/3/3
f 258/3/3 253/3/3 201/3/3
f 259/2/3 254/2/3 253/2/3
f 259/3/3 253/3/3 258/3/3
f 260/3/3 256/3/3 255/3/3
f 260/2/3 254/2/3 259/2/3
f 260/3/3 255/3/3 254/3/3
f 260/3/3 257/3/3 256/3/3
f 261/1/3 210/1/3 257/1/3
f 261/3/3 257/3/3 260/3/3
f 262/1/3 205/1/3 210/1/3
f 262/1/3 210/1/3 261/1/3
f 263/3/3 196/3/3 191/3/3
f 263/3/3 258/3/3 196/3/3
f 264/2/3 259/2/3 258/2/3
f 264/3/3 258/3/3 263/3/3
f 265/3/3 261/3/3 260/3/3
f 265/2/3 259/2/3 264/2/3
f 265/3/3 260/3/3 259/3/3
f 265/3/3 262/3/3 261/3/3
f 266/1/3 205/1/3 262/1/3
f 266/3/3 262/3/3 265/3/3
f 267/1/3 200/1/3 205/1/3
f 267/1/3 205/1/3 266/1/3
f 268/3/3 191/3/3 187/3/3
f 268/3/3 263/3/3 191/3/3
f 269/2/3 264/2/3 263/2/3
f 269/3/3 263/3/3 268/3/3
f 270/3/3 266/3/3 265/3/3
f 270/2/3 264/2/3 269/2/3
f 270/3/3 265/3/3 264/3/3
f 270/3/3 267/3/3 266/3/3
f 271/1/3 200/1/3 267/1/3
f 271/3/3 267/3/3 270/3/3
f 272/1/3 195/1/3 200/1/3
f 272/1/3 200/1/3 271/1/3
f 273/3/3 268/3/3 187/3/3
f 274/2/3 269/2/3 268/2/3
f 274/3/3 268/3/3 273/3/3
f 275/3/3 270/3/3 269/3/3
f 275/2/3 269/2/3 274/2/3
f 275/3/3 271/3/3 270/3/3
f 275/3/3 272/3/3 271/3/3
f 276/1/3 195/1/3 272/1/3
f 276/3/3 272/3/3 275/3/3
f 277/1/3 195/1/3 276/1/3
f 278/2/3 274/2/3 273/2/3
f 279/3/3 275/3/3 274/3/3
f 279/2/3 274/2/3 278/2/3
f 279/3/3 276/3/3 275/3/3
f 279/3/3 277/3/3 276/3/3
f 280/3/3 277/3/3 279/3/3
f 281/2/4 282/2/4 284/2/4
f 282/3/4 283/3/4 284/3/4
f 284/3/4 283/3/4 285/3/4
f 281/2/4 284/2/4 286/2/4
f 284/2/4 285/2/4 286/2/4
f 286/2/4 285/2/4 287/2/4
f 285/3/4 283/3/4 288/3/4
f 287/2/4 285/2/4 288/2/4
f 288/3/4 283/3/4 289/3/4
f 286/3/4 287/3/4 290/3/4
f 287/1/4 288/1/4 291/1/4
f 290/3/4 287/3/4 291/3/4
f 288/2/4 289/2/4 292/2/4
f 291/1/4 288/1/4 292/1/4
f 292/2/4 289/2/4 293/2/4
f 297/3/5 295/3/5 294/3/5
f 298/3/5 295/3/5 297/3/5
f 299/2/5 296/2/5 295/2/5
f 299/3/5 295/3/5 298/3/5
f 300/2/5 296/2/5 299/2/5
f 301/2/5 298/2/5 297/2/5
f 301/3/5 299/3/5 298/3/5
f 301/3/5 300/3/5 299/3/5
f 302/3/5 300/3/5 301/3/5
f 303/3/5 297/3/5 294/3/5
f 304/2/5 301/2/5 297/2/5
f 304/3/5 297/3/5 303/3/5
f 304/2/5 302/2/5 301/2/5
f 305/2/5 304/2/5 303/2/5
f 306/3/5 300/3/5 302/3/5
f 306/2/5 304/2/5 305/2/5
f 306/2/5 302/2/5 304/2/5
f 307/3/5 300/3/5 306/3/5
f 308/2/6 309/2/6 312/2/6
f 309/1/6 310/1/6 313/1/6
f 312/2/6 309/2/6 313/2/6
f 313/1/6 310/1/6 314/1/6
f 314/1/6 310/1/6 315/1/6
f 310/3/6 311/3/6 316/3/6
f 315/1/6 310/1/6 316/1/6
f 312/1/6 313/1/6 317/1/6
f 313/2/6 314/2/6 317/2/6
f 314/1/6 315/1/6 318/1/6
f 317/2/6 314/2/6 318/2/6
f 318/1/6 315/1/6 319/1/6
f 319/1/6 315/1/6 320/1/6
f 315/3/6 316/3/6 321/3/6
f 320/1/6 315/1/6 321/1/6
f 317/1/6 318/1/6 322/1/6
f 318/2/6 319/2/6 322/2/6
f 319/1/6 320/1/6 323/1/6
f 322/2/6 319/2/6 323/2/6
f 323/1/6 320/1/6 324/1/6
f 324/1/6 320/1/6 325/1/6
f 320/3/6 321/3/6 326/3/6
f 325/1/6 320/1/6 326/1/6
f 322/1/6 323/1/6 327/1/6
f 323/2/6 324/2/6 327/2/6
f 324/1/6 325/1/6 328/1/6
f 327/2/6 324/2/6 328/2/6
f 328/1/6 325/1/6 329/1/6
f 329/1/6 325/1/6 330/1/6
f 325/3/6 326/3/6 331/3/6
f 330/1/6 325/1/6 331/1/6
f 327/1/6 328/1/6 332/1/6
f 328/2/6 329/2/6 332/2/6
f 329/1/6 330/1/6 333/1/6
f 332/2/6 329/2/6 333/2/6
f 333/1/6 330/1/6 334/1/6
f 334/1/6 330/1/6 335/1/6
f 330/3/6 331/3/6 336/3/6
f 335/1/6 330/1/6 336/1/6
f 332/1/6 333/1/6 337/1/6
f 333/2/6 334/2/6 337/2/6
f 334/1/6 335/1/6 338/1/6
f 337/2/6 334/2/6 338/2/6
f 338/1/6 335/1/6 339/1/6
f 339/1/6 335/1/6 340/1/6
f 335/3/6 336/3/6 341/3/6
f 340/1/6 335/1/6 341/1/6
f 337/1/6 338/1/6 342/1/6
f 338/2/6 339/2/6 342/2/6
f 339/1/6 340/1/6 343/1/6
f 342/2/6 339/2/6 343/2/6
f 343/1/6 340/1/6 344/1/6
f 344/1/6 340/1/6 345/1/6
f 340/3/6 341/3/6 346/3/6
f 345/1/6 340/1/6 346/1/6
f 342/1/6 343/1/6 347/1/6
f 343/2/6 344/2/6 347/2/6
f 344/1/6 345/1/6 348/1/6
f 347/2/6 344/2/6 348/2/6
f 348/1/6 345/1/6 349/1/6
f 349/1/6 345/1/6 350/1/6
f 345/3/6 346/3/6 351/3/6
f 350/1/6 345/1/6 351/1/6
f 347/1/6 348/1/6 352/1/6
f 348/2/6 349/2/6 352/2/6
f 349/1/6 350/1/6 353/1/6
f 352/2/6 349/2/6 353/2/6
f 350/3/6 351/3/6 354/3/6
f 353/1/6 350/1/6 354/1/6
f 347/1/6 352/1/6 355/1/6
f 352/1/6 353/1/6 355/1/6
f 353/2/6 354/2/6 356/2/6
f 355/1/6 353/1/6 356/1/6
f 354/3/6 351/3/6 357/3/6
f 356/2/6 354/2/6 357/2/6
f 351/3/6 346/3/6 358/3/6
f 357/3/6 351/3/6 358/3/6
f 342/1/6 347/1/6 359/1/6
f 347/1/6 355/1/6 359/1/6
f 355/3/6 356/3/6 360/3/6
f 359/1/6 355/1/6 360/1/6
f 356/3/6 357/3/6 360/3/6
f 357/2/6 358/2/6 361/2/6
f 360/3/6 357/3/6 361/3/6
f 358/3/6 346/3/6 362/3/6
f 361/2/6 358/2/6 362/2/6
f 346/3/6 341/3/6 363/3/6
f 362/3/6 346/3/6 363/3/6
f 337/1/6 342/1/6 364/1/6
f 342/1/6 359/1/6 364/1/6
f 360/3/6 361/3/6 365/3/6
f 364/1/6 359/1/6 365/1/6
f 361/3/6 362/3/6 365/3/6
f 359/3/6 360/3/6 365/3/6
f 362/2/6 363/2/6 366/2/6
f 365/3/6 362/3/6 366/3/6
f 363/3/6 341/3/6 367/3/6
f 366/2/6 363/2/6 367/2/6
f 341/3/6 336/3/6 368/3/6
f 367/3/6 341/3/6 368/3/6
f 332/1/6 337/1/6 369/1/6
f 337/1/6 364/1/6 369/1/6
f 365/3/6 366/3/6 370/3/6
f 369/1/6 364/1/6 370/1/6
f 366/3/6 367/3/6 370/3/6
f 364/3/6 365/3/6 370/3/6
f 367/2/6 368/2/6 371/2/6
f 370/3/6 367/3/6 371/3/6
f 368/3/6 336/3/6 372/3/6
f 371/2/6 368/2/6 372/2/6
f 336/3/6 331/3/6 373/3/6
f 372/3/6 336/3/6 373/3/6
f 327/1/6 332/1/6 374/1/6
f 332/1/6 369/1/6 374/1/6
f 370/3/6 371/3/6 375/3/6
f 374/1/6 369/1/6 375/1/6
f 371/3/6 372/3/6 375/3/6
f 369/3/6 370/3/6 375/3/6
f 372/2/6 373/2/6 376/2/6
f 375/3/6 372/3/6 376/3/6
f 373/3/6 331/3/6 377/3/6
f 376/2/6 373/2/6 377/2/6
f 331/3/6 326/3/6 378/3/6
f 377/3/6 331/3/6 378/3/6
f 322/1/6 327/1/6 379/1/6
f 327/1/6 374/1/6 379/1/6
f 375/3/6 376/3/6 380/3/6
f 379/1/6 374/1/6 380/1/6
f 376/3/6 377/3/6 380/3/6
f 374/3/6 375/3/6 380/3/6
f 377/2/6 378/2/6 381/2/6
f 380/3/6 377/3/6 381/3/6
f 378/3/6 326/3/6 382/3/6
f 381/2/6 378/2/6 382/2/6
f 326/3/6 321/3/6 383/3/6
f 382/3/6 326/3/6 383/3/6
f 317/1/6 322/1/6 384/1/6
f 322/1/6 379/1/6 384/1/6
f 380/3/6 381/3/6 385/3/6
f 384/1/6 379/1/6 385/1/6
f 381/3/6 382/3/6 385/3/6
f 379/3/6 380/3/6 385/3/6
f 382/2/6 383/2/6 386/2/6
f 385/3/6 382/3/6 386/3/6
f 383/3/6 321/3/6 387/3/6
f 386/2/6 383/2/6 387/2/6
f 321/3/6 316/3/6 388/3/6
f 387/3/6 321/3/6 388/3/6
f 312/1/6 317/1/6 389/1/6
f 317/1/6 384/1/6 389/1/6
f 385/3/6 386/3/6 390/3/6
f 389/1/6 384/1/6 390/1/6
f 386/3/6 387/3/6 390/3/6
f 384/3/6 385/3/6 390/3/6
f 387/2/6 388/2/6 391/2/6
f 390/3/6 387/3/6 391/3/6
f 388/3/6 316/3/6 392/3/6
f 391/2/6 388/2/6 392/2/6
f 316/3/6 311/3/6 393/3/6
f 392/3/6 316/3/6 393/3/6
f 312/1/6 389/1/6 394/1/6
f 390/3/6 391/3/6 395/3/6
f 394/1/6 389/1/6 395/1/6
f 391/3/6 392/3/6 395/3/6
f 389/3/6 390/3/6 395/3/6
f 392/2/6 393/2/6 396/2/6
f 395/3/6 392/3/6 396/3/6
f 393/3/6 311/3/6 397/3/6
f 396/2/6 393/2/6 397/2/6
f 397/3/6 311/3/6 398/3/6
f 394/3/6 395/3/6 399/3/6
f 395/3/6 396/3/6 399/3/6
f 396/3/6 397/3/6 399/3/6
f 397/2/6 398/2/6 400/2/6
f 399/3/6 397/3/6 400/3/6
f 400/2/6 398/2/6 401/2/6
