# MagicaVoxel @ Ephtracy

# group
o 

# material
mtllib bridge.mtl
usemtl palette

# normals
vn -1 0 0
vn 1 0 0
vn 0 0 1
vn 0 0 -1
vn 0 -1 0
vn 0 1 0

# texcoords
vt 0.857422 0.5
vt 0.865234 0.5
vt 0.958984 0.5
vt 0.978516 0.5

# verts
v 0 1.3 -0.2
v 0 1.3 -3.4
v 0 2.5 -0.2
v 0 2.5 -3.4
v 0.2 0.4 0
v 0.2 0.4 -0.3
v 0.2 0.4 -3.3
v 0.2 0.4 -3.6
v 0.2 1 0
v 0.2 1 -0.3
v 0.2 1 -3.3
v 0.2 1 -3.6
v 0.2 2.8 0
v 0.2 2.8 -0.3
v 0.2 2.8 -3.3
v 0.2 2.8 -3.6
v 0.2 3.4 0
v 0.2 3.4 -0.3
v 0.2 3.4 -3.3
v 0.2 3.4 -3.6
v 0.3 1 -0.1
v 0.3 1 -0.2
v 0.3 1 -3.4
v 0.3 1 -3.5
v 0.3 1.3 -0.2
v 0.3 1.3 -3.4
v 0.3 2.5 -0.2
v 0.3 2.5 -3.4
v 0.3 2.8 -0.1
v 0.3 2.8 -0.2
v 0.3 2.8 -3.4
v 0.3 2.8 -3.5
v 1.1 0.4 0
v 1.1 0.4 -0.3
v 1.1 0.4 -3.3
v 1.1 0.4 -3.6
v 1.1 1 0
v 1.1 1 -0.3
v 1.1 1 -3.3
v 1.1 1 -3.6
v 1.1 2.8 0
v 1.1 2.8 -0.3
v 1.1 2.8 -3.3
v 1.1 2.8 -3.6
v 1.1 3.4 0
v 1.1 3.4 -0.3
v 1.1 3.4 -3.3
v 1.1 3.4 -3.6
v 1.2 1 -0.1
v 1.2 1 -0.2
v 1.2 1 -3.4
v 1.2 1 -3.5
v 1.2 1.3 -0.2
v 1.2 1.3 -3.4
v 1.2 2.5 -0.2
v 1.2 2.5 -3.4
v 1.2 2.8 -0.1
v 1.2 2.8 -0.2
v 1.2 2.8 -3.4
v 1.2 2.8 -3.5
v 2 0.4 0
v 2 0.4 -0.3
v 2 0.4 -3.3
v 2 0.4 -3.6
v 2 1 0
v 2 1 -0.3
v 2 1 -3.3
v 2 1 -3.6
v 2 2.8 0
v 2 2.8 -0.3
v 2 2.8 -3.3
v 2 2.8 -3.6
v 2 3.4 0
v 2 3.4 -0.3
v 2 3.4 -3.3
v 2 3.4 -3.6
v 2.1 1 -0.1
v 2.1 1 -0.2
v 2.1 1 -3.4
v 2.1 1 -3.5
v 2.1 1.3 -0.2
v 2.1 1.3 -3.4
v 2.1 2.5 -0.2
v 2.1 2.5 -3.4
v 2.1 2.8 -0.1
v 2.1 2.8 -0.2
v 2.1 2.8 -3.4
v 2.1 2.8 -3.5
v 2.9 0.4 0
v 2.9 0.4 -0.3
v 2.9 0.4 -3.3
v 2.9 0.4 -3.6
v 2.9 1 0
v 2.9 1 -0.3
v 2.9 1 -3.3
v 2.9 1 -3.6
v 2.9 2.8 0
v 2.9 2.8 -0.3
v 2.9 2.8 -3.3
v 2.9 2.8 -3.6
v 2.9 3.4 0
v 2.9 3.4 -0.3
v 2.9 3.4 -3.3
v 2.9 3.4 -3.6
v 3 1 -0.1
v 3 1 -0.2
v 3 1 -3.4
v 3 1 -3.5
v 3 1.3 -0.2
v 3 1.3 -3.4
v 3 2.5 -0.2
v 3 2.5 -3.4
v 3 2.8 -0.1
v 3 2.8 -0.2
v 3 2.8 -3.4
v 3 2.8 -3.5
v 0.7 1 -0.1
v 0.7 1 -0.2
v 0.7 1 -3.4
v 0.7 1 -3.5
v 0.7 1.3 -0.2
v 0.7 1.3 -3.4
v 0.7 2.5 -0.2
v 0.7 2.5 -3.4
v 0.7 2.8 -0.1
v 0.7 2.8 -0.2
v 0.7 2.8 -3.4
v 0.7 2.8 -3.5
v 0.8 0.4 0
v 0.8 0.4 -0.3
v 0.8 0.4 -3.3
v 0.8 0.4 -3.6
v 0.8 1 0
v 0.8 1 -0.3
v 0.8 1 -3.3
v 0.8 1 -3.6
v 0.8 2.8 0
v 0.8 2.8 -0.3
v 0.8 2.8 -3.3
v 0.8 2.8 -3.6
v 0.8 3.4 0
v 0.8 3.4 -0.3
v 0.8 3.4 -3.3
v 0.8 3.4 -3.6
v 1.6 1 -0.1
v 1.6 1 -0.2
v 1.6 1 -3.4
v 1.6 1 -3.5
v 1.6 1.3 -0.2
v 1.6 1.3 -3.4
v 1.6 2.5 -0.2
v 1.6 2.5 -3.4
v 1.6 2.8 -0.1
v 1.6 2.8 -0.2
v 1.6 2.8 -3.4
v 1.6 2.8 -3.5
v 1.7 0.4 0
v 1.7 0.4 -0.3
v 1.7 0.4 -3.3
v 1.7 0.4 -3.6
v 1.7 1 0
v 1.7 1 -0.3
v 1.7 1 -3.3
v 1.7 1 -3.6
v 1.7 2.8 0
v 1.7 2.8 -0.3
v 1.7 2.8 -3.3
v 1.7 2.8 -3.6
v 1.7 3.4 0
v 1.7 3.4 -0.3
v 1.7 3.4 -3.3
v 1.7 3.4 -3.6
v 2.5 1 -0.1
v 2.5 1 -0.2
v 2.5 1 -3.4
v 2.5 1 -3.5
v 2.5 1.3 -0.2
v 2.5 1.3 -3.4
v 2.5 2.5 -0.2
v 2.5 2.5 -3.4
v 2.5 2.8 -0.1
v 2.5 2.8 -0.2
v 2.5 2.8 -3.4
v 2.5 2.8 -3.5
v 2.6 0.4 0
v 2.6 0.4 -0.3
v 2.6 0.4 -3.3
v 2.6 0.4 -3.6
v 2.6 1 0
v 2.6 1 -0.3
v 2.6 1 -3.3
v 2.6 1 -3.6
v 2.6 2.8 0
v 2.6 2.8 -0.3
v 2.6 2.8 -3.3
v 2.6 2.8 -3.6
v 2.6 3.4 0
v 2.6 3.4 -0.3
v 2.6 3.4 -3.3
v 2.6 3.4 -3.6
v 3.4 1 -0.1
v 3.4 1 -0.2
v 3.4 1 -3.4
v 3.4 1 -3.5
v 3.4 1.3 -0.2
v 3.4 1.3 -3.4
v 3.4 2.5 -0.2
v 3.4 2.5 -3.4
v 3.4 2.8 -0.1
v 3.4 2.8 -0.2
v 3.4 2.8 -3.4
v 3.4 2.8 -3.5
v 3.5 0.4 0
v 3.5 0.4 -0.3
v 3.5 0.4 -3.3
v 3.5 0.4 -3.6
v 3.5 1 0
v 3.5 1 -0.3
v 3.5 1 -3.3
v 3.5 1 -3.6
v 3.5 2.8 0
v 3.5 2.8 -0.3
v 3.5 2.8 -3.3
v 3.5 2.8 -3.6
v 3.5 3.4 0
v 3.5 3.4 -0.3
v 3.5 3.4 -3.3
v 3.5 3.4 -3.6
v 3.6 1.3 -0.2
v 3.6 1.3 -3.4
v 3.6 2.5 -0.2
v 3.6 2.5 -3.4
v 0.2 0.4 0
v 0.2 1 0
v 0.2 2.8 0
v 0.2 3.4 0
v 0.8 0.4 0
v 0.8 1 0
v 0.8 2.8 0
v 0.8 3.4 0
v 1.1 0.4 0
v 1.1 1 0
v 1.1 2.8 0
v 1.1 3.4 0
v 1.7 0.4 0
v 1.7 1 0
v 1.7 2.8 0
v 1.7 3.4 0
v 2 0.4 0
v 2 1 0
v 2 2.8 0
v 2 3.4 0
v 2.6 0.4 0
v 2.6 1 0
v 2.6 2.8 0
v 2.6 3.4 0
v 2.9 0.4 0
v 2.9 1 0
v 2.9 2.8 0
v 2.9 3.4 0
v 3.5 0.4 0
v 3.5 1 0
v 3.5 2.8 0
v 3.5 3.4 0
v 0.3 1 -0.1
v 0.3 2.8 -0.1
v 0.7 1 -0.1
v 0.7 2.8 -0.1
v 1.2 1 -0.1
v 1.2 2.8 -0.1
v 1.6 1 -0.1
v 1.6 2.8 -0.1
v 2.1 1 -0.1
v 2.1 2.8 -0.1
v 2.5 1 -0.1
v 2.5 2.8 -0.1
v 3 1 -0.1
v 3 2.8 -0.1
v 3.4 1 -0.1
v 3.4 2.8 -0.1
v 0 1.3 -0.2
v 0 2.5 -0.2
v 0.3 1.3 -0.2
v 0.3 2.5 -0.2
v 0.7 1.3 -0.2
v 0.7 2.5 -0.2
v 1.2 1.3 -0.2
v 1.2 2.5 -0.2
v 1.6 1.3 -0.2
v 1.6 2.5 -0.2
v 2.1 1.3 -0.2
v 2.1 2.5 -0.2
v 2.5 1.3 -0.2
v 2.5 2.5 -0.2
v 3 1.3 -0.2
v 3 2.5 -0.2
v 3.4 1.3 -0.2
v 3.4 2.5 -0.2
v 3.6 1.3 -0.2
v 3.6 2.5 -0.2
v 0.2 0.4 -3.3
v 0.2 1 -3.3
v 0.2 2.8 -3.3
v 0.2 3.4 -3.3
v 0.8 0.4 -3.3
v 0.8 1 -3.3
v 0.8 2.8 -3.3
v 0.8 3.4 -3.3
v 1.1 0.4 -3.3
v 1.1 1 -3.3
v 1.1 2.8 -3.3
v 1.1 3.4 -3.3
v 1.7 0.4 -3.3
v 1.7 1 -3.3
v 1.7 2.8 -3.3
v 1.7 3.4 -3.3
v 2 0.4 -3.3
v 2 1 -3.3
v 2 2.8 -3.3
v 2 3.4 -3.3
v 2.6 0.4 -3.3
v 2.6 1 -3.3
v 2.6 2.8 -3.3
v 2.6 3.4 -3.3
v 2.9 0.4 -3.3
v 2.9 1 -3.3
v 2.9 2.8 -3.3
v 2.9 3.4 -3.3
v 3.5 0.4 -3.3
v 3.5 1 -3.3
v 3.5 2.8 -3.3
v 3.5 3.4 -3.3
v 0.3 1 -3.4
v 0.3 1.3 -3.4
v 0.3 2.5 -3.4
v 0.3 2.8 -3.4
v 0.7 1 -3.4
v 0.7 1.3 -3.4
v 0.7 2.5 -3.4
v 0.7 2.8 -3.4
v 1.2 1 -3.4
v 1.2 1.3 -3.4
v 1.2 2.5 -3.4
v 1.2 2.8 -3.4
v 1.6 1 -3.4
v 1.6 1.3 -3.4
v 1.6 2.5 -3.4
v 1.6 2.8 -3.4
v 2.1 1 -3.4
v 2.1 1.3 -3.4
v 2.1 2.5 -3.4
v 2.1 2.8 -3.4
v 2.5 1 -3.4
v 2.5 1.3 -3.4
v 2.5 2.5 -3.4
v 2.5 2.8 -3.4
v 3 1 -3.4
v 3 1.3 -3.4
v 3 2.5 -3.4
v 3 2.8 -3.4
v 3.4 1 -3.4
v 3.4 1.3 -3.4
v 3.4 2.5 -3.4
v 3.4 2.8 -3.4
v 0.3 1 -0.2
v 0.3 1.3 -0.2
v 0.3 2.5 -0.2
v 0.3 2.8 -0.2
v 0.7 1 -0.2
v 0.7 1.3 -0.2
v 0.7 2.5 -0.2
v 0.7 2.8 -0.2
v 1.2 1 -0.2
v 1.2 1.3 -0.2
v 1.2 2.5 -0.2
v 1.2 2.8 -0.2
v 1.6 1 -0.2
v 1.6 1.3 -0.2
v 1.6 2.5 -0.2
v 1.6 2.8 -0.2
v 2.1 1 -0.2
v 2.1 1.3 -0.2
v 2.1 2.5 -0.2
v 2.1 2.8 -0.2
v 2.5 1 -0.2
v 2.5 1.3 -0.2
v 2.5 2.5 -0.2
v 2.5 2.8 -0.2
v 3 1 -0.2
v 3 1.3 -0.2
v 3 2.5 -0.2
v 3 2.8 -0.2
v 3.4 1 -0.2
v 3.4 1.3 -0.2
v 3.4 2.5 -0.2
v 3.4 2.8 -0.2
v 0.2 0.4 -0.3
v 0.2 1 -0.3
v 0.2 2.8 -0.3
v 0.2 3.4 -0.3
v 0.8 0.4 -0.3
v 0.8 1 -0.3
v 0.8 2.8 -0.3
v 0.8 3.4 -0.3
v 1.1 0.4 -0.3
v 1.1 1 -0.3
v 1.1 2.8 -0.3
v 1.1 3.4 -0.3
v 1.7 0.4 -0.3
v 1.7 1 -0.3
v 1.7 2.8 -0.3
v 1.7 3.4 -0.3
v 2 0.4 -0.3
v 2 1 -0.3
v 2 2.8 -0.3
v 2 3.4 -0.3
v 2.6 0.4 -0.3
v 2.6 1 -0.3
v 2.6 2.8 -0.3
v 2.6 3.4 -0.3
v 2.9 0.4 -0.3
v 2.9 1 -0.3
v 2.9 2.8 -0.3
v 2.9 3.4 -0.3
v 3.5 0.4 -0.3
v 3.5 1 -0.3
v 3.5 2.8 -0.3
v 3.5 3.4 -0.3
v 0 1.3 -3.4
v 0 2.5 -3.4
v 0.3 1.3 -3.4
v 0.3 2.5 -3.4
v 0.7 1.3 -3.4
v 0.7 2.5 -3.4
v 1.2 1.3 -3.4
v 1.2 2.5 -3.4
v 1.6 1.3 -3.4
v 1.6 2.5 -3.4
v 2.1 1.3 -3.4
v 2.1 2.5 -3.4
v 2.5 1.3 -3.4
v 2.5 2.5 -3.4
v 3 1.3 -3.4
v 3 2.5 -3.4
v 3.4 1.3 -3.4
v 3.4 2.5 -3.4
v 3.6 1.3 -3.4
v 3.6 2.5 -3.4
v 0.3 1 -3.5
v 0.3 2.8 -3.5
v 0.7 1 -3.5
v 0.7 2.8 -3.5
v 1.2 1 -3.5
v 1.2 2.8 -3.5
v 1.6 1 -3.5
v 1.6 2.8 -3.5
v 2.1 1 -3.5
v 2.1 2.8 -3.5
v 2.5 1 -3.5
v 2.5 2.8 -3.5
v 3 1 -3.5
v 3 2.8 -3.5
v 3.4 1 -3.5
v 3.4 2.8 -3.5
v 0.2 0.4 -3.6
v 0.2 1 -3.6
v 0.2 2.8 -3.6
v 0.2 3.4 -3.6
v 0.8 0.4 -3.6
v 0.8 1 -3.6
v 0.8 2.8 -3.6
v 0.8 3.4 -3.6
v 1.1 0.4 -3.6
v 1.1 1 -3.6
v 1.1 2.8 -3.6
v 1.1 3.4 -3.6
v 1.7 0.4 -3.6
v 1.7 1 -3.6
v 1.7 2.8 -3.6
v 1.7 3.4 -3.6
v 2 0.4 -3.6
v 2 1 -3.6
v 2 2.8 -3.6
v 2 3.4 -3.6
v 2.6 0.4 -3.6
v 2.6 1 -3.6
v 2.6 2.8 -3.6
v 2.6 3.4 -3.6
v 2.9 0.4 -3.6
v 2.9 1 -3.6
v 2.9 2.8 -3.6
v 2.9 3.4 -3.6
v 3.5 0.4 -3.6
v 3.5 1 -3.6
v 3.5 2.8 -3.6
v 3.5 3.4 -3.6
v 0.2 0.4 0
v 0.8 0.4 0
v 1.1 0.4 0
v 1.7 0.4 0
v 2 0.4 0
v 2.6 0.4 0
v 2.9 0.4 0
v 3.5 0.4 0
v 0.2 0.4 -0.3
v 0.8 0.4 -0.3
v 1.1 0.4 -0.3
v 1.7 0.4 -0.3
v 2 0.4 -0.3
v 2.6 0.4 -0.3
v 2.9 0.4 -0.3
v 3.5 0.4 -0.3
v 0.2 0.4 -3.3
v 0.8 0.4 -3.3
v 1.1 0.4 -3.3
v 1.7 0.4 -3.3
v 2 0.4 -3.3
v 2.6 0.4 -3.3
v 2.9 0.4 -3.3
v 3.5 0.4 -3.3
v 0.2 0.4 -3.6
v 0.8 0.4 -3.6
v 1.1 0.4 -3.6
v 1.7 0.4 -3.6
v 2 0.4 -3.6
v 2.6 0.4 -3.6
v 2.9 0.4 -3.6
v 3.5 0.4 -3.6
v 0 1.3 -0.2
v 0.3 1.3 -0.2
v 0.7 1.3 -0.2
v 1.2 1.3 -0.2
v 1.6 1.3 -0.2
v 2.1 1.3 -0.2
v 2.5 1.3 -0.2
v 3 1.3 -0.2
v 3.4 1.3 -0.2
v 3.6 1.3 -0.2
v 0 1.3 -3.4
v 0.3 1.3 -3.4
v 0.7 1.3 -3.4
v 1.2 1.3 -3.4
v 1.6 1.3 -3.4
v 2.1 1.3 -3.4
v 2.5 1.3 -3.4
v 3 1.3 -3.4
v 3.4 1.3 -3.4
v 3.6 1.3 -3.4
v 0.2 2.8 0
v 0.8 2.8 0
v 1.1 2.8 0
v 1.7 2.8 0
v 2 2.8 0
v 2.6 2.8 0
v 2.9 2.8 0
v 3.5 2.8 0
v 0.3 2.8 -0.1
v 0.7 2.8 -0.1
v 1.2 2.8 -0.1
v 1.6 2.8 -0.1
v 2.1 2.8 -0.1
v 2.5 2.8 -0.1
v 3 2.8 -0.1
v 3.4 2.8 -0.1
v 0.3 2.8 -0.2
v 0.7 2.8 -0.2
v 1.2 2.8 -0.2
v 1.6 2.8 -0.2
v 2.1 2.8 -0.2
v 2.5 2.8 -0.2
v 3 2.8 -0.2
v 3.4 2.8 -0.2
v 0.2 2.8 -0.3
v 0.8 2.8 -0.3
v 1.1 2.8 -0.3
v 1.7 2.8 -0.3
v 2 2.8 -0.3
v 2.6 2.8 -0.3
v 2.9 2.8 -0.3
v 3.5 2.8 -0.3
v 0.2 2.8 -3.3
v 0.8 2.8 -3.3
v 1.1 2.8 -3.3
v 1.7 2.8 -3.3
v 2 2.8 -3.3
v 2.6 2.8 -3.3
v 2.9 2.8 -3.3
v 3.5 2.8 -3.3
v 0.3 2.8 -3.4
v 0.7 2.8 -3.4
v 1.2 2.8 -3.4
v 1.6 2.8 -3.4
v 2.1 2.8 -3.4
v 2.5 2.8 -3.4
v 3 2.8 -3.4
v 3.4 2.8 -3.4
v 0.3 2.8 -3.5
v 0.7 2.8 -3.5
v 1.2 2.8 -3.5
v 1.6 2.8 -3.5
v 2.1 2.8 -3.5
v 2.5 2.8 -3.5
v 3 2.8 -3.5
v 3.4 2.8 -3.5
v 0.2 2.8 -3.6
v 0.8 2.8 -3.6
v 1.1 2.8 -3.6
v 1.7 2.8 -3.6
v 2 2.8 -3.6
v 2.6 2.8 -3.6
v 2.9 2.8 -3.6
v 3.5 2.8 -3.6
v 0.2 1 0
v 0.8 1 0
v 1.1 1 0
v 1.7 1 0
v 2 1 0
v 2.6 1 0
v 2.9 1 0
v 3.5 1 0
v 0.3 1 -0.1
v 0.7 1 -0.1
v 1.2 1 -0.1
v 1.6 1 -0.1
v 2.1 1 -0.1
v 2.5 1 -0.1
v 3 1 -0.1
v 3.4 1 -0.1
v 0.3 1 -0.2
v 0.7 1 -0.2
v 1.2 1 -0.2
v 1.6 1 -0.2
v 2.1 1 -0.2
v 2.5 1 -0.2
v 3 1 -0.2
v 3.4 1 -0.2
v 0.2 1 -0.3
v 0.8 1 -0.3
v 1.1 1 -0.3
v 1.7 1 -0.3
v 2 1 -0.3
v 2.6 1 -0.3
v 2.9 1 -0.3
v 3.5 1 -0.3
v 0.2 1 -3.3
v 0.8 1 -3.3
v 1.1 1 -3.3
v 1.7 1 -3.3
v 2 1 -3.3
v 2.6 1 -3.3
v 2.9 1 -3.3
v 3.5 1 -3.3
v 0.3 1 -3.4
v 0.7 1 -3.4
v 1.2 1 -3.4
v 1.6 1 -3.4
v 2.1 1 -3.4
v 2.5 1 -3.4
v 3 1 -3.4
v 3.4 1 -3.4
v 0.3 1 -3.5
v 0.7 1 -3.5
v 1.2 1 -3.5
v 1.6 1 -3.5
v 2.1 1 -3.5
v 2.5 1 -3.5
v 3 1 -3.5
v 3.4 1 -3.5
v 0.2 1 -3.6
v 0.8 1 -3.6
v 1.1 1 -3.6
v 1.7 1 -3.6
v 2 1 -3.6
v 2.6 1 -3.6
v 2.9 1 -3.6
v 3.5 1 -3.6
v 0 2.5 -0.2
v 0.3 2.5 -0.2
v 0.7 2.5 -0.2
v 1.2 2.5 -0.2
v 1.6 2.5 -0.2
v 2.1 2.5 -0.2
v 2.5 2.5 -0.2
v 3 2.5 -0.2
v 3.4 2.5 -0.2
v 3.6 2.5 -0.2
v 0 2.5 -3.4
v 0.3 2.5 -3.4
v 0.7 2.5 -3.4
v 1.2 2.5 -3.4
v 1.6 2.5 -3.4
v 2.1 2.5 -3.4
v 2.5 2.5 -3.4
v 3 2.5 -3.4
v 3.4 2.5 -3.4
v 3.6 2.5 -3.4
v 0.2 3.4 0
v 0.8 3.4 0
v 1.1 3.4 0
v 1.7 3.4 0
v 2 3.4 0
v 2.6 3.4 0
v 2.9 3.4 0
v 3.5 3.4 0
v 0.2 3.4 -0.3
v 0.8 3.4 -0.3
v 1.1 3.4 -0.3
v 1.7 3.4 -0.3
v 2 3.4 -0.3
v 2.6 3.4 -0.3
v 2.9 3.4 -0.3
v 3.5 3.4 -0.3
v 0.2 3.4 -3.3
v 0.8 3.4 -3.3
v 1.1 3.4 -3.3
v 1.7 3.4 -3.3
v 2 3.4 -3.3
v 2.6 3.4 -3.3
v 2.9 3.4 -3.3
v 3.5 3.4 -3.3
v 0.2 3.4 -3.6
v 0.8 3.4 -3.6
v 1.1 3.4 -3.6
v 1.7 3.4 -3.6
v 2 3.4 -3.6
v 2.6 3.4 -3.6
v 2.9 3.4 -3.6
v 3.5 3.4 -3.6

# faces
f 3/2/1 2/2/1 1/2/1
f 4/2/1 2/2/1 3/2/1
f 9/1/1 6/1/1 5/1/1
f 10/1/1 6/1/1 9/1/1
f 11/1/1 8/1/1 7/1/1
f 12/1/1 8/1/1 11/1/1
f 17/3/1 14/3/1 13/3/1
f 18/3/1 14/3/1 17/3/1
f 19/3/1 16/3/1 15/3/1
f 20/3/1 16/3/1 19/3/1
f 25/4/1 22/4/1 21/4/1
f 26/4/1 24/4/1 23/4/1
f 27/4/1 25/4/1 21/4/1
f 28/4/1 24/4/1 26/4/1
f 29/4/1 27/4/1 21/4/1
f 30/4/1 27/4/1 29/4/1
f 31/4/1 24/4/1 28/4/1
f 32/4/1 24/4/1 31/4/1
f 37/1/1 34/1/1 33/1/1
f 38/1/1 34/1/1 37/1/1
f 39/1/1 36/1/1 35/1/1
f 40/1/1 36/1/1 39/1/1
f 45/3/1 42/3/1 41/3/1
f 46/3/1 42/3/1 45/3/1
f 47/3/1 44/3/1 43/3/1
f 48/3/1 44/3/1 47/3/1
f 53/4/1 50/4/1 49/4/1
f 54/4/1 52/4/1 51/4/1
f 55/4/1 53/4/1 49/4/1
f 56/4/1 52/4/1 54/4/1
f 57/4/1 55/4/1 49/4/1
f 58/4/1 55/4/1 57/4/1
f 59/4/1 52/4/1 56/4/1
f 60/4/1 52/4/1 59/4/1
f 65/1/1 62/1/1 61/1/1
f 66/1/1 62/1/1 65/1/1
f 67/1/1 64/1/1 63/1/1
f 68/1/1 64/1/1 67/1/1
f 73/3/1 70/3/1 69/3/1
f 74/3/1 70/3/1 73/3/1
f 75/3/1 72/3/1 71/3/1
f 76/3/1 72/3/1 75/3/1
f 81/4/1 78/4/1 77/4/1
f 82/4/1 80/4/1 79/4/1
f 83/4/1 81/4/1 77/4/1
f 84/4/1 80/4/1 82/4/1
f 85/4/1 83/4/1 77/4/1
f 86/4/1 83/4/1 85/4/1
f 87/4/1 80/4/1 84/4/1
f 88/4/1 80/4/1 87/4/1
f 93/1/1 90/1/1 89/1/1
f 94/1/1 90/1/1 93/1/1
f 95/1/1 92/1/1 91/1/1
f 96/1/1 92/1/1 95/1/1
f 101/3/1 98/3/1 97/3/1
f 102/3/1 98/3/1 101/3/1
f 103/3/1 100/3/1 99/3/1
f 104/3/1 100/3/1 103/3/1
f 109/4/1 106/4/1 105/4/1
f 110/4/1 108/4/1 107/4/1
f 111/4/1 109/4/1 105/4/1
f 112/4/1 108/4/1 110/4/1
f 113/4/1 111/4/1 105/4/1
f 114/4/1 111/4/1 113/4/1
f 115/4/1 108/4/1 112/4/1
f 116/4/1 108/4/1 115/4/1
f 117/4/2 118/4/2 121/4/2
f 119/4/2 120/4/2 122/4/2
f 117/4/2 121/4/2 123/4/2
f 122/4/2 120/4/2 124/4/2
f 117/4/2 123/4/2 125/4/2
f 125/4/2 123/4/2 126/4/2
f 124/4/2 120/4/2 127/4/2
f 127/4/2 120/4/2 128/4/2
f 129/1/2 130/1/2 133/1/2
f 133/1/2 130/1/2 134/1/2
f 131/1/2 132/1/2 135/1/2
f 135/1/2 132/1/2 136/1/2
f 137/3/2 138/3/2 141/3/2
f 141/3/2 138/3/2 142/3/2
f 139/3/2 140/3/2 143/3/2
f 143/3/2 140/3/2 144/3/2
f 145/4/2 146/4/2 149/4/2
f 147/4/2 148/4/2 150/4/2
f 145/4/2 149/4/2 151/4/2
f 150/4/2 148/4/2 152/4/2
f 145/4/2 151/4/2 153/4/2
f 153/4/2 151/4/2 154/4/2
f 152/4/2 148/4/2 155/4/2
f 155/4/2 148/4/2 156/4/2
f 157/1/2 158/1/2 161/1/2
f 161/1/2 158/1/2 162/1/2
f 159/1/2 160/1/2 163/1/2
f 163/1/2 160/1/2 164/1/2
f 165/3/2 166/3/2 169/3/2
f 169/3/2 166/3/2 170/3/2
f 167/3/2 168/3/2 171/3/2
f 171/3/2 168/3/2 172/3/2
f 173/4/2 174/4/2 177/4/2
f 175/4/2 176/4/2 178/4/2
f 173/4/2 177/4/2 179/4/2
f 178/4/2 176/4/2 180/4/2
f 173/4/2 179/4/2 181/4/2
f 181/4/2 179/4/2 182/4/2
f 180/4/2 176/4/2 183/4/2
f 183/4/2 176/4/2 184/4/2
f 185/1/2 186/1/2 189/1/2
f 189/1/2 186/1/2 190/1/2
f 187/1/2 188/1/2 191/1/2
f 191/1/2 188/1/2 192/1/2
f 193/3/2 194/3/2 197/3/2
f 197/3/2 194/3/2 198/3/2
f 195/3/2 196/3/2 199/3/2
f 199/3/2 196/3/2 200/3/2
f 201/4/2 202/4/2 205/4/2
f 203/4/2 204/4/2 206/4/2
f 201/4/2 205/4/2 207/4/2
f 206/4/2 204/4/2 208/4/2
f 201/4/2 207/4/2 209/4/2
f 209/4/2 207/4/2 210/4/2
f 208/4/2 204/4/2 211/4/2
f 211/4/2 204/4/2 212/4/2
f 213/1/2 214/1/2 217/1/2
f 217/1/2 214/1/2 218/1/2
f 215/1/2 216/1/2 219/1/2
f 219/1/2 216/1/2 220/1/2
f 221/3/2 222/3/2 225/3/2
f 225/3/2 222/3/2 226/3/2
f 223/3/2 224/3/2 227/3/2
f 227/3/2 224/3/2 228/3/2
f 229/2/2 230/2/2 231/2/2
f 231/2/2 230/2/2 232/2/2
f 237/1/3 234/1/3 233/1/3
f 238/1/3 234/1/3 237/1/3
f 239/3/3 236/3/3 235/3/3
f 240/3/3 236/3/3 239/3/3
f 245/1/3 242/1/3 241/1/3
f 246/1/3 242/1/3 245/1/3
f 247/3/3 244/3/3 243/3/3
f 248/3/3 244/3/3 247/3/3
f 253/1/3 250/1/3 249/1/3
f 254/1/3 250/1/3 253/1/3
f 255/3/3 252/3/3 251/3/3
f 256/3/3 252/3/3 255/3/3
f 261/1/3 258/1/3 257/1/3
f 262/1/3 258/1/3 261/1/3
f 263/3/3 260/3/3 259/3/3
f 264/3/3 260/3/3 263/3/3
f 267/4/3 266/4/3 265/4/3
f 268/4/3 266/4/3 267/4/3
f 271/4/3 270/4/3 269/4/3
f 272/4/3 270/4/3 271/4/3
f 275/4/3 274/4/3 273/4/3
f 276/4/3 274/4/3 275/4/3
f 279/4/3 278/4/3 277/4/3
f 280/4/3 278/4/3 279/4/3
f 283/2/3 282/2/3 281/2/3
f 284/2/3 282/2/3 283/2/3
f 287/2/3 286/2/3 285/2/3
f 288/2/3 286/2/3 287/2/3
f 291/2/3 290/2/3 289/2/3
f 292/2/3 290/2/3 291/2/3
f 295/2/3 294/2/3 293/2/3
f 296/2/3 294/2/3 295/2/3
f 299/2/3 298/2/3 297/2/3
f 300/2/3 298/2/3 299/2/3
f 305/1/3 302/1/3 301/1/3
f 306/1/3 302/1/3 305/1/3
f 307/3/3 304/3/3 303/3/3
f 308/3/3 304/3/3 307/3/3
f 313/1/3 310/1/3 309/1/3
f 314/1/3 310/1/3 313/1/3
f 315/3/3 312/3/3 311/3/3
f 316/3/3 312/3/3 315/3/3
f 321/1/3 318/1/3 317/1/3
f 322/1/3 318/1/3 321/1/3
f 323/3/3 320/3/3 319/3/3
f 324/3/3 320/3/3 323/3/3
f 329/1/3 326/1/3 325/1/3
f 330/1/3 326/1/3 329/1/3
f 331/3/3 328/3/3 327/3/3
f 332/3/3 328/3/3 331/3/3
f 337/4/3 334/4/3 333/4/3
f 338/4/3 334/4/3 337/4/3
f 339/4/3 336/4/3 335/4/3
f 340/4/3 336/4/3 339/4/3
f 345/4/3 342/4/3 341/4/3
f 346/4/3 342/4/3 345/4/3
f 347/4/3 344/4/3 343/4/3
f 348/4/3 344/4/3 347/4/3
f 353/4/3 350/4/3 349/4/3
f 354/4/3 350/4/3 353/4/3
f 355/4/3 352/4/3 351/4/3
f 356/4/3 352/4/3 355/4/3
f 361/4/3 358/4/3 357/4/3
f 362/4/3 358/4/3 361/4/3
f 363/4/3 360/4/3 359/4/3
f 364/4/3 360/4/3 363/4/3
f 365/4/4 366/4/4 369/4/4
f 369/4/4 366/4/4 370/4/4
f 367/4/4 368/4/4 371/4/4
f 371/4/4 368/4/4 372/4/4
f 373/4/4 374/4/4 377/4/4
f 377/4/4 374/4/4 378/4/4
f 375/4/4 376/4/4 379/4/4
f 379/4/4 376/4/4 380/4/4
f 381/4/4 382/4/4 385/4/4
f 385/4/4 382/4/4 386/4/4
f 383/4/4 384/4/4 387/4/4
f 387/4/4 384/4/4 388/4/4
f 389/4/4 390/4/4 393/4/4
f 393/4/4 390/4/4 394/4/4
f 391/4/4 392/4/4 395/4/4
f 395/4/4 392/4/4 396/4/4
f 397/1/4 398/1/4 401/1/4
f 401/1/4 398/1/4 402/1/4
f 399/3/4 400/3/4 403/3/4
f 403/3/4 400/3/4 404/3/4
f 405/1/4 406/1/4 409/1/4
f 409/1/4 406/1/4 410/1/4
f 407/3/4 408/3/4 411/3/4
f 411/3/4 408/3/4 412/3/4
f 413/1/4 414/1/4 417/1/4
f 417/1/4 414/1/4 418/1/4
f 415/3/4 416/3/4 419/3/4
f 419/3/4 416/3/4 420/3/4
f 421/1/4 422/1/4 425/1/4
f 425/1/4 422/1/4 426/1/4
f 423/3/4 424/3/4 427/3/4
f 427/3/4 424/3/4 428/3/4
f 429/2/4 430/2/4 431/2/4
f 431/2/4 430/2/4 432/2/4
f 433/2/4 434/2/4 435/2/4
f 435/2/4 434/2/4 436/2/4
f 437/2/4 438/2/4 439/2/4
f 439/2/4 438/2/4 440/2/4
f 441/2/4 442/2/4 443/2/4
f 443/2/4 442/2/4 444/2/4
f 445/2/4 446/2/4 447/2/4
f 447/2/4 446/2/4 448/2/4
f 449/4/4 450/4/4 451/4/4
f 451/4/4 450/4/4 452/4/4
f 453/4/4 454/4/4 455/4/4
f 455/4/4 454/4/4 456/4/4
f 457/4/4 458/4/4 459/4/4
f 459/4/4 458/4/4 460/4/4
f 461/4/4 462/4/4 463/4/4
f 463/4/4 462/4/4 464/4/4
f 465/1/4 466/1/4 469/1/4
f 469/1/4 466/1/4 470/1/4
f 467/3/4 468/3/4 471/3/4
f 471/3/4 468/3/4 472/3/4
f 473/1/4 474/1/4 477/1/4
f 477/1/4 474/1/4 478/1/4
f 475/3/4 476/3/4 479/3/4
f 479/3/4 476/3/4 480/3/4
f 481/1/4 482/1/4 485/1/4
f 485/1/4 482/1/4 486/1/4
f 483/3/4 484/3/4 487/3/4
f 487/3/4 484/3/4 488/3/4
f 489/1/4 490/1/4 493/1/4
f 493/1/4 490/1/4 494/1/4
f 491/3/4 492/3/4 495/3/4
f 495/3/4 492/3/4 496/3/4
f 505/1/5 498/1/5 497/1/5
f 506/1/5 498/1/5 505/1/5
f 507/1/5 500/1/5 499/1/5
f 508/1/5 500/1/5 507/1/5
f 509/1/5 502/1/5 501/1/5
f 510/1/5 502/1/5 509/1/5
f 511/1/5 504/1/5 503/1/5
f 512/1/5 504/1/5 511/1/5
f 521/1/5 514/1/5 513/1/5
f 522/1/5 514/1/5 521/1/5
f 523/1/5 516/1/5 515/1/5
f 524/1/5 516/1/5 523/1/5
f 525/1/5 518/1/5 517/1/5
f 526/1/5 518/1/5 525/1/5
f 527/1/5 520/1/5 519/1/5
f 528/1/5 520/1/5 527/1/5
f 539/2/5 530/2/5 529/2/5
f 539/2/5 538/2/5 537/2/5
f 539/2/5 537/2/5 536/2/5
f 539/2/5 536/2/5 535/2/5
f 539/2/5 535/2/5 534/2/5
f 539/2/5 534/2/5 533/2/5
f 539/2/5 533/2/5 532/2/5
f 539/2/5 532/2/5 531/2/5
f 539/2/5 531/2/5 530/2/5
f 540/2/5 538/2/5 539/2/5
f 541/2/5 538/2/5 540/2/5
f 542/2/5 538/2/5 541/2/5
f 543/2/5 538/2/5 542/2/5
f 544/2/5 538/2/5 543/2/5
f 545/2/5 538/2/5 544/2/5
f 546/2/5 538/2/5 545/2/5
f 547/2/5 538/2/5 546/2/5
f 548/2/5 538/2/5 547/2/5
f 557/3/5 550/3/5 549/3/5
f 558/3/5 550/3/5 557/3/5
f 559/3/5 552/3/5 551/3/5
f 560/3/5 552/3/5 559/3/5
f 561/3/5 554/3/5 553/3/5
f 562/3/5 554/3/5 561/3/5
f 563/3/5 556/3/5 555/3/5
f 564/3/5 556/3/5 563/3/5
f 565/3/5 557/3/5 549/3/5
f 566/3/5 550/3/5 558/3/5
f 567/3/5 559/3/5 551/3/5
f 568/3/5 552/3/5 560/3/5
f 569/3/5 561/3/5 553/3/5
f 570/3/5 554/3/5 562/3/5
f 571/3/5 563/3/5 555/3/5
f 572/3/5 556/3/5 564/3/5
f 573/3/5 565/3/5 549/3/5
f 573/3/5 566/3/5 565/3/5
f 574/3/5 550/3/5 566/3/5
f 574/3/5 566/3/5 573/3/5
f 575/3/5 567/3/5 551/3/5
f 575/3/5 568/3/5 567/3/5
f 576/3/5 552/3/5 568/3/5
f 576/3/5 568/3/5 575/3/5
f 577/3/5 569/3/5 553/3/5
f 577/3/5 570/3/5 569/3/5
f 578/3/5 554/3/5 570/3/5
f 578/3/5 570/3/5 577/3/5
f 579/3/5 572/3/5 571/3/5
f 579/3/5 571/3/5 555/3/5
f 580/3/5 556/3/5 572/3/5
f 580/3/5 572/3/5 579/3/5
f 589/3/5 582/3/5 581/3/5
f 590/3/5 582/3/5 589/3/5
f 591/3/5 584/3/5 583/3/5
f 592/3/5 584/3/5 591/3/5
f 593/3/5 586/3/5 585/3/5
f 594/3/5 586/3/5 593/3/5
f 595/3/5 588/3/5 587/3/5
f 596/3/5 588/3/5 595/3/5
f 597/3/5 589/3/5 581/3/5
f 598/3/5 582/3/5 590/3/5
f 599/3/5 591/3/5 583/3/5
f 600/3/5 584/3/5 592/3/5
f 601/3/5 593/3/5 585/3/5
f 602/3/5 586/3/5 594/3/5
f 603/3/5 595/3/5 587/3/5
f 604/3/5 588/3/5 596/3/5
f 605/3/5 597/3/5 581/3/5
f 605/3/5 598/3/5 597/3/5
f 606/3/5 582/3/5 598/3/5
f 606/3/5 598/3/5 605/3/5
f 607/3/5 599/3/5 583/3/5
f 607/3/5 600/3/5 599/3/5
f 608/3/5 584/3/5 600/3/5
f 608/3/5 600/3/5 607/3/5
f 609/3/5 601/3/5 585/3/5
f 609/3/5 602/3/5 601/3/5
f 610/3/5 586/3/5 602/3/5
f 610/3/5 602/3/5 609/3/5
f 611/3/5 604/3/5 603/3/5
f 611/3/5 603/3/5 587/3/5
f 612/3/5 588/3/5 604/3/5
f 612/3/5 604/3/5 611/3/5
f 613/1/6 614/1/6 621/1/6
f 621/1/6 614/1/6 622/1/6
f 615/1/6 616/1/6 623/1/6
f 623/1/6 616/1/6 624/1/6
f 617/1/6 618/1/6 625/1/6
f 625/1/6 618/1/6 626/1/6
f 619/1/6 620/1/6 627/1/6
f 627/1/6 620/1/6 628/1/6
f 613/1/6 621/1/6 629/1/6
f 622/1/6 614/1/6 630/1/6
f 615/1/6 623/1/6 631/1/6
f 624/1/6 616/1/6 632/1/6
f 617/1/6 625/1/6 633/1/6
f 626/1/6 618/1/6 634/1/6
f 619/1/6 627/1/6 635/1/6
f 628/1/6 620/1/6 636/1/6
f 613/1/6 629/1/6 637/1/6
f 629/1/6 630/1/6 637/1/6
f 630/1/6 614/1/6 638/1/6
f 637/1/6 630/1/6 638/1/6
f 615/1/6 631/1/6 639/1/6
f 631/1/6 632/1/6 639/1/6
f 632/1/6 616/1/6 640/1/6
f 639/1/6 632/1/6 640/1/6
f 617/1/6 633/1/6 641/1/6
f 633/1/6 634/1/6 641/1/6
f 634/1/6 618/1/6 642/1/6
f 641/1/6 634/1/6 642/1/6
f 635/1/6 636/1/6 643/1/6
f 619/1/6 635/1/6 643/1/6
f 636/1/6 620/1/6 644/1/6
f 643/1/6 636/1/6 644/1/6
f 645/1/6 646/1/6 653/1/6
f 653/1/6 646/1/6 654/1/6
f 647/1/6 648/1/6 655/1/6
f 655/1/6 648/1/6 656/1/6
f 649/1/6 650/1/6 657/1/6
f 657/1/6 650/1/6 658/1/6
f 651/1/6 652/1/6 659/1/6
f 659/1/6 652/1/6 660/1/6
f 645/1/6 653/1/6 661/1/6
f 654/1/6 646/1/6 662/1/6
f 647/1/6 655/1/6 663/1/6
f 656/1/6 648/1/6 664/1/6
f 649/1/6 657/1/6 665/1/6
f 658/1/6 650/1/6 666/1/6
f 651/1/6 659/1/6 667/1/6
f 660/1/6 652/1/6 668/1/6
f 645/1/6 661/1/6 669/1/6
f 661/1/6 662/1/6 669/1/6
f 662/1/6 646/1/6 670/1/6
f 669/1/6 662/1/6 670/1/6
f 647/1/6 663/1/6 671/1/6
f 663/1/6 664/1/6 671/1/6
f 664/1/6 648/1/6 672/1/6
f 671/1/6 664/1/6 672/1/6
f 649/1/6 665/1/6 673/1/6
f 665/1/6 666/1/6 673/1/6
f 666/1/6 650/1/6 674/1/6
f 673/1/6 666/1/6 674/1/6
f 667/1/6 668/1/6 675/1/6
f 651/1/6 667/1/6 675/1/6
f 668/1/6 652/1/6 676/1/6
f 675/1/6 668/1/6 676/1/6
f 677/2/6 678/2/6 687/2/6
f 685/2/6 686/2/6 687/2/6
f 684/2/6 685/2/6 687/2/6
f 683/2/6 684/2/6 687/2/6
f 682/2/6 683/2/6 687/2/6
f 681/2/6 682/2/6 687/2/6
f 680/2/6 681/2/6 687/2/6
f 679/2/6 680/2/6 687/2/6
f 678/2/6 679/2/6 687/2/6
f 687/2/6 686/2/6 688/2/6
f 688/2/6 686/2/6 689/2/6
f 689/2/6 686/2/6 690/2/6
f 690/2/6 686/2/6 691/2/6
f 691/2/6 686/2/6 692/2/6
f 692/2/6 686/2/6 693/2/6
f 693/2/6 686/2/6 694/2/6
f 694/2/6 686/2/6 695/2/6
f 695/2/6 686/2/6 696/2/6
f 697/3/6 698/3/6 705/3/6
f 705/3/6 698/3/6 706/3/6
f 699/3/6 700/3/6 707/3/6
f 707/3/6 700/3/6 708/3/6
f 701/3/6 702/3/6 709/3/6
f 709/3/6 702/3/6 710/3/6
f 703/3/6 704/3/6 711/3/6
f 711/3/6 704/3/6 712/3/6
f 713/3/6 714/3/6 721/3/6
f 721/3/6 714/3/6 722/3/6
f 715/3/6 716/3/6 723/3/6
f 723/3/6 716/3/6 724/3/6
f 717/3/6 718/3/6 725/3/6
f 725/3/6 718/3/6 726/3/6
f 719/3/6 720/3/6 727/3/6
f 727/3/6 720/3/6 728/3/6
