# MagicaVoxel @ Ephtracy

# group
o 

# material
mtllib bush.mtl
usemtl palette

# normals
vn -1 0 0
vn 1 0 0
vn 0 0 1
vn 0 0 -1
vn 0 -1 0
vn 0 1 0

# texcoords
vt 0.443359 0.5
vt 0.900391 0.5

# verts
v 0.3 2.1 -1.4
v 0.3 2.1 -2.2
v 0.3 2.3 -1.4
v 0.3 2.3 -2.2
v 0.4 2 -1.4
v 0.4 2 -2.2
v 0.4 2.1 -1.4
v 0.4 2.1 -2.2
v 0.4 2.3 -1.4
v 0.4 2.3 -2.2
v 0.4 2.4 -1.4
v 0.4 2.4 -2.2
v 0.6 2.4 -1.4
v 0.6 2.4 -2.2
v 0.6 2.6 -1.4
v 0.6 2.6 -2.2
v 0.7 2.6 -1.4
v 0.7 2.6 -2.2
v 0.7 2.7 -1.4
v 0.7 2.7 -2.2
v 0.8 2.7 -1.4
v 0.8 2.7 -2.2
v 0.8 2.8 -1.4
v 0.8 2.8 -2.2
v 0.9 2.8 -1.4
v 0.9 2.8 -2.2
v 0.9 3.1 -1.4
v 0.9 3.1 -2.2
v 1 3.1 -1.4
v 1 3.1 -2.2
v 1 3.2 -1.4
v 1 3.2 -2.2
v 1.1 3.2 -1.4
v 1.1 3.2 -2.2
v 1.1 3.3 -1.4
v 1.1 3.3 -2.2
v 1.2 3.3 -1.5
v 1.2 3.3 -1.9
v 1.2 3.4 -1.5
v 1.2 3.4 -1.9
v 1.5 3.2 -1.4
v 1.5 3.2 -2.2
v 1.5 3.4 -1.4
v 1.5 3.4 -2.2
v 1.6 3.4 -1.4
v 1.6 3.4 -2.2
v 1.6 3.5 -1.4
v 1.6 3.5 -2.2
v 1.7 3.5 -1.4
v 1.7 3.5 -2.2
v 1.7 3.6 -1.4
v 1.7 3.6 -2.2
v 1.8 3.6 -1.7
v 1.8 3.6 -1.8
v 1.8 3.7 -1.7
v 1.8 3.7 -1.8
v 1.9 3.6 -1.8
v 1.9 3.6 -1.9
v 1.9 3.7 -1.8
v 1.9 3.7 -1.9
v 2.8 2.8 -1.7
v 2.8 2.8 -1.9
v 2.8 2.9 -1.7
v 2.8 2.9 -1.9
v 1.3 3.3 -1.5
v 1.3 3.3 -1.9
v 1.3 3.4 -1.5
v 1.3 3.4 -1.9
v 1.4 3.2 -1.4
v 1.4 3.2 -2.2
v 1.4 3.3 -1.4
v 1.4 3.3 -2.2
v 1.9 3.6 -1.7
v 1.9 3.6 -1.8
v 1.9 3.7 -1.7
v 1.9 3.7 -1.8
v 2 3.6 -1.8
v 2 3.6 -1.9
v 2 3.7 -1.8
v 2 3.7 -1.9
v 2.1 3.5 -1.4
v 2.1 3.5 -2.2
v 2.1 3.6 -1.4
v 2.1 3.6 -2.2
v 2.2 3.4 -1.4
v 2.2 3.4 -2.2
v 2.2 3.5 -1.4
v 2.2 3.5 -2.2
v 2.4 3.3 -1.4
v 2.4 3.3 -2.2
v 2.4 3.4 -1.4
v 2.4 3.4 -2.2
v 2.5 3 -1.4
v 2.5 3 -2.2
v 2.5 3.3 -1.4
v 2.5 3.3 -2.2
v 2.6 2.9 -1.4
v 2.6 2.9 -2.2
v 2.6 3 -1.4
v 2.6 3 -2.2
v 2.7 2.8 -1.4
v 2.7 2.8 -2.2
v 2.7 2.9 -1.4
v 2.7 2.9 -2.2
v 2.9 2.8 -1.7
v 2.9 2.8 -1.9
v 2.9 2.9 -1.7
v 2.9 2.9 -1.9
v 3 2.7 -1.4
v 3 2.7 -2.2
v 3 2.8 -1.4
v 3 2.8 -2.2
v 3.1 2.6 -1.4
v 3.1 2.6 -2.2
v 3.1 2.7 -1.4
v 3.1 2.7 -2.2
v 3.2 2.4 -1.4
v 3.2 2.4 -2.2
v 3.2 2.6 -1.4
v 3.2 2.6 -2.2
v 3.4 2 -1.4
v 3.4 2 -2.2
v 3.4 2.1 -1.4
v 3.4 2.1 -2.2
v 3.4 2.3 -1.4
v 3.4 2.3 -2.2
v 3.4 2.4 -1.4
v 3.4 2.4 -2.2
v 3.5 2.1 -1.4
v 3.5 2.1 -2.2
v 3.5 2.3 -1.4
v 3.5 2.3 -2.2
v 0.3 2.1 -1.4
v 0.3 2.3 -1.4
v 0.4 2 -1.4
v 0.4 2.1 -1.4
v 0.4 2.3 -1.4
v 0.4 2.4 -1.4
v 0.6 2.3 -1.4
v 0.6 2.4 -1.4
v 0.6 2.6 -1.4
v 0.7 2.4 -1.4
v 0.7 2.6 -1.4
v 0.7 2.7 -1.4
v 0.8 2.6 -1.4
v 0.8 2.7 -1.4
v 0.8 2.8 -1.4
v 0.9 2.7 -1.4
v 0.9 2.8 -1.4
v 0.9 3.1 -1.4
v 1 2.8 -1.4
v 1 3.1 -1.4
v 1 3.2 -1.4
v 1.1 3.1 -1.4
v 1.1 3.2 -1.4
v 1.1 3.3 -1.4
v 1.4 3.1 -1.4
v 1.4 3.2 -1.4
v 1.4 3.3 -1.4
v 1.5 3.1 -1.4
v 1.5 3.2 -1.4
v 1.5 3.4 -1.4
v 1.6 3.2 -1.4
v 1.6 3.4 -1.4
v 1.6 3.5 -1.4
v 1.7 3.4 -1.4
v 1.7 3.5 -1.4
v 1.7 3.6 -1.4
v 2.1 3.4 -1.4
v 2.1 3.5 -1.4
v 2.1 3.6 -1.4
v 2.2 3.3 -1.4
v 2.2 3.4 -1.4
v 2.2 3.5 -1.4
v 2.4 3 -1.4
v 2.4 3.3 -1.4
v 2.4 3.4 -1.4
v 2.5 2.9 -1.4
v 2.5 3 -1.4
v 2.5 3.3 -1.4
v 2.6 2.8 -1.4
v 2.6 2.9 -1.4
v 2.6 3 -1.4
v 2.7 2.7 -1.4
v 2.7 2.8 -1.4
v 2.7 2.9 -1.4
v 3 2.6 -1.4
v 3 2.7 -1.4
v 3 2.8 -1.4
v 3.1 2.4 -1.4
v 3.1 2.6 -1.4
v 3.1 2.7 -1.4
v 3.2 2.3 -1.4
v 3.2 2.4 -1.4
v 3.2 2.6 -1.4
v 3.4 2 -1.4
v 3.4 2.1 -1.4
v 3.4 2.3 -1.4
v 3.4 2.4 -1.4
v 3.5 2.1 -1.4
v 3.5 2.3 -1.4
v 1.2 3.3 -1.5
v 1.2 3.4 -1.5
v 1.3 3.3 -1.5
v 1.3 3.4 -1.5
v 1.8 3.6 -1.7
v 1.8 3.7 -1.7
v 1.9 3.6 -1.7
v 1.9 3.7 -1.7
v 2.8 2.8 -1.7
v 2.8 2.9 -1.7
v 2.9 2.8 -1.7
v 2.9 2.9 -1.7
v 1.9 3.6 -1.8
v 1.9 3.7 -1.8
v 2 3.6 -1.8
v 2 3.7 -1.8
v 1.8 3.6 -1.8
v 1.8 3.7 -1.8
v 1.9 3.6 -1.8
v 1.9 3.7 -1.8
v 1.2 3.3 -1.9
v 1.2 3.4 -1.9
v 1.3 3.3 -1.9
v 1.3 3.4 -1.9
v 1.9 3.6 -1.9
v 1.9 3.7 -1.9
v 2 3.6 -1.9
v 2 3.7 -1.9
v 2.8 2.8 -1.9
v 2.8 2.9 -1.9
v 2.9 2.8 -1.9
v 2.9 2.9 -1.9
v 0.3 2.1 -2.2
v 0.3 2.3 -2.2
v 0.4 2 -2.2
v 0.4 2.1 -2.2
v 0.4 2.3 -2.2
v 0.4 2.4 -2.2
v 0.6 2.3 -2.2
v 0.6 2.4 -2.2
v 0.6 2.6 -2.2
v 0.7 2.4 -2.2
v 0.7 2.6 -2.2
v 0.7 2.7 -2.2
v 0.8 2.6 -2.2
v 0.8 2.7 -2.2
v 0.8 2.8 -2.2
v 0.9 2.7 -2.2
v 0.9 2.8 -2.2
v 0.9 3.1 -2.2
v 1 2.8 -2.2
v 1 3.1 -2.2
v 1 3.2 -2.2
v 1.1 3.1 -2.2
v 1.1 3.2 -2.2
v 1.1 3.3 -2.2
v 1.4 3.1 -2.2
v 1.4 3.2 -2.2
v 1.4 3.3 -2.2
v 1.5 3.1 -2.2
v 1.5 3.2 -2.2
v 1.5 3.4 -2.2
v 1.6 2.9 -2.2
v 1.6 3 -2.2
v 1.6 3.2 -2.2
v 1.6 3.4 -2.2
v 1.6 3.5 -2.2
v 1.7 2.9 -2.2
v 1.7 3 -2.2
v 1.7 3.1 -2.2
v 1.7 3.4 -2.2
v 1.7 3.5 -2.2
v 1.7 3.6 -2.2
v 1.8 3 -2.2
v 1.8 3.1 -2.2
v 2 2.9 -2.2
v 2 3 -2.2
v 2.1 3.4 -2.2
v 2.1 3.5 -2.2
v 2.1 3.6 -2.2
v 2.2 2.8 -2.2
v 2.2 2.9 -2.2
v 2.2 3 -2.2
v 2.2 3.3 -2.2
v 2.2 3.4 -2.2
v 2.2 3.5 -2.2
v 2.3 2.8 -2.2
v 2.3 2.9 -2.2
v 2.3 3.2 -2.2
v 2.3 3.3 -2.2
v 2.4 3 -2.2
v 2.4 3.2 -2.2
v 2.4 3.3 -2.2
v 2.4 3.4 -2.2
v 2.5 2.9 -2.2
v 2.5 3 -2.2
v 2.5 3.3 -2.2
v 2.6 2.8 -2.2
v 2.6 2.9 -2.2
v 2.6 3 -2.2
v 2.7 2.7 -2.2
v 2.7 2.8 -2.2
v 2.7 2.9 -2.2
v 3 2.6 -2.2
v 3 2.7 -2.2
v 3 2.8 -2.2
v 3.1 2.4 -2.2
v 3.1 2.6 -2.2
v 3.1 2.7 -2.2
v 3.2 2.3 -2.2
v 3.2 2.4 -2.2
v 3.2 2.6 -2.2
v 3.4 2 -2.2
v 3.4 2.1 -2.2
v 3.4 2.3 -2.2
v 3.4 2.4 -2.2
v 3.5 2.1 -2.2
v 3.5 2.3 -2.2
v 0.4 2 -1.4
v 3.4 2 -1.4
v 0.4 2 -2.2
v 3.4 2 -2.2
v 0.3 2.1 -1.4
v 0.4 2.1 -1.4
v 3.4 2.1 -1.4
v 3.5 2.1 -1.4
v 0.3 2.1 -2.2
v 0.4 2.1 -2.2
v 3.4 2.1 -2.2
v 3.5 2.1 -2.2
v 0.3 2.3 -1.4
v 0.4 2.3 -1.4
v 3.4 2.3 -1.4
v 3.5 2.3 -1.4
v 0.3 2.3 -2.2
v 0.4 2.3 -2.2
v 3.4 2.3 -2.2
v 3.5 2.3 -2.2
v 0.4 2.4 -1.4
v 0.6 2.4 -1.4
v 3.2 2.4 -1.4
v 3.4 2.4 -1.4
v 0.4 2.4 -2.2
v 0.6 2.4 -2.2
v 3.2 2.4 -2.2
v 3.4 2.4 -2.2
v 0.6 2.6 -1.4
v 0.7 2.6 -1.4
v 3.1 2.6 -1.4
v 3.2 2.6 -1.4
v 0.6 2.6 -2.2
v 0.7 2.6 -2.2
v 3.1 2.6 -2.2
v 3.2 2.6 -2.2
v 0.7 2.7 -1.4
v 0.8 2.7 -1.4
v 3 2.7 -1.4
v 3.1 2.7 -1.4
v 0.7 2.7 -2.2
v 0.8 2.7 -2.2
v 3 2.7 -2.2
v 3.1 2.7 -2.2
v 0.8 2.8 -1.4
v 0.9 2.8 -1.4
v 2.7 2.8 -1.4
v 3 2.8 -1.4
v 2.8 2.8 -1.7
v 2.9 2.8 -1.7
v 2.8 2.8 -1.9
v 2.9 2.8 -1.9
v 0.8 2.8 -2.2
v 0.9 2.8 -2.2
v 2.7 2.8 -2.2
v 3 2.8 -2.2
v 2.6 2.9 -1.4
v 2.7 2.9 -1.4
v 2.8 2.9 -1.7
v 2.9 2.9 -1.7
v 2.8 2.9 -1.9
v 2.9 2.9 -1.9
v 2.6 2.9 -2.2
v 2.7 2.9 -2.2
v 2.5 3 -1.4
v 2.6 3 -1.4
v 2.5 3 -2.2
v 2.6 3 -2.2
v 0.9 3.1 -1.4
v 1 3.1 -1.4
v 0.9 3.1 -2.2
v 1 3.1 -2.2
v 1 3.2 -1.4
v 1.1 3.2 -1.4
v 1.4 3.2 -1.4
v 1.5 3.2 -1.4
v 1 3.2 -2.2
v 1.1 3.2 -2.2
v 1.4 3.2 -2.2
v 1.5 3.2 -2.2
v 1.1 3.3 -1.4
v 1.4 3.3 -1.4
v 2.4 3.3 -1.4
v 2.5 3.3 -1.4
v 1.2 3.3 -1.5
v 1.3 3.3 -1.5
v 1.2 3.3 -1.9
v 1.3 3.3 -1.9
v 1.1 3.3 -2.2
v 1.4 3.3 -2.2
v 2.4 3.3 -2.2
v 2.5 3.3 -2.2
v 1.5 3.4 -1.4
v 1.6 3.4 -1.4
v 2.2 3.4 -1.4
v 2.4 3.4 -1.4
v 1.2 3.4 -1.5
v 1.3 3.4 -1.5
v 1.2 3.4 -1.9
v 1.3 3.4 -1.9
v 1.5 3.4 -2.2
v 1.6 3.4 -2.2
v 2.2 3.4 -2.2
v 2.4 3.4 -2.2
v 1.6 3.5 -1.4
v 1.7 3.5 -1.4
v 2.1 3.5 -1.4
v 2.2 3.5 -1.4
v 1.6 3.5 -2.2
v 1.7 3.5 -2.2
v 2.1 3.5 -2.2
v 2.2 3.5 -2.2
v 1.7 3.6 -1.4
v 2.1 3.6 -1.4
v 1.8 3.6 -1.7
v 1.9 3.6 -1.7
v 1.8 3.6 -1.8
v 1.9 3.6 -1.8
v 2 3.6 -1.8
v 1.9 3.6 -1.9
v 2 3.6 -1.9
v 1.7 3.6 -2.2
v 2.1 3.6 -2.2
v 1.8 3.7 -1.7
v 1.9 3.7 -1.7
v 1.8 3.7 -1.8
v 1.9 3.7 -1.8
v 2 3.7 -1.8
v 1.9 3.7 -1.9
v 2 3.7 -1.9

# faces
f 3/2/1 2/2/1 1/2/1
f 4/2/1 2/2/1 3/2/1
f 7/2/1 6/2/1 5/2/1
f 8/2/1 6/2/1 7/2/1
f 11/2/1 10/2/1 9/2/1
f 12/2/1 10/2/1 11/2/1
f 15/2/1 14/2/1 13/2/1
f 16/2/1 14/2/1 15/2/1
f 19/2/1 18/2/1 17/2/1
f 20/2/1 18/2/1 19/2/1
f 23/2/1 22/2/1 21/2/1
f 24/2/1 22/2/1 23/2/1
f 27/2/1 26/2/1 25/2/1
f 28/2/1 26/2/1 27/2/1
f 31/2/1 30/2/1 29/2/1
f 32/2/1 30/2/1 31/2/1
f 35/2/1 34/2/1 33/2/1
f 36/2/1 34/2/1 35/2/1
f 39/2/1 38/2/1 37/2/1
f 40/2/1 38/2/1 39/2/1
f 43/2/1 42/2/1 41/2/1
f 44/2/1 42/2/1 43/2/1
f 47/2/1 46/2/1 45/2/1
f 48/2/1 46/2/1 47/2/1
f 51/2/1 50/2/1 49/2/1
f 52/2/1 50/2/1 51/2/1
f 55/2/1 54/2/1 53/2/1
f 56/2/1 54/2/1 55/2/1
f 59/2/1 58/2/1 57/2/1
f 60/2/1 58/2/1 59/2/1
f 63/2/1 62/2/1 61/2/1
f 64/2/1 62/2/1 63/2/1
f 65/2/2 66/2/2 67/2/2
f 67/2/2 66/2/2 68/2/2
f 69/2/2 70/2/2 71/2/2
f 71/2/2 70/2/2 72/2/2
f 73/2/2 74/2/2 75/2/2
f 75/2/2 74/2/2 76/2/2
f 77/2/2 78/2/2 79/2/2
f 79/2/2 78/2/2 80/2/2
f 81/2/2 82/2/2 83/2/2
f 83/2/2 82/2/2 84/2/2
f 85/2/2 86/2/2 87/2/2
f 87/2/2 86/2/2 88/2/2
f 89/2/2 90/2/2 91/2/2
f 91/2/2 90/2/2 92/2/2
f 93/2/2 94/2/2 95/2/2
f 95/2/2 94/2/2 96/2/2
f 97/2/2 98/2/2 99/2/2
f 99/2/2 98/2/2 100/2/2
f 101/2/2 102/2/2 103/2/2
f 103/2/2 102/2/2 104/2/2
f 105/2/2 106/2/2 107/2/2
f 107/2/2 106/2/2 108/2/2
f 109/2/2 110/2/2 111/2/2
f 111/2/2 110/2/2 112/2/2
f 113/2/2 114/2/2 115/2/2
f 115/2/2 114/2/2 116/2/2
f 117/2/2 118/2/2 119/2/2
f 119/2/2 118/2/2 120/2/2
f 121/2/2 122/2/2 123/2/2
f 123/2/2 122/2/2 124/2/2
f 125/2/2 126/2/2 127/2/2
f 127/2/2 126/2/2 128/2/2
f 129/2/2 130/2/2 131/2/2
f 131/2/2 130/2/2 132/2/2
f 136/2/3 134/2/3 133/2/3
f 137/2/3 134/2/3 136/2/3
f 139/1/3 137/1/3 136/1/3
f 139/2/3 138/2/3 137/2/3
f 140/2/3 138/2/3 139/2/3
f 142/1/3 140/1/3 139/1/3
f 142/2/3 141/2/3 140/2/3
f 143/2/3 141/2/3 142/2/3
f 145/1/3 143/1/3 142/1/3
f 145/2/3 144/2/3 143/2/3
f 146/2/3 144/2/3 145/2/3
f 148/1/3 146/1/3 145/1/3
f 148/2/3 147/2/3 146/2/3
f 149/2/3 147/2/3 148/2/3
f 151/1/3 149/1/3 148/1/3
f 151/2/3 150/2/3 149/2/3
f 152/2/3 150/2/3 151/2/3
f 154/1/3 152/1/3 151/1/3
f 154/2/3 153/2/3 152/2/3
f 155/2/3 153/2/3 154/2/3
f 157/1/3 154/1/3 151/1/3
f 157/1/3 155/1/3 154/1/3
f 158/2/3 156/2/3 155/2/3
f 158/1/3 155/1/3 157/1/3
f 159/2/3 156/2/3 158/2/3
f 160/1/3 157/1/3 151/1/3
f 160/2/3 158/2/3 157/2/3
f 161/2/3 158/2/3 160/2/3
f 163/1/3 161/1/3 160/1/3
f 163/2/3 162/2/3 161/2/3
f 164/2/3 162/2/3 163/2/3
f 166/1/3 164/1/3 163/1/3
f 166/2/3 165/2/3 164/2/3
f 167/2/3 165/2/3 166/2/3
f 169/1/3 166/1/3 163/1/3
f 169/1/3 167/1/3 166/1/3
f 170/2/3 168/2/3 167/2/3
f 170/1/3 167/1/3 169/1/3
f 171/2/3 168/2/3 170/2/3
f 172/1/3 169/1/3 163/1/3
f 173/2/3 170/2/3 169/2/3
f 173/1/3 169/1/3 172/1/3
f 174/2/3 170/2/3 173/2/3
f 175/1/3 160/1/3 151/1/3
f 175/1/3 163/1/3 160/1/3
f 175/1/3 172/1/3 163/1/3
f 176/2/3 173/2/3 172/2/3
f 176/1/3 172/1/3 175/1/3
f 177/2/3 173/2/3 176/2/3
f 178/1/3 175/1/3 151/1/3
f 179/2/3 176/2/3 175/2/3
f 179/1/3 175/1/3 178/1/3
f 180/2/3 176/2/3 179/2/3
f 181/1/3 151/1/3 148/1/3
f 181/1/3 178/1/3 151/1/3
f 182/2/3 179/2/3 178/2/3
f 182/1/3 178/1/3 181/1/3
f 183/2/3 179/2/3 182/2/3
f 184/1/3 148/1/3 145/1/3
f 184/1/3 181/1/3 148/1/3
f 185/2/3 182/2/3 181/2/3
f 185/1/3 181/1/3 184/1/3
f 186/2/3 182/2/3 185/2/3
f 187/1/3 145/1/3 142/1/3
f 187/1/3 184/1/3 145/1/3
f 188/2/3 185/2/3 184/2/3
f 188/1/3 184/1/3 187/1/3
f 189/2/3 185/2/3 188/2/3
f 190/1/3 142/1/3 139/1/3
f 190/1/3 187/1/3 142/1/3
f 191/2/3 188/2/3 187/2/3
f 191/1/3 187/1/3 190/1/3
f 192/2/3 188/2/3 191/2/3
f 193/1/3 139/1/3 136/1/3
f 193/1/3 190/1/3 139/1/3
f 194/2/3 191/2/3 190/2/3
f 194/1/3 190/1/3 193/1/3
f 195/2/3 191/2/3 194/2/3
f 196/2/3 136/2/3 135/2/3
f 197/1/3 193/1/3 136/1/3
f 197/2/3 136/2/3 196/2/3
f 198/2/3 194/2/3 193/2/3
f 198/1/3 193/1/3 197/1/3
f 199/2/3 194/2/3 198/2/3
f 200/2/3 198/2/3 197/2/3
f 201/2/3 198/2/3 200/2/3
f 204/2/3 203/2/3 202/2/3
f 205/2/3 203/2/3 204/2/3
f 208/2/3 207/2/3 206/2/3
f 209/2/3 207/2/3 208/2/3
f 212/2/3 211/2/3 210/2/3
f 213/2/3 211/2/3 212/2/3
f 216/2/3 215/2/3 214/2/3
f 217/2/3 215/2/3 216/2/3
f 218/2/4 219/2/4 220/2/4
f 220/2/4 219/2/4 221/2/4
f 222/2/4 223/2/4 224/2/4
f 224/2/4 223/2/4 225/2/4
f 226/2/4 227/2/4 228/2/4
f 228/2/4 227/2/4 229/2/4
f 230/2/4 231/2/4 232/2/4
f 232/2/4 231/2/4 233/2/4
f 234/2/4 235/2/4 237/2/4
f 237/2/4 235/2/4 238/2/4
f 237/1/4 238/1/4 240/1/4
f 238/2/4 239/2/4 240/2/4
f 240/2/4 239/2/4 241/2/4
f 240/1/4 241/1/4 243/1/4
f 241/2/4 242/2/4 243/2/4
f 243/2/4 242/2/4 244/2/4
f 243/1/4 244/1/4 246/1/4
f 244/2/4 245/2/4 246/2/4
f 246/2/4 245/2/4 247/2/4
f 246/1/4 247/1/4 249/1/4
f 247/2/4 248/2/4 249/2/4
f 249/2/4 248/2/4 250/2/4
f 249/1/4 250/1/4 252/1/4
f 250/2/4 251/2/4 252/2/4
f 252/2/4 251/2/4 253/2/4
f 252/1/4 253/1/4 255/1/4
f 253/2/4 254/2/4 255/2/4
f 255/2/4 254/2/4 256/2/4
f 252/1/4 255/1/4 258/1/4
f 255/1/4 256/1/4 258/1/4
f 256/2/4 257/2/4 259/2/4
f 258/1/4 256/1/4 259/1/4
f 259/2/4 257/2/4 260/2/4
f 252/1/4 258/1/4 261/1/4
f 258/2/4 259/2/4 261/2/4
f 261/2/4 259/2/4 262/2/4
f 261/1/4 262/1/4 264/1/4
f 252/1/4 261/1/4 264/1/4
f 264/1/4 262/1/4 265/1/4
f 262/2/4 263/2/4 266/2/4
f 265/1/4 262/1/4 266/1/4
f 266/2/4 263/2/4 267/2/4
f 264/2/4 265/2/4 269/2/4
f 252/1/4 264/1/4 269/1/4
f 266/1/4 267/1/4 270/1/4
f 269/2/4 265/2/4 270/2/4
f 265/1/4 266/1/4 270/1/4
f 270/1/4 267/1/4 271/1/4
f 267/2/4 268/2/4 272/2/4
f 271/1/4 267/1/4 272/1/4
f 272/2/4 268/2/4 273/2/4
f 270/2/4 271/2/4 275/2/4
f 269/1/4 270/1/4 275/1/4
f 272/1/4 273/1/4 276/1/4
f 275/2/4 271/2/4 276/2/4
f 271/1/4 272/1/4 276/1/4
f 252/1/4 269/1/4 277/1/4
f 269/1/4 275/1/4 277/1/4
f 275/1/4 276/1/4 277/1/4
f 277/1/4 276/1/4 278/1/4
f 276/1/4 273/1/4 279/1/4
f 278/1/4 276/1/4 279/1/4
f 273/2/4 274/2/4 280/2/4
f 279/1/4 273/1/4 280/1/4
f 280/2/4 274/2/4 281/2/4
f 249/1/4 252/1/4 282/1/4
f 252/1/4 277/1/4 282/1/4
f 277/2/4 278/2/4 283/2/4
f 282/1/4 277/1/4 283/1/4
f 278/1/4 279/1/4 284/1/4
f 283/2/4 278/2/4 284/2/4
f 284/1/4 279/1/4 285/1/4
f 279/2/4 280/2/4 286/2/4
f 285/1/4 279/1/4 286/1/4
f 286/2/4 280/2/4 287/2/4
f 282/2/4 283/2/4 288/2/4
f 249/1/4 282/1/4 288/1/4
f 284/1/4 285/1/4 289/1/4
f 288/2/4 283/2/4 289/2/4
f 283/1/4 284/1/4 289/1/4
f 289/1/4 285/1/4 290/1/4
f 285/2/4 286/2/4 291/2/4
f 290/1/4 285/1/4 291/1/4
f 289/1/4 290/1/4 292/1/4
f 288/1/4 289/1/4 292/1/4
f 290/2/4 291/2/4 293/2/4
f 292/1/4 290/1/4 293/1/4
f 291/2/4 286/2/4 294/2/4
f 293/2/4 291/2/4 294/2/4
f 294/2/4 286/2/4 295/2/4
f 288/1/4 292/1/4 296/1/4
f 292/2/4 293/2/4 297/2/4
f 296/1/4 292/1/4 297/1/4
f 293/2/4 294/2/4 297/2/4
f 297/2/4 294/2/4 298/2/4
f 288/1/4 296/1/4 299/1/4
f 249/1/4 288/1/4 299/1/4
f 296/2/4 297/2/4 300/2/4
f 299/1/4 296/1/4 300/1/4
f 300/2/4 297/2/4 301/2/4
f 246/1/4 249/1/4 302/1/4
f 249/1/4 299/1/4 302/1/4
f 299/2/4 300/2/4 303/2/4
f 302/1/4 299/1/4 303/1/4
f 303/2/4 300/2/4 304/2/4
f 243/1/4 246/1/4 305/1/4
f 246/1/4 302/1/4 305/1/4
f 302/2/4 303/2/4 306/2/4
f 305/1/4 302/1/4 306/1/4
f 306/2/4 303/2/4 307/2/4
f 240/1/4 243/1/4 308/1/4
f 243/1/4 305/1/4 308/1/4
f 305/2/4 306/2/4 309/2/4
f 308/1/4 305/1/4 309/1/4
f 309/2/4 306/2/4 310/2/4
f 237/1/4 240/1/4 311/1/4
f 240/1/4 308/1/4 311/1/4
f 308/2/4 309/2/4 312/2/4
f 311/1/4 308/1/4 312/1/4
f 312/2/4 309/2/4 313/2/4
f 236/2/4 237/2/4 314/2/4
f 237/1/4 311/1/4 315/1/4
f 314/2/4 237/2/4 315/2/4
f 311/2/4 312/2/4 316/2/4
f 315/1/4 311/1/4 316/1/4
f 316/2/4 312/2/4 317/2/4
f 315/2/4 316/2/4 318/2/4
f 318/2/4 316/2/4 319/2/4
f 322/2/5 321/2/5 320/2/5
f 323/2/5 321/2/5 322/2/5
f 328/2/5 325/2/5 324/2/5
f 329/2/5 325/2/5 328/2/5
f 330/2/5 327/2/5 326/2/5
f 331/2/5 327/2/5 330/2/5
f 332/2/6 333/2/6 336/2/6
f 336/2/6 333/2/6 337/2/6
f 334/2/6 335/2/6 338/2/6
f 338/2/6 335/2/6 339/2/6
f 340/2/6 341/2/6 344/2/6
f 344/2/6 341/2/6 345/2/6
f 342/2/6 343/2/6 346/2/6
f 346/2/6 343/2/6 347/2/6
f 348/2/6 349/2/6 352/2/6
f 352/2/6 349/2/6 353/2/6
f 350/2/6 351/2/6 354/2/6
f 354/2/6 351/2/6 355/2/6
f 356/2/6 357/2/6 360/2/6
f 360/2/6 357/2/6 361/2/6
f 358/2/6 359/2/6 362/2/6
f 362/2/6 359/2/6 363/2/6
f 366/2/6 367/2/6 368/2/6
f 368/2/6 367/2/6 369/2/6
f 366/2/6 368/2/6 370/2/6
f 369/2/6 367/2/6 371/2/6
f 364/2/6 365/2/6 372/2/6
f 372/2/6 365/2/6 373/2/6
f 370/2/6 371/2/6 374/2/6
f 366/2/6 370/2/6 374/2/6
f 371/2/6 367/2/6 375/2/6
f 374/2/6 371/2/6 375/2/6
f 378/2/6 379/2/6 380/2/6
f 380/2/6 379/2/6 381/2/6
f 376/2/6 377/2/6 382/2/6
f 382/2/6 377/2/6 383/2/6
f 384/2/6 385/2/6 386/2/6
f 386/2/6 385/2/6 387/2/6
f 388/2/6 389/2/6 390/2/6
f 390/2/6 389/2/6 391/2/6
f 392/2/6 393/2/6 396/2/6
f 396/2/6 393/2/6 397/2/6
f 394/2/6 395/2/6 398/2/6
f 398/2/6 395/2/6 399/2/6
f 400/2/6 401/2/6 404/2/6
f 404/2/6 401/2/6 405/2/6
f 400/2/6 404/2/6 406/2/6
f 405/2/6 401/2/6 407/2/6
f 400/2/6 406/2/6 408/2/6
f 406/2/6 407/2/6 408/2/6
f 407/2/6 401/2/6 409/2/6
f 408/2/6 407/2/6 409/2/6
f 402/2/6 403/2/6 410/2/6
f 410/2/6 403/2/6 411/2/6
f 416/2/6 417/2/6 418/2/6
f 418/2/6 417/2/6 419/2/6
f 412/2/6 413/2/6 420/2/6
f 420/2/6 413/2/6 421/2/6
f 414/2/6 415/2/6 422/2/6
f 422/2/6 415/2/6 423/2/6
f 424/2/6 425/2/6 428/2/6
f 428/2/6 425/2/6 429/2/6
f 426/2/6 427/2/6 430/2/6
f 430/2/6 427/2/6 431/2/6
f 432/2/6 433/2/6 434/2/6
f 434/2/6 433/2/6 435/2/6
f 432/2/6 434/2/6 436/2/6
f 435/2/6 433/2/6 437/2/6
f 437/2/6 433/2/6 438/2/6
f 436/2/6 437/2/6 439/2/6
f 438/2/6 433/2/6 440/2/6
f 432/2/6 436/2/6 441/2/6
f 439/2/6 440/2/6 441/2/6
f 436/2/6 439/2/6 441/2/6
f 440/2/6 433/2/6 442/2/6
f 441/2/6 440/2/6 442/2/6
f 443/2/6 444/2/6 445/2/6
f 445/2/6 444/2/6 446/2/6
f 446/2/6 447/2/6 448/2/6
f 448/2/6 447/2/6 449/2/6
