# MagicaVoxel @ Ephtracy

# group
o 

# material
mtllib holmUp.mtl
usemtl palette

# normals
vn -1 0 0
vn 1 0 0
vn 0 0 1
vn 0 0 -1
vn 0 -1 0
vn 0 1 0

# texcoords
vt 0.794922 0.5
vt 0.876953 0.5
vt 0.904297 0.5

# verts
v 0 2 0
v 0 2 -3.6
v 0 5.4 0
v 0 5.4 -3.6
v 0.2 5.4 0
v 0.2 5.4 -3.6
v 0.2 5.6 0
v 0.2 5.6 -3.6
v 0.4 5.4 -3.4
v 0.4 5.4 -3.6
v 0.4 5.6 -3.4
v 0.4 5.6 -3.6
v 3.4 5.4 0
v 3.4 5.4 -3.4
v 3.4 5.6 0
v 3.4 5.6 -3.4
v 3.6 2 0
v 3.6 2 -3.6
v 3.6 5.4 0
v 3.6 5.4 -3.6
v 0 2 0
v 0 5.4 0
v 0.2 5.4 0
v 0.2 5.6 0
v 3.4 5.4 0
v 3.4 5.6 0
v 3.6 2 0
v 3.6 5.4 0
v 0.4 5.4 -3.4
v 0.4 5.6 -3.4
v 3.4 5.4 -3.4
v 3.4 5.6 -3.4
v 0 2 -3.6
v 0 5.4 -3.6
v 0.2 5.4 -3.6
v 0.2 5.6 -3.6
v 0.4 2 -3.6
v 0.4 5.4 -3.6
v 0.4 5.6 -3.6
v 3.4 2 -3.6
v 3.4 5.4 -3.6
v 3.6 2 -3.6
v 3.6 5.4 -3.6
v 0 2 0
v 3.6 2 0
v 0.4 2 -3.4
v 3.4 2 -3.4
v 0 2 -3.6
v 0.4 2 -3.6
v 3.4 2 -3.6
v 3.6 2 -3.6
v 0 5.4 0
v 0.2 5.4 0
v 3.4 5.4 0
v 3.6 5.4 0
v 0.4 5.4 -3.4
v 3.4 5.4 -3.4
v 0 5.4 -3.6
v 0.2 5.4 -3.6
v 0.4 5.4 -3.6
v 3.4 5.4 -3.6
v 3.6 5.4 -3.6
v 0.2 5.6 0
v 3.4 5.6 0
v 0.4 5.6 -3.4
v 3.4 5.6 -3.4
v 0.2 5.6 -3.6
v 0.4 5.6 -3.6

# faces
f 3/1/1 2/1/1 1/1/1
f 4/1/1 2/1/1 3/1/1
f 7/2/1 6/2/1 5/2/1
f 8/2/1 6/2/1 7/2/1
f 9/2/2 10/2/2 11/2/2
f 11/2/2 10/2/2 12/2/2
f 13/2/2 14/2/2 15/2/2
f 15/2/2 14/2/2 16/2/2
f 17/1/2 18/1/2 19/1/2
f 19/1/2 18/1/2 20/1/2
f 23/1/3 22/1/3 21/1/3
f 25/1/3 23/1/3 21/1/3
f 25/2/3 24/2/3 23/2/3
f 26/2/3 24/2/3 25/2/3
f 27/1/3 25/1/3 21/1/3
f 28/1/3 25/1/3 27/1/3
f 29/2/4 30/2/4 31/2/4
f 31/2/4 30/2/4 32/2/4
f 33/1/4 34/1/4 35/1/4
f 33/1/4 35/1/4 37/1/4
f 35/2/4 36/2/4 38/2/4
f 37/1/4 35/1/4 38/1/4
f 38/2/4 36/2/4 39/2/4
f 37/3/4 38/3/4 40/3/4
f 40/3/4 38/3/4 41/3/4
f 40/1/4 41/1/4 42/1/4
f 42/1/4 41/1/4 43/1/4
f 46/1/5 45/1/5 44/1/5
f 47/1/5 45/1/5 46/1/5
f 48/1/5 46/1/5 44/1/5
f 49/3/5 47/3/5 46/3/5
f 49/1/5 46/1/5 48/1/5
f 50/1/5 45/1/5 47/1/5
f 50/3/5 47/3/5 49/3/5
f 51/1/5 45/1/5 50/1/5
f 54/1/6 55/1/6 57/1/6
f 52/1/6 53/1/6 58/1/6
f 58/1/6 53/1/6 59/1/6
f 56/3/6 57/3/6 60/3/6
f 57/1/6 55/1/6 61/1/6
f 60/3/6 57/3/6 61/3/6
f 61/1/6 55/1/6 62/1/6
f 63/2/6 64/2/6 65/2/6
f 65/2/6 64/2/6 66/2/6
f 63/2/6 65/2/6 67/2/6
f 67/2/6 65/2/6 68/2/6
