# MagicaVoxel @ Ephtracy

# group
o 

# material
mtllib holmUpRight.mtl
usemtl palette

# normals
vn -1 0 0
vn 1 0 0
vn 0 0 1
vn 0 0 -1
vn 0 -1 0
vn 0 1 0

# texcoords
vt 0.794922 0.5
vt 0.876953 0.5
vt 0.904297 0.5

# verts
v 0 2 0
v 0 2 -3.6
v 0 2.2 0
v 0 2.2 -3.6
v 0 5.6 0
v 0 5.6 -3.6
v 3.6 2 0
v 3.6 2 -3.4
v 3.6 2 -3.6
v 3.6 5.4 -3.4
v 3.6 5.4 -3.6
v 3.6 5.6 0
v 3.6 5.6 -3.6
v 0 2 0
v 0 2.2 0
v 0 5.6 0
v 0.2 2.2 0
v 0.2 5.4 0
v 3.4 5.4 0
v 3.4 5.6 0
v 3.6 2 0
v 3.6 5.6 0
v 0 2 -3.6
v 0 2.2 -3.6
v 0 5.6 -3.6
v 0.2 2.2 -3.6
v 0.2 5.4 -3.6
v 0.4 2 -3.6
v 0.4 5.4 -3.6
v 3.4 5.4 -3.6
v 3.4 5.6 -3.6
v 3.6 2 -3.6
v 3.6 5.4 -3.6
v 3.6 5.6 -3.6
v 0 2 0
v 3.6 2 0
v 0.4 2 -3.4
v 3.6 2 -3.4
v 0 2 -3.6
v 0.4 2 -3.6
v 3.6 2 -3.6
v 0 5.6 0
v 3.4 5.6 0
v 3.6 5.6 0
v 0 5.6 -3.6
v 3.4 5.6 -3.6
v 3.6 5.6 -3.6

# faces
f 3/1/1 2/1/1 1/1/1
f 4/1/1 2/1/1 3/1/1
f 5/2/1 4/2/1 3/2/1
f 6/2/1 4/2/1 5/2/1
f 7/1/2 8/1/2 10/1/2
f 8/3/2 9/3/2 10/3/2
f 10/3/2 9/3/2 11/3/2
f 7/1/2 10/1/2 12/1/2
f 10/1/2 11/1/2 12/1/2
f 12/1/2 11/1/2 13/1/2
f 17/1/3 15/1/3 14/1/3
f 17/2/3 16/2/3 15/2/3
f 18/2/3 16/2/3 17/2/3
f 19/1/3 18/1/3 17/1/3
f 19/2/3 16/2/3 18/2/3
f 20/2/3 16/2/3 19/2/3
f 21/1/3 17/1/3 14/1/3
f 21/1/3 19/1/3 17/1/3
f 21/1/3 20/1/3 19/1/3
f 22/1/3 20/1/3 21/1/3
f 23/1/4 24/1/4 26/1/4
f 24/2/4 25/2/4 26/2/4
f 26/2/4 25/2/4 27/2/4
f 23/1/4 26/1/4 28/1/4
f 26/1/4 27/1/4 28/1/4
f 27/2/4 25/2/4 29/2/4
f 28/1/4 27/1/4 29/1/4
f 28/3/4 29/3/4 30/3/4
f 29/2/4 25/2/4 30/2/4
f 30/2/4 25/2/4 31/2/4
f 28/3/4 30/3/4 32/3/4
f 30/1/4 31/1/4 33/1/4
f 32/3/4 30/3/4 33/3/4
f 33/1/4 31/1/4 34/1/4
f 37/1/5 36/1/5 35/1/5
f 38/1/5 36/1/5 37/1/5
f 39/1/5 37/1/5 35/1/5
f 40/3/5 38/3/5 37/3/5
f 40/1/5 37/1/5 39/1/5
f 41/3/5 38/3/5 40/3/5
f 42/2/6 43/2/6 45/2/6
f 43/1/6 44/1/6 46/1/6
f 45/2/6 43/2/6 46/2/6
f 46/1/6 44/1/6 47/1/6
